<?xml version="1.0" encoding="UTF-8"?>
<!-- Generated by Pixelmator Pro 3.1.1 -->
<svg width="195" height="96" viewBox="0 0 195 96" xmlns="http://www.w3.org/2000/svg" xmlns:xlink="http://www.w3.org/1999/xlink">
    <g id="g1">
        <g id="g2">
            <g id="A">
                <path id="path1" fill="#000000" stroke="none" d="M 23.690001 -0.739998 C 36.7668 -0.734474 47.363682 9.869865 47.360001 22.946663 C 47.356319 36.023464 36.753468 46.621838 23.676668 46.619995 C 10.599867 46.618156 1e-06 36.0168 0 22.940002 C 0.005521 9.860283 10.610278 -0.739998 23.690001 -0.739998 Z"/>
            </g>
            <g id="g3">
                <path id="path2" fill="#0099ff" stroke="none" d="M 32.450001 38.09 L 29.67 30.43 L 17.540001 30.43 L 14.9 38.09 L 9.42 38.09 L 20.879999 7.790001 L 26.469999 7.790001 L 38 38.09 Z M 23.66 12.339996 L 23.530001 12.339996 C 23.454668 13.076828 23.303877 13.803978 23.08 14.510002 L 18.940001 26.190002 L 28.24 26.190002 L 24.07 14.510002 C 23.863976 13.801506 23.726675 13.074821 23.66 12.339996 Z"/>
            </g>
        </g>
        <g id="g4">
            <g id="B">
                <path id="path3" fill="#000000" stroke="none" d="M 73.080002 -0.739998 C 86.163628 -0.739998 96.769997 9.866371 96.769997 22.949997 C 96.769997 36.033623 86.163628 46.639999 73.080002 46.639999 C 59.996376 46.639999 49.389999 36.033623 49.389999 22.949997 C 49.395519 9.86866 59.998661 -0.734482 73.080002 -0.739998 Z"/>
            </g>
            <g id="g5">
                <path id="path4" fill="#0099ff" stroke="none" d="M 83.290001 29.260002 C 83.360802 31.729874 82.277733 34.091927 80.360001 35.649998 C 78.213524 37.341469 75.530029 38.204021 72.800003 38.079998 L 62.889999 38.079998 L 62.889999 7.790001 L 72.459999 7.790001 C 74.891937 7.667542 77.299271 8.326317 79.330002 9.669998 C 80.963692 10.842445 81.908089 12.749977 81.849998 14.760002 C 81.874054 16.34079 81.343292 17.880013 80.349998 19.110001 C 79.325645 20.393089 77.927849 21.326118 76.349998 21.779999 L 76.349998 21.870003 C 78.283531 22.032959 80.09549 22.880432 81.459999 24.260002 C 82.684708 25.632668 83.339256 27.421059 83.290001 29.260002 Z M 76.519997 15.729996 C 76.566513 14.637039 76.068375 13.592064 75.190002 12.940002 C 73.992546 12.200119 72.594757 11.85067 71.190002 11.940002 L 67.93 11.940002 L 67.93 20.330002 L 71.160004 20.330002 C 72.594734 20.428253 74.016281 20.001793 75.160004 19.129997 C 76.098564 18.25679 76.597435 17.009605 76.519997 15.729996 Z M 78 29.129997 C 78.061432 27.81028 77.484703 26.541481 76.449997 25.720001 C 75.062653 24.820236 73.419128 24.398819 71.769997 24.519997 L 67.93 24.519997 L 67.93 33.929996 L 72.169998 33.929996 C 73.694778 34.016571 75.199791 33.551579 76.410004 32.619999 C 77.463295 31.774506 78.05323 30.479614 78 29.129997 Z"/>
            </g>
        </g>
        <g id="g6">
            <g id="Y">
                <path id="path5" fill="#000000" stroke="none" d="M 171.869995 -0.739998 C 184.953629 -0.739998 195.559998 9.866371 195.559998 22.949997 C 195.559998 36.033623 184.953629 46.639999 171.869995 46.639999 C 158.786377 46.639999 148.179993 36.033623 148.179993 22.949997 C 148.179993 9.866371 158.786377 -0.739998 171.869995 -0.739998 Z"/>
            </g>
            <g id="g7">
                <path id="path6" fill="#0099ff" stroke="none" d="M 174.270004 27.110001 L 174.270004 38.109997 L 169.270004 38.109997 L 169.270004 27.260002 L 159.419998 7.790001 L 165.139999 7.790001 L 171.240005 20.440002 C 171.422241 20.798363 171.56958 21.173424 171.679993 21.559998 C 171.779999 21.900002 171.850006 22.169998 171.929993 22.389999 L 171.929993 22.389999 C 172.08075 21.727432 172.3125 21.085945 172.619995 20.479996 L 179 7.790001 L 184.309998 7.790001 Z"/>
            </g>
        </g>
        <g id="g8">
            <g id="X">
                <path id="path7" fill="#000000" stroke="none" d="M 122.470001 -0.739998 C 132.052612 -0.744041 140.693924 5.025276 144.363831 13.877296 C 148.033752 22.729324 146.009399 32.920452 139.234894 39.697819 C 132.460388 46.475185 122.270111 48.503834 113.416542 44.837658 C 104.562965 41.171486 98.790001 32.532619 98.790001 22.949997 C 98.795517 9.872566 109.392563 -0.728966 122.470001 -0.739998 Z"/>
            </g>
            <g id="g9">
                <path id="path8" fill="#0099ff" stroke="none" d="M 129.589996 38.09 L 123.18 27.089996 C 123.05999 26.845032 122.959671 26.590889 122.879997 26.330002 C 122.825211 26.071663 122.751686 25.817657 122.660004 25.57 L 122.57 25.57 C 122.459999 25.839996 122.379997 26.089996 122.300003 26.339996 C 122.21096 26.598709 122.100578 26.849571 121.970001 27.089996 L 115.440002 38.09 L 109.32 38.09 L 119.459999 22.900002 L 110.199997 7.790001 L 116.389999 7.790001 L 121.790001 17.790001 C 122.213997 18.503395 122.549789 19.26564 122.790001 20.059998 L 122.870003 20.059998 C 123.169998 19.269997 123.400002 18.75 123.519997 18.5 C 123.639999 18.25 125.730003 14.699997 129.789993 7.839996 L 135.470001 7.839996 L 126.010002 22.839996 L 135.589996 38.119999 Z"/>
            </g>
        </g>
    </g>
    <g id="g10">
        <g id="g11">
            <g id="g12">
                <path id="path9" fill="#000000" stroke="none" d="M 32.450001 87.470001 L 29.67 79.810005 L 17.540001 79.810005 L 14.9 87.470001 L 9.42 87.470001 L 20.879999 57.16 L 26.469999 57.16 L 38 87.470001 Z M 23.66 61.719997 L 23.530001 61.719997 C 23.452566 62.456501 23.301819 63.183437 23.08 63.889996 L 18.940001 75.57 L 28.24 75.57 L 24.07 63.889996 C 23.865046 63.181252 23.727764 62.454666 23.66 61.719997 Z"/>
            </g>
        </g>
        <g id="g13">
            <g id="g14">
                <path id="path10" fill="#000000" stroke="none" d="M 83.290001 78.639999 C 83.363907 81.110504 82.280235 83.473869 80.360001 85.029999 C 78.214485 86.724251 75.531158 87.590294 72.800003 87.470001 L 62.889999 87.470001 L 62.889999 57.16 L 72.459999 57.16 C 74.893585 57.035515 77.302544 57.698238 79.330002 59.049999 C 80.970703 60.21648 81.917084 62.128017 81.849998 64.139999 C 81.872559 65.717514 81.341827 67.25309 80.349998 68.480003 C 79.328384 69.766068 77.92955 70.699791 76.349998 71.150002 L 76.349998 71.260002 C 78.270226 71.413818 80.070465 72.255348 81.419998 73.630005 C 82.666084 74.996368 83.33606 76.791344 83.290001 78.639999 Z M 76.519997 65.099998 C 76.566513 64.007042 76.068375 62.962063 75.190002 62.309998 C 73.992287 61.570732 72.594696 61.221333 71.190002 61.309998 L 67.93 61.309998 L 67.93 69.690002 L 71.160004 69.690002 C 72.594734 69.788254 74.016281 69.361794 75.160004 68.490005 C 76.09816 67.620705 76.597244 66.376656 76.519997 65.099998 Z M 78 78.510002 C 78.063103 77.189957 77.486046 75.920433 76.449997 75.099998 C 75.065674 74.192612 73.420654 73.767296 71.769997 73.889999 L 67.93 73.889999 L 67.93 83.310005 L 72.169998 83.310005 C 73.694778 83.396576 75.199791 82.93158 76.410004 82 C 77.460716 81.152504 78.050026 79.858986 78 78.510002 Z"/>
            </g>
        </g>
        <g id="g15">
            <g id="g16">
                <path id="path11" fill="#000000" stroke="none" d="M 174.270004 76.480003 L 174.270004 87.480003 L 169.270004 87.480003 L 169.270004 76.599998 L 159.419998 57.169998 L 165.139999 57.169998 L 171.240005 69.810005 C 171.422241 70.168365 171.56958 70.543427 171.679993 70.93 C 171.779999 71.270004 171.850006 71.540001 171.929993 71.760002 L 171.929993 71.760002 C 172.080765 71.100632 172.312515 70.462456 172.619995 69.860001 L 179 57.169998 L 184.309998 57.169998 Z"/>
            </g>
        </g>
        <g id="g17">
            <g id="g18">
                <path id="path12" fill="#000000" stroke="none" d="M 129.589996 87.470001 L 123.18 76.470001 C 123.059807 76.221664 122.959496 75.964195 122.879997 75.700005 C 122.823875 75.442001 122.750374 75.188087 122.660004 74.940002 L 122.57 74.940002 C 122.459999 75.220001 122.379997 75.459999 122.300003 75.720001 C 122.21096 75.978706 122.100578 76.229568 121.970001 76.470001 L 115.440002 87.470001 L 109.32 87.470001 L 119.459999 72.260002 L 110.199997 57.16 L 116.379997 57.16 L 121.790001 67.160004 C 122.209503 67.872185 122.545074 68.630577 122.790001 69.420006 L 122.870003 69.420006 C 123.169998 68.630005 123.400002 68.110001 123.519997 67.860001 C 123.639999 67.610001 125.730003 64.07 129.789993 57.199997 L 135.470001 57.199997 L 126.010002 72.200005 L 135.589996 87.490005 Z"/>
            </g>
        </g>
    </g>
</svg>
