<?xml version="1.0" encoding="UTF-8"?>
<!-- Generated by Pixelmator Pro 3.1.1 -->
<svg width="168" height="42" viewBox="0 0 168 42" xmlns="http://www.w3.org/2000/svg" xmlns:xlink="http://www.w3.org/1999/xlink">
    <path id="Y" fill="#0099ff" fill-rule="evenodd" stroke="none" d="M 168 21 C 168 9.40202 158.597977 0 147 0 C 135.402023 0 126 9.40202 126 21 C 126 32.59798 135.402023 42 147 42 C 158.597977 42 168 32.59798 168 21 Z"/>
    <path id="path1" fill="#ffffff" fill-rule="evenodd" stroke="none" d="M 144.692001 31.852001 L 148.136002 31.852001 L 148.136002 24.403999 L 154.296005 12.643999 L 151.020004 12.643999 L 146.623993 21.268 L 146.539993 21.268 L 142.143997 12.643999 L 138.475998 12.643999 L 144.692001 24.403999 Z"/>
    <path id="X" fill="#0099ff" fill-rule="evenodd" stroke="none" d="M 126 21 C 126 9.40202 116.597977 0 105 0 C 93.402023 0 84 9.40202 84 21 C 84 32.59798 93.402023 42 105 42 C 116.597977 42 126 32.59798 126 21 Z"/>
    <path id="path2" fill="#ffffff" fill-rule="evenodd" stroke="none" d="M 96.811996 30.852001 L 100.283997 30.852001 L 104.82 23.375999 L 104.903999 23.375999 L 109.412003 30.852001 L 113.248001 30.852001 L 107.311996 20.996 L 112.884003 11.643999 L 109.384003 11.643999 L 105.435997 18.700001 L 105.323997 18.700001 L 101.040001 11.643999 L 97.204002 11.643999 L 102.888 21.024 Z"/>
    <path id="B" fill="#0099ff" fill-rule="evenodd" stroke="none" d="M 84 21 C 84 9.402023 74.597977 0 63 0 C 51.40202 0 42 9.402023 42 21 C 42 32.59798 51.40202 42 63 42 C 74.597977 42 84 32.59798 84 21 Z"/>
    <path id="path3" fill="#ffffff" fill-rule="evenodd" stroke="none" d="M 56.015999 10.952 L 63.855999 10.952 C 64.714668 10.952 65.517326 11.087332 66.264 11.358 C 67.010674 11.628668 67.659332 12.001997 68.209999 12.478001 C 68.760666 12.954002 69.194664 13.509331 69.512001 14.143999 C 69.829338 14.778669 69.987999 15.459997 69.987999 16.188 C 69.987999 17.252005 69.731339 18.14333 69.218002 18.862 C 68.704666 19.580669 68.065338 20.126665 67.300003 20.5 L 67.300003 20.724001 C 68.326675 21.097336 69.152664 21.680662 69.778 22.474001 C 70.403336 23.267338 70.716003 24.251993 70.716003 25.427999 C 70.716003 26.286671 70.543335 27.056664 70.197998 27.737999 C 69.852661 28.419336 69.38134 29.002665 68.783997 29.487999 C 68.186661 29.973335 67.491341 30.346664 66.697998 30.608 C 65.904663 30.869335 65.050674 31 64.136002 31 L 56.015999 31 Z M 63.576 19.128 C 64.453339 19.128 65.129997 18.890003 65.606003 18.414 C 66.082001 17.937998 66.32 17.373337 66.32 16.719999 C 66.32 16.066664 66.08667 15.506668 65.620003 15.040001 C 65.153328 14.573332 64.509338 14.34 63.688 14.34 L 59.796001 14.34 L 59.796001 19.128 Z M 63.995998 27.528 C 64.948006 27.528 65.675995 27.290003 66.18 26.813999 C 66.684006 26.337997 66.935997 25.726671 66.935997 24.98 C 66.935997 24.23333 66.679337 23.612669 66.166 23.118 C 65.652664 22.623331 64.892006 22.375999 63.883999 22.375999 L 59.796001 22.375999 L 59.796001 27.528 Z"/>
    <path id="A" fill="#0099ff" fill-rule="evenodd" stroke="none" d="M 42 21 C 42 9.402023 32.597977 0 21 0 C 9.40202 0 -0 9.402023 -0 21 C -0 32.59798 9.40202 42 21 42 C 32.597977 42 42 32.59798 42 21 Z"/>
    <path id="path4" fill="#ffffff" fill-rule="evenodd" stroke="none" d="M 17.868 9.952 L 22.18 9.952 L 29.712 30 L 25.540001 30 L 23.888 25.212 L 16.16 25.212 L 14.508 30 L 10.336 30 Z M 22.656 21.74 L 20.864 16.728001 L 20.136 14.292 L 19.912001 14.292 L 19.184 16.728001 L 17.392 21.74 Z"/>
</svg>
