<?xml version="1.0" encoding="UTF-8"?>
<!-- Generated by Pixelmator Pro 3.1.1 -->
<svg width="506" height="506" viewBox="0 0 506 506" xmlns="http://www.w3.org/2000/svg" xmlns:xlink="http://www.w3.org/1999/xlink">
    <g id="Select-Start">
        <path id="Start" fill="#000000" fill-opacity="0.75" fill-rule="evenodd" stroke="none" d="M 297.600006 182 C 307.316772 182 312.17514 182 315.817932 184.04007 C 318.392456 185.481873 320.518127 187.607544 321.95993 190.182068 C 324 193.82486 324 198.683228 324 208.399994 L 324 221.600006 C 324 231.316772 324 236.17514 321.95993 239.817932 C 320.518127 242.392456 318.392456 244.518127 315.817932 245.95993 C 312.17514 248 307.316772 248 297.600006 248 L 284.399994 248 C 274.683228 248 269.82486 248 266.182068 245.95993 C 263.607544 244.518127 261.481873 242.392456 260.04007 239.817932 C 258 236.17514 258 231.316772 258 221.600006 L 258 208.399994 C 258 198.683228 258 193.82486 260.04007 190.182068 C 261.481873 187.607544 263.607544 185.481873 266.182068 184.04007 C 269.82486 182 274.683228 182 284.399994 182 Z"/>
        <path id="path1" fill="#ffffff" stroke="none" d="M 275.25 226.355988 L 275.25 222.473328 L 307.25 222.473328 L 307.25 226.355988 Z M 275.25 217.012024 L 275.25 213.129333 L 307.25 213.129333 L 307.25 217.012024 Z M 275.25 207.625305 L 275.25 203.700012 L 307.25 203.700012 L 307.25 207.625305 Z"/>
        <path id="Select" fill="#000000" fill-opacity="0.75" fill-rule="evenodd" stroke="none" d="M 221.600006 182 C 231.316757 182 236.17514 182 239.817932 184.04007 C 242.392456 185.481873 244.518127 187.607544 245.95993 190.182068 C 248 193.82486 248 198.683228 248 208.399994 L 248 221.600006 C 248 231.316772 248 236.17514 245.95993 239.817932 C 244.518127 242.392456 242.392456 244.518127 239.817932 245.95993 C 236.17514 248 231.316757 248 221.600006 248 L 208.399994 248 C 198.683243 248 193.82486 248 190.182053 245.95993 C 187.607529 244.518127 185.481873 242.392456 184.04007 239.817932 C 182 236.17514 182 231.316772 182 221.600006 L 182 208.399994 C 182 198.683228 182 193.82486 184.04007 190.182068 C 185.481873 187.607544 187.607529 185.481873 190.182068 184.04007 C 193.82486 182 198.683243 182 208.399994 182 Z"/>
        <path id="path2" fill="#ffffff" stroke="none" d="M 202.230316 229.967865 C 201.361542 229.967865 200.589294 229.64209 199.913574 228.990509 C 199.237854 228.338928 198.899994 227.554596 198.899994 226.637573 L 198.899994 213.316284 L 202.230316 213.316284 L 202.230316 226.637573 L 218.519913 226.637573 L 218.519913 229.967865 Z M 207.298187 224.899994 C 206.405273 224.899994 205.626999 224.580231 204.963348 223.940735 C 204.299698 223.301208 203.96788 222.522919 203.96788 221.605896 L 203.96788 208.176025 L 207.261993 208.176025 L 207.261993 221.605896 L 223.696381 221.605896 L 223.696381 224.899994 Z M 212.366058 219.832123 C 211.44902 219.832123 210.664703 219.506348 210.013123 218.854767 C 209.361542 218.203156 209.035751 217.418854 209.035751 216.501801 L 209.035751 204.230316 C 209.035751 203.361542 209.361542 202.589294 210.013123 201.913574 C 210.664703 201.237854 211.44902 200.899994 212.366058 200.899994 L 227.569687 200.899994 C 228.486725 200.899994 229.271042 201.237854 229.922623 201.913574 C 230.574203 202.589294 230.899994 203.361542 230.899994 204.230316 L 230.899994 216.501801 C 230.899994 217.418854 230.574203 218.203156 229.922623 218.854767 C 229.271042 219.506348 228.486725 219.832123 227.569687 219.832123 Z M 212.366058 216.501801 L 227.569687 216.501801 L 227.569687 206.583252 L 212.366058 206.583252 L 212.366058 216.501801 Z"/>
    </g>
    <g id="DPad">
        <path id="path3" fill="#000000" fill-opacity="0.75" fill-rule="evenodd" stroke="none" d="M 132.400391 476 C 122.683662 476 117.82444 475.999054 114.181641 473.958984 C 111.607117 472.517181 109.482819 470.392883 108.041016 467.818359 C 106.000954 464.175598 106 459.316345 106 449.599609 L 106 360.400391 C 106 350.683685 106.000954 345.824463 108.041016 342.181641 C 109.482819 339.607117 111.607117 337.482819 114.181641 336.041016 C 117.82444 334.000946 122.683662 334 132.400391 334 L 221.599609 334 C 231.316299 334 236.175568 334.000946 239.818359 336.041016 C 242.392883 337.482819 244.517181 339.607117 245.958984 342.181641 C 247.999054 345.824432 248 350.683685 248 360.400391 L 248 449.599609 C 248 459.316315 247.999054 464.175598 245.958984 467.818359 C 244.517181 470.392883 242.392883 472.517181 239.818359 473.958984 C 236.175568 475.999054 231.316315 476 221.599609 476 L 132.400391 476 Z M 177 462 C 188.597946 462 198 452.597961 198 441 C 198 429.402039 188.597946 420 177 420 C 165.402054 420 156 429.402039 156 441 C 156 452.597961 165.402054 462 177 462 Z M 141 426 C 152.597931 426 162 416.597931 162 405 C 162 393.402069 152.597931 384 141 384 C 129.402069 384 120 393.402069 120 405 C 120 416.597931 129.402069 426 141 426 Z M 213 426 C 224.597916 426 234 416.5979 234 405 C 234 393.4021 224.597916 384 213 384 C 201.402084 384 192 393.4021 192 405 C 192 416.5979 201.402084 426 213 426 Z M 177 390 C 188.597961 390 198 380.597961 198 369 C 198 357.402039 188.597961 348 177 348 C 165.402039 348 156 357.402039 156 369 C 156 380.597961 165.402039 390 177 390 Z"/>
        <path id="Right" fill="#000000" fill-opacity="0.5" fill-rule="evenodd" stroke="none" d="M 234 405 C 234 393.402039 224.597977 384 213 384 C 201.402023 384 192 393.402039 192 405 C 192 416.597961 201.402023 426 213 426 C 224.597977 426 234 416.597961 234 405 Z"/>
        <path id="RightArrow" fill="#ffffff" stroke="none" d="M 212.915985 395.431946 L 223.399994 405.947937 L 212.915985 416.399994 L 210.838364 414.386292 L 217.806396 407.386292 L 202.399994 407.386292 L 202.399994 404.477631 L 217.806396 404.477631 L 210.838364 397.509583 Z"/>
        <path id="Left" fill="#000000" fill-opacity="0.5" fill-rule="evenodd" stroke="none" d="M 162 405 C 162 393.402039 152.597977 384 141 384 C 129.402023 384 120 393.402039 120 405 C 120 416.597961 129.402023 426 141 426 C 152.597977 426 162 416.597961 162 405 Z"/>
        <path id="LeftArrow" fill="#ffffff" stroke="none" d="M 140.084015 415.568054 L 129.600006 405.052063 L 140.084015 394.600006 L 142.161636 396.613708 L 135.193604 403.613708 L 150.600006 403.613708 L 150.600006 406.522369 L 135.193604 406.522369 L 142.161636 413.490417 Z"/>
        <path id="Down" fill="#000000" fill-opacity="0.5" fill-rule="evenodd" stroke="none" d="M 198 441 C 198 429.402039 188.597977 420 177 420 C 165.402023 420 156 429.402039 156 441 C 156 452.597992 165.402023 462 177 462 C 188.597977 462 198 452.597992 198 441 Z"/>
        <path id="DownArrow" fill="#ffffff" stroke="none" d="M 186.568039 441.915985 L 176.052048 452.399994 L 165.599991 441.915985 L 167.613693 439.838348 L 174.613693 446.806396 L 174.613693 431.399994 L 177.522369 431.399994 L 177.522369 446.806396 L 184.490417 439.838348 Z"/>
        <path id="Up" fill="#000000" fill-opacity="0.5" fill-rule="evenodd" stroke="none" d="M 198 369 C 198 357.402039 188.597977 348 177 348 C 165.402023 348 156 357.402039 156 369 C 156 380.597961 165.402023 390 177 390 C 188.597977 390 198 380.597961 198 369 Z"/>
        <path id="UpArrow" fill="#ffffff" stroke="none" d="M 166.431961 369.084015 L 176.947952 358.600006 L 187.400009 369.084015 L 185.386307 371.161621 L 178.386307 364.193604 L 178.386307 379.600006 L 175.477631 379.600006 L 175.477631 364.193604 L 168.509583 371.161621 Z"/>
    </g>
    <g id="ABXY">
        <path id="path4" fill="#000000" fill-opacity="0.75" fill-rule="evenodd" stroke="none" d="M 360.400391 324 C 350.683624 324 345.824432 323.999054 342.181641 321.958984 C 339.607117 320.517181 337.482819 318.392883 336.041016 315.818359 C 334.000946 312.175568 334 307.316315 334 297.599609 L 334 208.400391 C 334 198.683624 334.000946 193.824432 336.041016 190.181641 C 337.482819 187.607117 339.607117 185.482819 342.181641 184.041016 C 345.824432 182.000946 350.683624 182 360.400391 182 L 449.599609 182 C 459.316376 182 464.175568 182.000946 467.818359 184.041016 C 470.392883 185.482819 472.517181 187.607117 473.958984 190.181641 C 475.999054 193.824432 476 198.683624 476 208.400391 L 476 297.599609 C 476 307.316284 475.999054 312.175568 473.958984 315.818359 C 472.517181 318.392883 470.392883 320.517181 467.818359 321.958984 C 464.175568 323.999054 459.316406 324 449.599609 324 L 360.400391 324 Z M 405 310 C 416.597992 310 426 300.597961 426 289 C 426 277.402039 416.597992 268 405 268 C 393.402008 268 384 277.402039 384 289 C 384 300.597961 393.402008 310 405 310 Z M 369 274 C 380.597992 274 390 264.597931 390 253 C 390 241.402008 380.597992 232 369 232 C 357.402008 232 348 241.402008 348 253 C 348 264.597931 357.402008 274 369 274 Z M 441 274 C 452.597992 274 462 264.597961 462 253 C 462 241.402008 452.597992 232 441 232 C 429.402008 232 420 241.402008 420 253 C 420 264.597961 429.402008 274 441 274 Z M 405 239 C 416.597992 239 426 229.597992 426 218 C 426 206.402008 416.597992 197 405 197 C 393.402008 197 384 206.402008 384 218 C 384 229.597992 393.402008 239 405 239 Z"/>
        <path id="Y" fill="#000000" fill-opacity="0.5" fill-rule="evenodd" stroke="none" d="M 426 218 C 426 206.402008 416.597992 197 405 197 C 393.402008 197 384 206.402008 384 218 C 384 229.597992 393.402008 239 405 239 C 416.597992 239 426 229.597992 426 218 Z"/>
        <path id="Y-" fill="#ffffff" fill-rule="evenodd" stroke="none" d="M 402.692017 228.85199 L 406.136017 228.85199 L 406.136017 221.403992 L 412.296021 209.644012 L 409.02002 209.644012 L 404.623993 218.268005 L 404.540009 218.268005 L 400.144012 209.644012 L 396.476013 209.644012 L 402.692017 221.403992 Z"/>
        <path id="X" fill="#000000" fill-opacity="0.5" fill-rule="evenodd" stroke="none" d="M 390 253 C 390 241.402008 380.597992 232 369 232 C 357.402008 232 348 241.402008 348 253 C 348 264.597961 357.402008 274 369 274 C 380.597992 274 390 264.597961 390 253 Z"/>
        <path id="X-" fill="#ffffff" fill-rule="evenodd" stroke="none" d="M 360.811981 262.85199 L 364.283997 262.85199 L 368.820007 255.375992 L 368.903992 255.375992 L 373.411987 262.85199 L 377.247986 262.85199 L 371.311981 252.996002 L 376.884003 243.644012 L 373.384003 243.644012 L 369.436005 250.699997 L 369.324005 250.699997 L 365.040009 243.644012 L 361.20401 243.644012 L 366.888 253.024002 Z"/>
        <path id="B" fill="#000000" fill-opacity="0.5" fill-rule="evenodd" stroke="none" d="M 462 253 C 462 241.402008 452.597992 232 441 232 C 429.402008 232 420 241.402008 420 253 C 420 264.597961 429.402008 274 441 274 C 452.597992 274 462 264.597961 462 253 Z"/>
        <path id="B-" fill="#ffffff" fill-rule="evenodd" stroke="none" d="M 434.015991 242.951996 L 441.855988 242.951996 C 442.714661 242.951996 443.517334 243.087341 444.264008 243.358002 C 445.010681 243.628662 445.659332 244.001984 446.209991 244.477997 C 446.760681 244.95401 447.194672 245.509338 447.511993 246.144012 C 447.829346 246.778656 447.988007 247.459991 447.988007 248.187988 C 447.988007 249.252014 447.731354 250.143326 447.218018 250.862 C 446.704681 251.580673 446.065338 252.126663 445.300018 252.5 L 445.300018 252.723999 C 446.326691 253.097336 447.152679 253.680664 447.778015 254.473999 C 448.403351 255.267334 448.716003 256.252014 448.716003 257.427979 C 448.716003 258.286682 448.543335 259.056671 448.197998 259.738007 C 447.852661 260.419342 447.381348 261.002686 446.783997 261.488007 C 446.186676 261.973328 445.491333 262.34668 444.697998 262.608002 C 443.904663 262.869324 443.05069 263 442.136017 263 L 434.015991 263 Z M 441.575989 251.128006 C 442.453339 251.128006 443.130005 250.889999 443.606018 250.414001 C 444.082001 249.937988 444.320007 249.373352 444.320007 248.720001 C 444.320007 248.06665 444.08667 247.506683 443.619995 247.040009 C 443.15332 246.573334 442.509338 246.339996 441.687988 246.339996 L 437.79599 246.339996 L 437.79599 251.128006 Z M 441.996002 259.528015 C 442.947998 259.528015 443.675995 259.290009 444.179993 258.813995 C 444.684021 258.338013 444.936005 257.726685 444.936005 256.97998 C 444.936005 256.233337 444.679352 255.612671 444.166016 255.117996 C 443.652679 254.623337 442.891998 254.376007 441.884003 254.376007 L 437.79599 254.376007 L 437.79599 259.528015 Z"/>
        <path id="A" fill="#000000" fill-opacity="0.5" fill-rule="evenodd" stroke="none" d="M 426 289 C 426 277.402039 416.597992 268 405 268 C 393.402008 268 384 277.402039 384 289 C 384 300.597961 393.402008 310 405 310 C 416.597992 310 426 300.597961 426 289 Z"/>
        <path id="A-" fill="#ffffff" fill-rule="evenodd" stroke="none" d="M 402.868011 277.951996 L 407.179993 277.951996 L 414.712006 298 L 410.540009 298 L 408.888 293.212006 L 401.160004 293.212006 L 399.507996 298 L 395.335999 298 Z M 407.656006 289.73999 L 405.864014 284.727997 L 405.135986 282.291992 L 404.911987 282.291992 L 404.18399 284.727997 L 402.391998 289.73999 Z"/>
    </g>
    <g id="Stick">
        <path id="path5" fill="#000000" fill-opacity="0.75" fill-rule="evenodd" stroke="none" d="M 284.400391 476 C 274.683624 476 269.824432 475.999054 266.181641 473.958984 C 263.607117 472.517181 261.482819 470.392883 260.041016 467.818359 C 258.000946 464.175568 258 459.316376 258 449.599609 L 258 360.400391 C 258 350.683655 258.000946 345.824463 260.041016 342.181641 C 261.482819 339.607117 263.607117 337.482819 266.181641 336.041016 C 269.824432 334.000946 274.683624 334 284.400391 334 L 373.599609 334 C 383.316376 334 388.175568 334.000946 391.818359 336.041016 C 394.392883 337.482819 396.517181 339.607117 397.958984 342.181641 C 399.999054 345.824432 400 350.683655 400 360.400391 L 400 449.599609 C 400 459.316345 399.999054 464.175568 397.958984 467.818359 C 396.517181 470.392883 394.392883 472.517181 391.818359 473.958984 C 388.175568 475.999054 383.316406 476 373.599609 476 L 284.400391 476 Z M 329 462 C 360.480194 462 386 436.480194 386 405 C 386 373.519806 360.480194 348 329 348 C 297.519806 348 272 373.519806 272 405 C 272 436.480194 297.519806 462 329 462 Z"/>
        <path id="path6" fill="#000000" fill-opacity="0.5" fill-rule="evenodd" stroke="none" d="M 386 405 C 386 373.519775 360.480225 348 329 348 C 297.519775 348 272 373.519775 272 405 C 272 436.480225 297.519775 462 329 462 C 360.480225 462 386 436.480225 386 405 Z"/>
        <path id="path7" fill="#000000" fill-opacity="0.75" fill-rule="evenodd" stroke="none" d="M 56.400391 324 C 46.68364 324 41.824432 323.999054 38.181641 321.958984 C 35.607121 320.517181 33.482819 318.392883 32.041016 315.818359 C 30.000956 312.175568 30 307.316345 30 297.599609 L 30 208.400391 C 30 198.683624 30.000952 193.824432 32.041016 190.181641 C 33.482815 187.607117 35.607121 185.482819 38.181641 184.041016 C 41.824432 182.000946 46.68364 182 56.400391 182 L 145.599609 182 C 155.316345 182 160.175568 182.000946 163.818359 184.041016 C 166.392883 185.482819 168.517181 187.607117 169.958984 190.181641 C 171.999054 193.824432 172 198.683624 172 208.400391 L 172 297.599609 C 172 307.316345 171.999054 312.175568 169.958984 315.818359 C 168.517181 318.392883 166.392883 320.517181 163.818359 321.958984 C 160.175568 323.999054 155.31636 324 145.599609 324 L 56.400391 324 Z M 101 310 C 132.480209 310 158 284.480194 158 253 C 158 221.519806 132.480209 196 101 196 C 69.519798 196 44 221.519806 44 253 C 44 284.480194 69.519798 310 101 310 Z"/>
        <path id="path8" fill="#000000" fill-opacity="0.5" fill-rule="evenodd" stroke="none" d="M 158 253 C 158 221.519775 132.480225 196 101 196 C 69.519768 196 44 221.519775 44 253 C 44 284.480225 69.519768 310 101 310 C 132.480225 310 158 284.480225 158 253 Z"/>
    </g>
    <g id="Bumper">
        <path id="path9" fill="#000000" fill-opacity="0.75" fill-rule="evenodd" stroke="none" d="M 449.600006 106 C 459.316772 106 464.17514 106 467.817932 108.04007 C 470.392456 109.481873 472.518127 111.607544 473.95993 114.182068 C 476 117.82486 476 122.683228 476 132.399994 L 476 145.600006 C 476 155.316772 476 160.17514 473.95993 163.817932 C 472.518127 166.392456 470.392456 168.518127 467.817932 169.95993 C 464.17514 172 459.316772 172 449.600006 172 L 436.399994 172 C 426.683228 172 421.82486 172 418.182068 169.95993 C 415.607544 168.518127 413.481873 166.392456 412.04007 163.817932 C 410 160.17514 410 155.316772 410 145.600006 L 410 132.399994 C 410 122.683228 410 117.82486 412.04007 114.182068 C 413.481873 111.607544 415.607544 109.481873 418.182068 108.04007 C 421.82486 106 426.683228 106 436.399994 106 Z"/>
        <path id="path10" fill="#ffffff" fill-rule="evenodd" stroke="none" d="M 440.550781 153 C 436.299713 153 434.173798 152.999939 432.580078 152.107422 C 431.453735 151.476624 430.523376 150.546265 429.892578 149.419922 C 429.000061 147.826202 429 145.700287 429 141.449219 L 429 136.550781 C 429 132.299713 429.000061 130.173798 429.892578 128.580078 C 430.523376 127.453735 431.453735 126.523376 432.580078 125.892578 C 434.173798 125.000061 436.299713 125 440.550781 125 L 445.449219 125 C 449.700287 125 451.826202 125.000061 453.419922 125.892578 C 454.546265 126.523376 455.476624 127.453735 456.107422 128.580078 C 456.999939 130.173798 457 132.299713 457 136.550781 L 457 141.449219 C 457 145.700287 456.999939 147.826202 456.107422 149.419922 C 455.476624 150.546265 454.546265 151.476624 453.419922 152.107422 C 451.826202 152.999939 449.700287 153 445.449219 153 L 440.550781 153 Z M 440.482422 146.466797 L 445.517578 146.466797 C 447.339478 146.466797 448.248627 146.466492 448.931641 146.083984 C 449.414368 145.813629 449.813629 145.414368 450.083984 144.931641 C 450.466492 144.248627 450.466797 143.339478 450.466797 141.517578 L 450.466797 136.482422 C 450.466797 134.660522 450.466492 133.751373 450.083984 133.068359 C 449.813629 132.585632 449.414368 132.186371 448.931641 131.916016 C 448.248627 131.533508 447.339478 131.533203 445.517578 131.533203 L 440.482422 131.533203 C 438.660522 131.533203 437.751373 131.533508 437.068359 131.916016 C 436.585632 132.186371 436.186371 132.585632 435.916016 133.068359 C 435.533508 133.751373 435.533203 134.660522 435.533203 136.482422 L 435.533203 141.517578 C 435.533203 143.339478 435.533508 144.248627 435.916016 144.931641 C 436.186371 145.414368 436.585632 145.813629 437.068359 146.083984 C 437.751373 146.466492 438.660522 146.466797 440.482422 146.466797 Z"/>
        <path id="path11" fill="#000000" fill-opacity="0.75" fill-rule="evenodd" stroke="none" d="M 69.599998 106 C 79.316757 106 84.17514 106 87.81794 108.04007 C 90.392464 109.481873 92.518135 111.607544 93.95993 114.182068 C 96 117.82486 96 122.683228 96 132.399994 L 96 145.600006 C 96 155.316772 96 160.17514 93.95993 163.817932 C 92.518127 166.392456 90.392464 168.518127 87.81794 169.95993 C 84.17514 172 79.316757 172 69.599998 172 L 56.400002 172 C 46.683235 172 41.824856 172 38.18206 169.95993 C 35.607536 168.518127 33.481865 166.392456 32.040062 163.817932 C 30 160.17514 30 155.316772 30 145.600006 L 30 132.399994 C 30 122.683228 30 117.82486 32.040062 114.182068 C 33.481865 111.607544 35.607536 109.481873 38.18206 108.04007 C 41.824856 106 46.683235 106 56.400002 106 Z"/>
        <path id="path12" fill="#ffffff" fill-rule="evenodd" stroke="none" d="M 60.550781 153 C 56.299702 153 54.173801 152.999939 52.580078 152.107422 C 51.453724 151.476624 50.523365 150.546265 49.892578 149.419922 C 49.00005 147.826202 49 145.700287 49 141.449219 L 49 136.550781 C 49 132.299713 49.00005 130.173798 49.892578 128.580078 C 50.523365 127.453735 51.453724 126.523376 52.580078 125.892578 C 54.173801 125.000061 56.299702 125 60.550781 125 L 65.449219 125 C 69.700294 125 71.826202 125.000061 73.419922 125.892578 C 74.54628 126.523376 75.476631 127.453735 76.107422 128.580078 C 76.999947 130.173798 77 132.299713 77 136.550781 L 77 141.449219 C 77 145.700287 76.999954 147.826202 76.107422 149.419922 C 75.476639 150.546265 74.54628 151.476624 73.419922 152.107422 C 71.826195 152.999939 69.700294 153 65.449219 153 L 60.550781 153 Z M 60.482422 146.466797 L 65.517578 146.466797 C 67.339478 146.466797 68.248611 146.466492 68.931641 146.083984 C 69.41436 145.813629 69.813652 145.414368 70.083984 144.931641 C 70.466499 144.248627 70.466797 143.339478 70.466797 141.517578 L 70.466797 136.482422 C 70.466797 134.660522 70.466499 133.751373 70.083984 133.068359 C 69.813652 132.585632 69.41436 132.186371 68.931641 131.916016 C 68.248611 131.533508 67.33947 131.533203 65.517578 131.533203 L 60.482422 131.533203 C 58.66053 131.533203 57.751381 131.533508 57.068359 131.916016 C 56.585636 132.186371 56.186356 132.585632 55.916016 133.068359 C 55.533504 133.751373 55.533203 134.660522 55.533203 136.482422 L 55.533203 141.517578 C 55.533203 143.339478 55.533504 144.248627 55.916016 144.931641 C 56.186356 145.414368 56.585636 145.813629 57.068359 146.083984 C 57.751381 146.466492 58.66053 146.466797 60.482422 146.466797 Z"/>
    </g>
    <g id="Trigger">
        <path id="path13" fill="#000000" fill-opacity="0.75" fill-rule="evenodd" stroke="none" d="M 360.400391 172 C 350.683624 172 345.824432 171.999054 342.181641 169.958984 C 339.607117 168.517181 337.482819 166.392883 336.041016 163.818359 C 334.000946 160.175568 334 155.316406 334 145.599609 L 334 56.400391 C 334 46.683624 334.000946 41.824432 336.041016 38.181641 C 337.482819 35.607117 339.607117 33.482819 342.181641 32.041016 C 345.824432 30.000946 350.683624 30 360.400391 30 L 373.599609 30 C 383.316376 30 388.175568 30.000946 391.818359 32.041016 C 394.392883 33.482819 396.517181 35.607117 397.958984 38.181641 C 399.999054 41.824432 400 46.683624 400 56.400391 L 400 145.599609 C 400 155.316376 399.999054 160.175568 397.958984 163.818359 C 396.517181 166.392883 394.392883 168.517181 391.818359 169.958984 C 388.175568 171.999054 383.316376 172 373.599609 172 L 360.400391 172 Z M 355.171875 152.601563 L 377.666016 152.601563 C 378.290863 152.601563 378.864075 152.458252 379.384766 152.171875 C 379.905487 151.885468 380.36142 151.455566 380.751953 150.882813 C 381.454895 149.607056 381.989044 148.254211 382.353516 146.822266 C 382.718018 145.39032 382.900391 143.918274 382.900391 142.408203 C 382.900391 140.091064 382.463989 137.930511 381.591797 135.925781 C 380.719604 133.921051 379.527649 132.170868 378.017578 130.673828 C 376.507507 129.176788 374.757324 127.997833 372.765625 127.138672 C 370.773895 126.27948 368.619904 125.849609 366.302734 125.849609 C 364.011597 125.849609 361.870605 126.292542 359.878906 127.177734 C 357.887177 128.062958 356.154602 129.248383 354.683594 130.732422 C 353.212585 132.216431 352.048645 133.960114 351.189453 135.964844 C 350.330292 137.969574 349.900391 140.117096 349.900391 142.408203 C 349.900391 143.918274 350.089264 145.38382 350.466797 146.802734 C 350.844299 148.22168 351.397949 149.581024 352.126953 150.882813 C 352.41333 151.455566 352.834778 151.885468 353.394531 152.171875 C 353.954285 152.458252 354.547028 152.601563 355.171875 152.601563 Z M 366.380859 145.611328 C 365.39151 145.63736 364.583832 145.337769 363.958984 144.712891 C 363.334137 144.088043 363.047546 143.293396 363.099609 142.330078 C 363.151672 141.36676 363.516449 140.650269 364.193359 140.181641 L 377.900391 130.849609 L 368.568359 144.556641 C 368.099731 145.233551 367.370209 145.585266 366.380859 145.611328 Z"/>
        <path id="path14" fill="#000000" fill-opacity="0.5" stroke="none" d="M 363.959167 144.712708 C 364.584015 145.337585 365.391113 145.636993 366.380463 145.610962 C 367.369812 145.5849 368.098816 145.233429 368.567444 144.556519 L 377.901184 130.848816 L 364.193481 140.182556 C 363.516571 140.651184 363.152069 141.367157 363.100006 142.330475 C 363.047943 143.293793 363.33432 144.08786 363.959167 144.712708 Z M 355.17218 152.601471 C 354.547333 152.601471 353.955017 152.458282 353.395264 152.171906 C 352.83551 151.885498 352.412415 151.455902 352.126038 150.883148 C 351.397034 149.58136 350.843781 148.221008 350.466278 146.802063 C 350.088745 145.383148 349.899994 143.91864 349.899994 142.408569 C 349.899994 140.117462 350.32959 137.969513 351.188751 135.964783 C 352.047943 133.960052 353.213013 132.215668 354.684021 130.731659 C 356.155029 129.24762 357.886383 128.063019 359.878113 127.177795 C 361.869812 126.292603 364.01123 125.850006 366.302368 125.850006 C 368.619537 125.850006 370.773956 126.279572 372.765686 127.138763 C 374.757385 127.997925 376.50827 129.176025 378.018341 130.673065 C 379.528412 132.170105 380.719513 133.921021 381.591705 135.925751 C 382.463898 137.930481 382.899994 140.091431 382.899994 142.408569 C 382.899994 143.91864 382.717743 145.389648 382.353241 146.821594 C 381.98877 148.25354 381.455017 149.607391 380.752075 150.883148 C 380.361542 151.455902 379.905914 151.885498 379.385193 152.171906 C 378.864502 152.458282 378.291718 152.601471 377.66687 152.601471 Z"/>
        <path id="path15" fill="#000000" fill-rule="evenodd" stroke="none" d="M 132.400391 172 C 122.68364 172 117.82444 171.999054 114.181641 169.958984 C 111.607117 168.517181 109.482819 166.392883 108.041016 163.818359 C 106.000954 160.175568 106 155.316406 106 145.599609 L 106 56.400391 C 106 46.683624 106.000954 41.824432 108.041016 38.181641 C 109.482819 35.607117 111.607117 33.482819 114.181641 32.041016 C 117.82444 30.000946 122.68364 30 132.400391 30 L 145.599609 30 C 155.316345 30 160.175568 30.000946 163.818359 32.041016 C 166.392883 33.482819 168.517181 35.607117 169.958984 38.181641 C 171.999054 41.824432 172 46.683624 172 56.400391 L 172 145.599609 C 172 155.316376 171.999054 160.175568 169.958984 163.818359 C 168.517181 166.392883 166.392883 168.517181 163.818359 169.958984 C 160.175568 171.999054 155.316345 172 145.599609 172 L 132.400391 172 Z M 127.132813 152.601563 L 149.626953 152.601563 C 150.251816 152.601563 150.844528 152.458252 151.404297 152.171875 C 151.96405 151.885468 152.387436 151.455566 152.673828 150.882813 C 153.402817 149.581024 153.956467 148.22168 154.333984 146.802734 C 154.711502 145.38382 154.900391 143.918274 154.900391 142.408203 C 154.900391 140.117096 154.470505 137.969574 153.611328 135.964844 C 152.752167 133.960114 151.586243 132.216431 150.115234 130.732422 C 148.644226 129.248383 146.913589 128.062958 144.921875 127.177734 C 142.930161 126.292542 140.789169 125.849609 138.498047 125.849609 C 136.180893 125.849609 134.026871 126.27948 132.035156 127.138672 C 130.043442 127.997833 128.291306 129.176788 126.78125 130.673828 C 125.271194 132.170868 124.081169 133.921051 123.208984 135.925781 C 122.336792 137.930511 121.900391 140.091064 121.900391 142.408203 C 121.900391 143.918274 122.082771 145.39032 122.447266 146.822266 C 122.81176 148.254211 123.345871 149.607056 124.048828 150.882813 C 124.439362 151.455566 124.893349 151.885468 125.414063 152.171875 C 125.934769 152.458252 126.507965 152.601563 127.132813 152.601563 Z M 138.419922 145.611328 C 137.430573 145.585266 136.701065 145.233551 136.232422 144.556641 L 126.898438 130.849609 L 140.607422 140.181641 C 141.284348 140.650269 141.647156 141.36676 141.699219 142.330078 C 141.751297 143.293396 141.466644 144.088043 140.841797 144.712891 C 140.216934 145.337769 139.409271 145.63736 138.419922 145.611328 Z"/>
        <path id="path16" fill="#000000" fill-opacity="0.5" stroke="none" d="M 140.840836 144.712708 C 140.215973 145.337585 139.408875 145.636993 138.419525 145.610962 C 137.430176 145.5849 136.701187 145.233429 136.232544 144.556519 L 126.898819 130.848816 L 140.606506 140.182556 C 141.283432 140.651184 141.647934 141.367157 141.699997 142.330475 C 141.752075 143.293793 141.465683 144.08786 140.840836 144.712708 Z M 149.627808 152.601471 C 150.25267 152.601471 150.844971 152.458282 151.404739 152.171906 C 151.964493 151.885498 152.387573 151.455902 152.673965 150.883148 C 153.402954 149.58136 153.956207 148.221008 154.333725 146.802063 C 154.711243 145.383148 154.899994 143.91864 154.899994 142.408569 C 154.899994 140.117462 154.470413 137.969513 153.611237 135.964783 C 152.752075 133.960052 151.58699 132.215668 150.115982 130.731659 C 148.644974 129.24762 146.913605 128.063019 144.92189 127.177795 C 142.930176 126.292603 140.788757 125.850006 138.497635 125.850006 C 136.180481 125.850006 134.026031 126.279572 132.034317 127.138763 C 130.042603 127.997925 128.291718 129.176025 126.781654 130.673065 C 125.271599 132.170105 124.080475 133.921021 123.20829 135.925751 C 122.336098 137.930481 121.900002 140.091431 121.900002 142.408569 C 121.900002 143.91864 122.082253 145.389648 122.446747 146.821594 C 122.811241 148.25354 123.344971 149.607391 124.047928 150.883148 C 124.438461 151.455902 124.894081 151.885498 125.414795 152.171906 C 125.935501 152.458282 126.508286 152.601471 127.133133 152.601471 Z"/>
    </g>
    <g id="Logo">
        <filter id="filter1" x="0" y="0" width="506" height="506" filterUnits="userSpaceOnUse" primitiveUnits="userSpaceOnUse" color-interpolation-filters="sRGB">
            <feGaussianBlur stdDeviation="5"/>
            <feOffset dx="-0" dy="0" result="offsetblur"/>
            <feFlood flood-color="#000000" flood-opacity="0.5"/>
            <feComposite in2="offsetblur" operator="in"/>
            <feMerge>
                <feMergeNode/>
                <feMergeNode in="SourceGraphic"/>
            </feMerge>
        </filter>
        <path id="Aperture" fill="#047aff" stroke="none" filter="url(#filter1)" d="M 239.916199 130.948853 C 245.746124 133.468689 251.90509 134.170715 257.762268 133.310516 L 235.242325 110.250275 L 234.775284 128.170776 C 236.37764 129.229095 238.092712 130.160858 239.916199 130.948853 Z M 232.732986 126.705505 L 233.477234 94.799194 L 220.620789 107.035767 C 222.138336 114.726135 226.374771 121.768219 232.732986 126.705505 Z M 260.02066 132.898224 C 267.811829 131.195038 274.901794 126.698853 279.731262 120.023743 L 247.146637 119.753082 L 260.02066 132.898224 Z M 220.287415 104.999695 L 243.11409 82.65506 L 225.389374 82.596741 C 224.375031 84.150391 223.479706 85.809235 222.718735 87.569214 L 222.434387 88.247803 C 220.20108 93.749451 219.556503 99.504822 220.287415 104.999695 Z M 262.870728 117.833984 L 280.983307 118.160583 C 281.849792 116.771729 282.626953 115.299866 283.296265 113.751373 C 285.834717 107.878174 286.526062 101.670135 285.635956 95.773651 L 262.870728 117.833984 Z M 272.775208 105.678833 L 285.180298 93.352051 C 283.460907 85.817841 279.122894 78.961212 272.729584 74.201202 L 272.775208 105.678833 Z M 226.622131 80.838684 L 258.425232 80.850677 L 246.227081 68.370117 C 238.523956 69.995239 231.490753 74.350677 226.622131 80.838684 Z M 270.634796 90.345581 L 270.936951 72.957916 C 269.421814 71.979156 267.80899 71.111145 266.098602 70.372162 C 260.301727 67.866669 254.178268 67.158264 248.35083 67.996429 L 270.634796 90.345581 Z"/>
        <filter id="filter2" x="0" y="0" width="506" height="506" filterUnits="userSpaceOnUse" primitiveUnits="userSpaceOnUse" color-interpolation-filters="sRGB">
            <feGaussianBlur stdDeviation="5"/>
            <feOffset dx="-0" dy="0" result="offsetblur"/>
            <feFlood flood-color="#000000" flood-opacity="0.5"/>
            <feComposite in2="offsetblur" operator="in"/>
            <feMerge>
                <feMergeNode/>
                <feMergeNode in="SourceGraphic"/>
            </feMerge>
        </filter>
        <path id="Lambda" fill="#047aff" fill-rule="evenodd" stroke="none" filter="url(#filter2)" d="M 245.712753 85.142761 L 245.712753 89.50528 L 249.30542 89.50528 L 250.780975 94.060272 L 239.810501 111.06131 L 245.199509 111.06131 L 253.026398 99.513428 L 258.158783 112.472717 L 266.242279 109.906525 L 264.959198 105.928925 L 261.23822 107.08371 L 252.513153 85.142761 L 245.712753 85.142761 Z"/>
    </g>
</svg>
