<?xml version="1.0" encoding="UTF-8"?>
<!-- Generated by Pixelmator Pro 3.1.1 -->
<svg width="506" height="506" viewBox="0 0 506 506" xmlns="http://www.w3.org/2000/svg" xmlns:xlink="http://www.w3.org/1999/xlink">
    <g id="Select-Start">
        <path id="Start" fill="#000000" fill-opacity="0.75" fill-rule="evenodd" stroke="none" d="M 305.850006 182 C 312.530273 182 315.870422 182 318.374817 183.402527 C 320.144806 184.393799 321.606201 185.855194 322.597473 187.625183 C 324 190.129578 324 193.469727 324 200.149994 L 324 229.850006 C 324 236.530273 324 239.870422 322.597473 242.374817 C 321.606232 244.144806 320.144836 245.606201 318.374847 246.597473 C 315.870422 248 312.530273 248 305.850006 248 L 276.149994 248 C 269.469727 248 266.129578 248 263.625153 246.597473 C 261.855194 245.606232 260.393768 244.144836 259.402557 242.374847 C 258 239.870422 258 236.530273 258 229.850006 L 258 200.149994 C 258 193.469727 258 190.129578 259.402557 187.625183 C 260.393768 185.855164 261.855194 184.393799 263.625153 183.402527 C 266.129578 182 269.469727 182 276.149994 182 Z"/>
        <path id="path1" fill="#ffffff" stroke="none" d="M 275.25 226.355988 L 275.25 222.473328 L 307.25 222.473328 L 307.25 226.355988 Z M 275.25 217.012024 L 275.25 213.129333 L 307.25 213.129333 L 307.25 217.012024 Z M 275.25 207.625305 L 275.25 203.700012 L 307.25 203.700012 L 307.25 207.625305 Z"/>
        <path id="Select" fill="#000000" fill-opacity="0.75" fill-rule="evenodd" stroke="none" d="M 229.849991 182 C 236.530273 182 239.870407 182 242.374832 183.402527 C 244.144821 184.393799 245.606216 185.855194 246.597458 187.625183 C 248 190.129578 248 193.469727 248 200.149994 L 248 229.850006 C 248 236.530273 248 239.870422 246.597458 242.374817 C 245.606216 244.144806 244.144821 245.606201 242.374832 246.597473 C 239.870407 248 236.530273 248 229.850006 248 L 200.149994 248 C 193.469727 248 190.129593 248 187.625168 246.597473 C 185.855179 245.606232 184.393784 244.144836 183.402542 242.374847 C 182 239.870422 182 236.530273 182 229.850006 L 182 200.149994 C 182 193.469727 182 190.129578 183.402542 187.625183 C 184.393784 185.855164 185.855179 184.393799 187.625168 183.402527 C 190.129593 182 193.469727 182 200.149994 182 Z"/>
        <path id="path2" fill="#ffffff" stroke="none" d="M 202.230316 229.967865 C 201.361542 229.967865 200.589294 229.64209 199.913574 228.990509 C 199.237854 228.338928 198.899994 227.554596 198.899994 226.637573 L 198.899994 213.316284 L 202.230316 213.316284 L 202.230316 226.637573 L 218.519913 226.637573 L 218.519913 229.967865 Z M 207.298187 224.899994 C 206.405273 224.899994 205.626999 224.580231 204.963348 223.940735 C 204.299698 223.301208 203.96788 222.522919 203.96788 221.605896 L 203.96788 208.176025 L 207.261993 208.176025 L 207.261993 221.605896 L 223.696381 221.605896 L 223.696381 224.899994 Z M 212.366058 219.832123 C 211.44902 219.832123 210.664703 219.506348 210.013123 218.854767 C 209.361542 218.203156 209.035751 217.418854 209.035751 216.501801 L 209.035751 204.230316 C 209.035751 203.361542 209.361542 202.589294 210.013123 201.913574 C 210.664703 201.237854 211.44902 200.899994 212.366058 200.899994 L 227.569687 200.899994 C 228.486725 200.899994 229.271042 201.237854 229.922623 201.913574 C 230.574203 202.589294 230.899994 203.361542 230.899994 204.230316 L 230.899994 216.501801 C 230.899994 217.418854 230.574203 218.203156 229.922623 218.854767 C 229.271042 219.506348 228.486725 219.832123 227.569687 219.832123 Z M 212.366058 216.501801 L 227.569687 216.501801 L 227.569687 206.583252 L 212.366058 206.583252 L 212.366058 216.501801 Z"/>
    </g>
    <g id="DPad">
        <path id="path3" fill="#000000" fill-opacity="0.75" fill-rule="evenodd" stroke="none" d="M 124.150391 476 C 117.470146 476 114.129417 476.000183 111.625 474.597656 C 109.855011 473.606415 108.393585 472.144989 107.402344 470.375 C 105.999802 467.870605 106 464.529846 106 457.849609 L 106 352.150391 C 106 345.470123 105.999802 342.129425 107.402344 339.625 C 108.393585 337.855011 109.855011 336.393585 111.625 335.402344 C 114.129425 333.999817 117.470146 334 124.150391 334 L 229.849609 334 C 236.529877 334 239.870575 333.999817 242.375 335.402344 C 244.144989 336.393585 245.606415 337.855011 246.597656 339.625 C 248.000198 342.129425 248 345.470123 248 352.150391 L 248 457.849609 C 248 464.529846 248.000198 467.870605 246.597656 470.375 C 245.606415 472.144989 244.144989 473.606415 242.375 474.597656 C 239.870575 476.000183 236.529877 476 229.849609 476 L 124.150391 476 Z M 177 462 C 188.597946 462 198 452.597961 198 441 C 198 429.402039 188.597946 420 177 420 C 165.402054 420 156 429.402039 156 441 C 156 452.597961 165.402054 462 177 462 Z M 141 426 C 152.597931 426 162 416.597931 162 405 C 162 393.402069 152.597931 384 141 384 C 129.402069 384 120 393.402069 120 405 C 120 416.597931 129.402069 426 141 426 Z M 213 426 C 224.597916 426 234 416.5979 234 405 C 234 393.4021 224.597916 384 213 384 C 201.402084 384 192 393.4021 192 405 C 192 416.5979 201.402084 426 213 426 Z M 177 390 C 188.597961 390 198 380.597961 198 369 C 198 357.402039 188.597961 348 177 348 C 165.402039 348 156 357.402039 156 369 C 156 380.597961 165.402039 390 177 390 Z"/>
        <path id="Right" fill="#000000" fill-opacity="0.5" fill-rule="evenodd" stroke="none" d="M 234 405 C 234 393.402039 224.597977 384 213 384 C 201.402023 384 192 393.402039 192 405 C 192 416.597961 201.402023 426 213 426 C 224.597977 426 234 416.597961 234 405 Z"/>
        <path id="RightArrow" fill="#ffffff" stroke="none" d="M 212.915985 395.431946 L 223.399994 405.947937 L 212.915985 416.399994 L 210.838364 414.386292 L 217.806396 407.386292 L 202.399994 407.386292 L 202.399994 404.477631 L 217.806396 404.477631 L 210.838364 397.509583 Z"/>
        <path id="Left" fill="#000000" fill-opacity="0.5" fill-rule="evenodd" stroke="none" d="M 162 405 C 162 393.402039 152.597977 384 141 384 C 129.402023 384 120 393.402039 120 405 C 120 416.597961 129.402023 426 141 426 C 152.597977 426 162 416.597961 162 405 Z"/>
        <path id="LeftArrow" fill="#ffffff" stroke="none" d="M 140.084015 415.568054 L 129.600006 405.052063 L 140.084015 394.600006 L 142.161636 396.613708 L 135.193604 403.613708 L 150.600006 403.613708 L 150.600006 406.522369 L 135.193604 406.522369 L 142.161636 413.490417 Z"/>
        <path id="Down" fill="#000000" fill-opacity="0.5" fill-rule="evenodd" stroke="none" d="M 198 441 C 198 429.402039 188.597977 420 177 420 C 165.402023 420 156 429.402039 156 441 C 156 452.597992 165.402023 462 177 462 C 188.597977 462 198 452.597992 198 441 Z"/>
        <path id="DownArrow" fill="#ffffff" stroke="none" d="M 186.568039 441.915985 L 176.052048 452.399994 L 165.599991 441.915985 L 167.613693 439.838348 L 174.613693 446.806396 L 174.613693 431.399994 L 177.522369 431.399994 L 177.522369 446.806396 L 184.490417 439.838348 Z"/>
        <path id="Up" fill="#000000" fill-opacity="0.5" fill-rule="evenodd" stroke="none" d="M 198 369 C 198 357.402039 188.597977 348 177 348 C 165.402023 348 156 357.402039 156 369 C 156 380.597961 165.402023 390 177 390 C 188.597977 390 198 380.597961 198 369 Z"/>
        <path id="UpArrow" fill="#ffffff" stroke="none" d="M 166.431961 369.084015 L 176.947952 358.600006 L 187.400009 369.084015 L 185.386307 371.161621 L 178.386307 364.193604 L 178.386307 379.600006 L 175.477631 379.600006 L 175.477631 364.193604 L 168.509583 371.161621 Z"/>
    </g>
    <g id="ABXY">
        <path id="path4" fill="#000000" fill-opacity="0.75" fill-rule="evenodd" stroke="none" d="M 352.150391 324 C 345.470123 324 342.129425 324.000183 339.625 322.597656 C 337.855042 321.606415 336.393555 320.144989 335.402344 318.375 C 333.999786 315.870575 334 312.529877 334 305.849609 L 334 200.150391 C 334 193.470123 333.999786 190.129395 335.402344 187.625 C 336.393555 185.85498 337.855042 184.393616 339.625 183.402344 C 342.129425 181.999817 345.470123 182 352.150391 182 L 457.849609 182 C 464.529877 182 467.870605 181.999817 470.375 183.402344 C 472.14502 184.393616 473.606384 185.85498 474.597656 187.625 C 476.000183 190.129395 476 193.470123 476 200.150391 L 476 305.849609 C 476 312.529877 476.000183 315.870575 474.597656 318.375 C 473.606384 320.144989 472.14502 321.606415 470.375 322.597656 C 467.870605 324.000183 464.529877 324 457.849609 324 L 352.150391 324 Z M 405 310 C 416.597992 310 426 300.597961 426 289 C 426 277.402039 416.597992 268 405 268 C 393.402008 268 384 277.402039 384 289 C 384 300.597961 393.402008 310 405 310 Z M 369 274 C 380.597992 274 390 264.597931 390 253 C 390 241.402008 380.597992 232 369 232 C 357.402008 232 348 241.402008 348 253 C 348 264.597931 357.402008 274 369 274 Z M 441 274 C 452.597992 274 462 264.597961 462 253 C 462 241.402008 452.597992 232 441 232 C 429.402008 232 420 241.402008 420 253 C 420 264.597961 429.402008 274 441 274 Z M 405 239 C 416.597992 239 426 229.597992 426 218 C 426 206.402008 416.597992 197 405 197 C 393.402008 197 384 206.402008 384 218 C 384 229.597992 393.402008 239 405 239 Z"/>
        <path id="Y" fill="#000000" fill-opacity="0.5" fill-rule="evenodd" stroke="none" d="M 426 218 C 426 206.402008 416.597992 197 405 197 C 393.402008 197 384 206.402008 384 218 C 384 229.597992 393.402008 239 405 239 C 416.597992 239 426 229.597992 426 218 Z"/>
        <path id="Y-" fill="#ffffff" fill-rule="evenodd" stroke="none" d="M 402.692017 228.85199 L 406.136017 228.85199 L 406.136017 221.403992 L 412.296021 209.644012 L 409.02002 209.644012 L 404.623993 218.268005 L 404.540009 218.268005 L 400.144012 209.644012 L 396.476013 209.644012 L 402.692017 221.403992 Z"/>
        <path id="X" fill="#000000" fill-opacity="0.5" fill-rule="evenodd" stroke="none" d="M 390 253 C 390 241.402008 380.597992 232 369 232 C 357.402008 232 348 241.402008 348 253 C 348 264.597961 357.402008 274 369 274 C 380.597992 274 390 264.597961 390 253 Z"/>
        <path id="X-" fill="#ffffff" fill-rule="evenodd" stroke="none" d="M 360.811981 262.85199 L 364.283997 262.85199 L 368.820007 255.375992 L 368.903992 255.375992 L 373.411987 262.85199 L 377.247986 262.85199 L 371.311981 252.996002 L 376.884003 243.644012 L 373.384003 243.644012 L 369.436005 250.699997 L 369.324005 250.699997 L 365.040009 243.644012 L 361.20401 243.644012 L 366.888 253.024002 Z"/>
        <path id="B" fill="#000000" fill-opacity="0.5" fill-rule="evenodd" stroke="none" d="M 462 253 C 462 241.402008 452.597992 232 441 232 C 429.402008 232 420 241.402008 420 253 C 420 264.597961 429.402008 274 441 274 C 452.597992 274 462 264.597961 462 253 Z"/>
        <path id="B-" fill="#ffffff" fill-rule="evenodd" stroke="none" d="M 434.015991 242.951996 L 441.855988 242.951996 C 442.714661 242.951996 443.517334 243.087341 444.264008 243.358002 C 445.010681 243.628662 445.659332 244.001984 446.209991 244.477997 C 446.760681 244.95401 447.194672 245.509338 447.511993 246.144012 C 447.829346 246.778656 447.988007 247.459991 447.988007 248.187988 C 447.988007 249.252014 447.731354 250.143326 447.218018 250.862 C 446.704681 251.580673 446.065338 252.126663 445.300018 252.5 L 445.300018 252.723999 C 446.326691 253.097336 447.152679 253.680664 447.778015 254.473999 C 448.403351 255.267334 448.716003 256.252014 448.716003 257.427979 C 448.716003 258.286682 448.543335 259.056671 448.197998 259.738007 C 447.852661 260.419342 447.381348 261.002686 446.783997 261.488007 C 446.186676 261.973328 445.491333 262.34668 444.697998 262.608002 C 443.904663 262.869324 443.05069 263 442.136017 263 L 434.015991 263 Z M 441.575989 251.128006 C 442.453339 251.128006 443.130005 250.889999 443.606018 250.414001 C 444.082001 249.937988 444.320007 249.373352 444.320007 248.720001 C 444.320007 248.06665 444.08667 247.506683 443.619995 247.040009 C 443.15332 246.573334 442.509338 246.339996 441.687988 246.339996 L 437.79599 246.339996 L 437.79599 251.128006 Z M 441.996002 259.528015 C 442.947998 259.528015 443.675995 259.290009 444.179993 258.813995 C 444.684021 258.338013 444.936005 257.726685 444.936005 256.97998 C 444.936005 256.233337 444.679352 255.612671 444.166016 255.117996 C 443.652679 254.623337 442.891998 254.376007 441.884003 254.376007 L 437.79599 254.376007 L 437.79599 259.528015 Z"/>
        <path id="A" fill="#000000" fill-opacity="0.5" fill-rule="evenodd" stroke="none" d="M 426 289 C 426 277.402039 416.597992 268 405 268 C 393.402008 268 384 277.402039 384 289 C 384 300.597961 393.402008 310 405 310 C 416.597992 310 426 300.597961 426 289 Z"/>
        <path id="A-" fill="#ffffff" fill-rule="evenodd" stroke="none" d="M 402.868011 277.951996 L 407.179993 277.951996 L 414.712006 298 L 410.540009 298 L 408.888 293.212006 L 401.160004 293.212006 L 399.507996 298 L 395.335999 298 Z M 407.656006 289.73999 L 405.864014 284.727997 L 405.135986 282.291992 L 404.911987 282.291992 L 404.18399 284.727997 L 402.391998 289.73999 Z"/>
    </g>
    <g id="Stick">
        <path id="path5" fill="#000000" fill-opacity="0.75" fill-rule="evenodd" stroke="none" d="M 276.150391 476 C 269.470123 476 266.129425 476.000183 263.625 474.597656 C 261.855042 473.606415 260.393555 472.144989 259.402344 470.375 C 257.999786 467.870575 258 464.529877 258 457.849609 L 258 352.150391 C 258 345.470123 257.999786 342.129425 259.402344 339.625 C 260.393555 337.855011 261.855042 336.393585 263.625 335.402344 C 266.129425 333.999817 269.470123 334 276.150391 334 L 381.849609 334 C 388.529877 334 391.870605 333.999817 394.375 335.402344 C 396.14502 336.393585 397.606384 337.855011 398.597656 339.625 C 400.000183 342.129425 400 345.470123 400 352.150391 L 400 457.849609 C 400 464.529877 400.000183 467.870575 398.597656 470.375 C 397.606384 472.144989 396.14502 473.606415 394.375 474.597656 C 391.870605 476.000183 388.529877 476 381.849609 476 L 276.150391 476 Z M 329 462 C 360.480194 462 386 436.480194 386 405 C 386 373.519806 360.480194 348 329 348 C 297.519806 348 272 373.519806 272 405 C 272 436.480194 297.519806 462 329 462 Z"/>
        <path id="path6" fill="#000000" fill-opacity="0.5" fill-rule="evenodd" stroke="none" d="M 386 405 C 386 373.519775 360.480225 348 329 348 C 297.519775 348 272 373.519775 272 405 C 272 436.480225 297.519775 462 329 462 C 360.480225 462 386 436.480225 386 405 Z"/>
        <path id="path7" fill="#000000" fill-opacity="0.75" fill-rule="evenodd" stroke="none" d="M 48.150391 324 C 41.470127 324 38.129417 324.000183 35.625 322.597656 C 33.855011 321.606415 32.393581 320.144989 31.402344 318.375 C 29.999802 315.870575 30 312.529877 30 305.849609 L 30 200.150391 C 30 193.470123 29.999802 190.129395 31.402344 187.625 C 32.393581 185.85498 33.855015 184.393616 35.625 183.402344 C 38.129417 181.999817 41.470127 182 48.150391 182 L 153.849609 182 C 160.529892 182 163.870575 181.999817 166.375 183.402344 C 168.144989 184.393616 169.606415 185.85498 170.597656 187.625 C 172.000198 190.129395 172 193.470123 172 200.150391 L 172 305.849609 C 172 312.529877 172.000198 315.870575 170.597656 318.375 C 169.606415 320.144989 168.144989 321.606415 166.375 322.597656 C 163.870575 324.000183 160.529892 324 153.849609 324 L 48.150391 324 Z M 101 310 C 132.480194 310 158 284.480194 158 253 C 158 221.519806 132.480194 196 101 196 C 69.519798 196 44 221.519806 44 253 C 44 284.480194 69.519798 310 101 310 Z"/>
        <path id="path8" fill="#000000" fill-opacity="0.5" fill-rule="evenodd" stroke="none" d="M 158 253 C 158 221.519775 132.480225 196 101 196 C 69.519768 196 44 221.519775 44 253 C 44 284.480225 69.519768 310 101 310 C 132.480225 310 158 284.480225 158 253 Z"/>
    </g>
    <g id="Bumper">
        <path id="path9" fill="#000000" fill-opacity="0.75" fill-rule="evenodd" stroke="none" d="M 457.850006 106 C 464.530273 106 467.870422 106 470.374817 107.402527 C 472.144806 108.393799 473.606201 109.855194 474.597473 111.625183 C 476 114.129578 476 117.469727 476 124.149994 L 476 153.850006 C 476 160.530273 476 163.870422 474.597473 166.374817 C 473.606232 168.144806 472.144836 169.606201 470.374847 170.597473 C 467.870422 172 464.530273 172 457.850006 172 L 428.149994 172 C 421.469727 172 418.129578 172 415.625153 170.597473 C 413.855194 169.606232 412.393768 168.144836 411.402557 166.374847 C 410 163.870422 410 160.530273 410 153.850006 L 410 124.149994 C 410 117.469727 410 114.129578 411.402557 111.625183 C 412.393768 109.855164 413.855194 108.393799 415.625153 107.402527 C 418.129578 106 421.469727 106 428.149994 106 Z"/>
        <path id="path10" fill="#ffffff" fill-rule="evenodd" stroke="none" d="M 437.25 153 C 434.213501 153 432.695038 153.000793 431.556641 152.363281 C 430.752106 151.91272 430.08728 151.247894 429.636719 150.443359 C 428.999207 149.304962 429 147.786499 429 144.75 L 429 133.25 C 429 130.213501 428.999207 128.695007 429.636719 127.556641 C 430.08728 126.752106 430.752106 126.08728 431.556641 125.636719 C 432.695038 124.999207 434.213501 125 437.25 125 L 448.75 125 C 451.786499 125 453.304993 124.999207 454.443359 125.636719 C 455.247894 126.08728 455.91272 126.752106 456.363281 127.556641 C 457.000793 128.695007 457 130.213501 457 133.25 L 457 144.75 C 457 147.786499 457.000793 149.304993 456.363281 150.443359 C 455.91272 151.247894 455.247894 151.91272 454.443359 152.363281 C 453.304962 153.000793 451.786499 153 448.75 153 L 437.25 153 Z M 438.833984 146.466797 L 447.166016 146.466797 C 448.380615 146.466797 448.988007 146.465942 449.443359 146.210938 C 449.765167 146.030701 450.030701 145.765167 450.210938 145.443359 C 450.465942 144.988007 450.466797 144.380615 450.466797 143.166016 L 450.466797 134.833984 C 450.466797 133.619385 450.465942 133.011993 450.210938 132.556641 C 450.030701 132.234833 449.765167 131.969299 449.443359 131.789063 C 448.988007 131.534058 448.380615 131.533203 447.166016 131.533203 L 438.833984 131.533203 C 437.619385 131.533203 437.011993 131.534058 436.556641 131.789063 C 436.234833 131.969299 435.969299 132.234833 435.789063 132.556641 C 435.534058 133.011993 435.533203 133.619385 435.533203 134.833984 L 435.533203 143.166016 C 435.533203 144.380615 435.534058 144.988007 435.789063 145.443359 C 435.969299 145.765167 436.234833 146.030701 436.556641 146.210938 C 437.011993 146.465942 437.619385 146.466797 438.833984 146.466797 Z"/>
        <path id="path11" fill="#000000" fill-opacity="0.75" fill-rule="evenodd" stroke="none" d="M 77.849998 106 C 84.530273 106 87.870407 106 90.374832 107.402527 C 92.144821 108.393799 93.606216 109.855194 94.597458 111.625183 C 96 114.129578 96 117.469727 96 124.149994 L 96 153.850006 C 96 160.530273 96 163.870422 94.597458 166.374817 C 93.606216 168.144806 92.144821 169.606201 90.374832 170.597473 C 87.870415 172 84.530273 172 77.850006 172 L 48.150002 172 C 41.469727 172 38.129589 172 35.625168 170.597473 C 33.855179 169.606232 32.393784 168.144836 31.402544 166.374847 C 30 163.870422 30 160.530273 30 153.850006 L 30 124.149994 C 30 117.469727 30 114.129578 31.402544 111.625183 C 32.393784 109.855164 33.855183 108.393799 35.625168 107.402527 C 38.129589 106 41.469727 106 48.150002 106 Z"/>
        <path id="path12" fill="#ffffff" fill-rule="evenodd" stroke="none" d="M 57.25 153 C 54.213516 153 52.695015 153.000793 51.556641 152.363281 C 50.752102 151.91272 50.087284 151.247894 49.636719 150.443359 C 48.999199 149.304962 49 147.786499 49 144.75 L 49 133.25 C 49 130.213501 48.999199 128.695007 49.636719 127.556641 C 50.087284 126.752106 50.752102 126.08728 51.556641 125.636719 C 52.695015 124.999207 54.213516 125 57.25 125 L 68.75 125 C 71.786484 125 73.304985 124.999207 74.443359 125.636719 C 75.247894 126.08728 75.91272 126.752106 76.363281 127.556641 C 77.000801 128.695007 77 130.213501 77 133.25 L 77 144.75 C 77 147.786499 77.000801 149.304993 76.363281 150.443359 C 75.91272 151.247894 75.247894 151.91272 74.443359 152.363281 C 73.304985 153.000793 71.786484 153 68.75 153 L 57.25 153 Z M 58.833984 146.466797 L 67.166016 146.466797 C 68.380615 146.466797 68.988007 146.465942 69.443359 146.210938 C 69.765175 146.030701 70.030708 145.765167 70.210938 145.443359 C 70.465942 144.988007 70.466797 144.380615 70.466797 143.166016 L 70.466797 134.833984 C 70.466797 133.619385 70.465942 133.011993 70.210938 132.556641 C 70.030708 132.234833 69.765175 131.969299 69.443359 131.789063 C 68.988007 131.534058 68.380615 131.533203 67.166016 131.533203 L 58.833984 131.533203 C 57.619389 131.533203 57.01199 131.534058 56.556641 131.789063 C 56.234825 131.969299 55.969288 132.234833 55.789063 132.556641 C 55.534054 133.011993 55.533203 133.619385 55.533203 134.833984 L 55.533203 143.166016 C 55.533203 144.380615 55.534054 144.988007 55.789063 145.443359 C 55.969288 145.765167 56.234825 146.030701 56.556641 146.210938 C 57.01199 146.465942 57.619389 146.466797 58.833984 146.466797 Z"/>
    </g>
    <g id="Trigger">
        <path id="path13" fill="#000000" fill-opacity="0.75" fill-rule="evenodd" stroke="none" d="M 352.150391 172 C 345.470123 172 342.129425 172.000183 339.625 170.597656 C 337.855042 169.606384 336.393555 168.14502 335.402344 166.375 C 333.999786 163.870605 334 160.529877 334 153.849609 L 334 48.150391 C 334 41.470123 333.999786 38.129395 335.402344 35.625 C 336.393555 33.85498 337.855042 32.393616 339.625 31.402344 C 342.129425 29.999817 345.470123 30 352.150391 30 L 381.849609 30 C 388.529877 30 391.870605 29.999817 394.375 31.402344 C 396.144989 32.393616 397.606384 33.85498 398.597656 35.625 C 400.000183 38.129395 400 41.470123 400 48.150391 L 400 153.849609 C 400 160.529877 400.000183 163.870605 398.597656 166.375 C 397.606415 168.14502 396.144989 169.606384 394.375 170.597656 C 391.870575 172.000183 388.529877 172 381.849609 172 L 352.150391 172 Z M 355.171875 152.601563 L 377.666016 152.601563 C 378.290863 152.601563 378.864075 152.458252 379.384766 152.171875 C 379.905487 151.885468 380.36142 151.455566 380.751953 150.882813 C 381.454895 149.607056 381.989044 148.254211 382.353516 146.822266 C 382.718018 145.39032 382.900391 143.918274 382.900391 142.408203 C 382.900391 140.091064 382.463989 137.930511 381.591797 135.925781 C 380.719604 133.921051 379.527649 132.170868 378.017578 130.673828 C 376.507507 129.176788 374.757324 127.997833 372.765625 127.138672 C 370.773895 126.27948 368.619904 125.849609 366.302734 125.849609 C 364.011597 125.849609 361.870605 126.292542 359.878906 127.177734 C 357.887177 128.062958 356.154602 129.248383 354.683594 130.732422 C 353.212585 132.216431 352.048645 133.960114 351.189453 135.964844 C 350.330292 137.969574 349.900391 140.117096 349.900391 142.408203 C 349.900391 143.918274 350.089264 145.38382 350.466797 146.802734 C 350.844299 148.22168 351.397949 149.581024 352.126953 150.882813 C 352.41333 151.455566 352.834778 151.885468 353.394531 152.171875 C 353.954285 152.458252 354.547028 152.601563 355.171875 152.601563 Z M 366.380859 145.611328 C 365.39151 145.63736 364.583832 145.337769 363.958984 144.712891 C 363.334137 144.088043 363.047546 143.293396 363.099609 142.330078 C 363.151672 141.36676 363.516449 140.650269 364.193359 140.181641 L 377.900391 130.849609 L 368.568359 144.556641 C 368.099731 145.233551 367.370209 145.585266 366.380859 145.611328 Z"/>
        <path id="path14" fill="#000000" fill-opacity="0.5" stroke="none" d="M 363.959167 144.712708 C 364.584015 145.337585 365.391113 145.636993 366.380463 145.610962 C 367.369812 145.5849 368.098816 145.233429 368.567444 144.556519 L 377.901184 130.848816 L 364.193481 140.182556 C 363.516571 140.651184 363.152069 141.367157 363.100006 142.330475 C 363.047943 143.293793 363.33432 144.08786 363.959167 144.712708 Z M 355.17218 152.601471 C 354.547333 152.601471 353.955017 152.458282 353.395264 152.171906 C 352.83551 151.885498 352.412415 151.455902 352.126038 150.883148 C 351.397034 149.58136 350.843781 148.221008 350.466278 146.802063 C 350.088745 145.383148 349.899994 143.91864 349.899994 142.408569 C 349.899994 140.117462 350.32959 137.969513 351.188751 135.964783 C 352.047943 133.960052 353.213013 132.215668 354.684021 130.731659 C 356.155029 129.24762 357.886383 128.063019 359.878113 127.177795 C 361.869812 126.292603 364.01123 125.850006 366.302368 125.850006 C 368.619537 125.850006 370.773956 126.279572 372.765686 127.138763 C 374.757385 127.997925 376.50827 129.176025 378.018341 130.673065 C 379.528412 132.170105 380.719513 133.921021 381.591705 135.925751 C 382.463898 137.930481 382.899994 140.091431 382.899994 142.408569 C 382.899994 143.91864 382.717743 145.389648 382.353241 146.821594 C 381.98877 148.25354 381.455017 149.607391 380.752075 150.883148 C 380.361542 151.455902 379.905914 151.885498 379.385193 152.171906 C 378.864502 152.458282 378.291718 152.601471 377.66687 152.601471 Z"/>
        <path id="path15" fill="#000000" fill-opacity="0.75" fill-rule="evenodd" stroke="none" d="M 124.150391 172 C 117.470123 172 114.129417 172.000183 111.625 170.597656 C 109.855011 169.606384 108.393585 168.14502 107.402344 166.375 C 105.999802 163.870605 106 160.529877 106 153.849609 L 106 48.150391 C 106 41.470123 105.999802 38.129395 107.402344 35.625 C 108.393585 33.85498 109.855011 32.393616 111.625 31.402344 C 114.129417 29.999817 117.470123 30 124.150391 30 L 153.849609 30 C 160.529892 30 163.870575 29.999817 166.375 31.402344 C 168.144989 32.393616 169.606415 33.85498 170.597656 35.625 C 172.000198 38.129395 172 41.470123 172 48.150391 L 172 153.849609 C 172 160.529877 172.000198 163.870605 170.597656 166.375 C 169.606415 168.14502 168.144989 169.606384 166.375 170.597656 C 163.870575 172.000183 160.529877 172 153.849609 172 L 124.150391 172 Z M 127.132813 152.601563 L 149.626953 152.601563 C 150.251816 152.601563 150.844528 152.458252 151.404297 152.171875 C 151.96405 151.885468 152.387436 151.455566 152.673828 150.882813 C 153.402817 149.581024 153.956467 148.22168 154.333984 146.802734 C 154.711502 145.38382 154.900391 143.918274 154.900391 142.408203 C 154.900391 140.117096 154.470505 137.969574 153.611328 135.964844 C 152.752167 133.960114 151.586243 132.216431 150.115234 130.732422 C 148.644226 129.248383 146.913589 128.062958 144.921875 127.177734 C 142.930161 126.292542 140.789169 125.849609 138.498047 125.849609 C 136.180893 125.849609 134.026871 126.27948 132.035156 127.138672 C 130.043442 127.997833 128.291306 129.176788 126.78125 130.673828 C 125.271194 132.170868 124.081169 133.921051 123.208984 135.925781 C 122.336792 137.930511 121.900391 140.091064 121.900391 142.408203 C 121.900391 143.918274 122.082771 145.39032 122.447266 146.822266 C 122.81176 148.254211 123.345871 149.607056 124.048828 150.882813 C 124.439362 151.455566 124.893349 151.885468 125.414063 152.171875 C 125.934769 152.458252 126.507965 152.601563 127.132813 152.601563 Z M 138.419922 145.611328 C 137.430573 145.585266 136.701065 145.233551 136.232422 144.556641 L 126.898438 130.849609 L 140.607422 140.181641 C 141.284348 140.650269 141.647156 141.36676 141.699219 142.330078 C 141.751297 143.293396 141.466644 144.088043 140.841797 144.712891 C 140.216934 145.337769 139.409271 145.63736 138.419922 145.611328 Z"/>
        <path id="path16" fill="#000000" fill-opacity="0.5" stroke="none" d="M 140.840836 144.712708 C 140.215973 145.337585 139.408875 145.636993 138.419525 145.610962 C 137.430176 145.5849 136.701187 145.233429 136.232544 144.556519 L 126.898819 130.848816 L 140.606506 140.182556 C 141.283432 140.651184 141.647934 141.367157 141.699997 142.330475 C 141.752075 143.293793 141.465683 144.08786 140.840836 144.712708 Z M 149.627808 152.601471 C 150.25267 152.601471 150.844971 152.458282 151.404739 152.171906 C 151.964493 151.885498 152.387573 151.455902 152.673965 150.883148 C 153.402954 149.58136 153.956207 148.221008 154.333725 146.802063 C 154.711243 145.383148 154.899994 143.91864 154.899994 142.408569 C 154.899994 140.117462 154.470413 137.969513 153.611237 135.964783 C 152.752075 133.960052 151.58699 132.215668 150.115982 130.731659 C 148.644974 129.24762 146.913605 128.063019 144.92189 127.177795 C 142.930176 126.292603 140.788757 125.850006 138.497635 125.850006 C 136.180481 125.850006 134.026031 126.279572 132.034317 127.138763 C 130.042603 127.997925 128.291718 129.176025 126.781654 130.673065 C 125.271599 132.170105 124.080475 133.921021 123.20829 135.925751 C 122.336098 137.930481 121.900002 140.091431 121.900002 142.408569 C 121.900002 143.91864 122.082253 145.389648 122.446747 146.821594 C 122.811241 148.25354 123.344971 149.607391 124.047928 150.883148 C 124.438461 151.455902 124.894081 151.885498 125.414795 152.171906 C 125.935501 152.458282 126.508286 152.601471 127.133133 152.601471 Z"/>
    </g>
    <g id="Logo">
        <filter id="filter1" x="0" y="0" width="506" height="506" filterUnits="userSpaceOnUse" primitiveUnits="userSpaceOnUse" color-interpolation-filters="sRGB">
            <feGaussianBlur stdDeviation="5"/>
            <feOffset dx="-0" dy="0" result="offsetblur"/>
            <feFlood flood-color="#000000" flood-opacity="0.5"/>
            <feComposite in2="offsetblur" operator="in"/>
            <feMerge>
                <feMergeNode/>
                <feMergeNode in="SourceGraphic"/>
            </feMerge>
        </filter>
        <path id="Aperture" fill="#0099ff" stroke="none" filter="url(#filter1)" d="M 239.916199 130.948853 C 245.746124 133.468689 251.90509 134.170715 257.762268 133.310516 L 235.242325 110.250275 L 234.775284 128.170776 C 236.37764 129.229095 238.092712 130.160858 239.916199 130.948853 Z M 232.732986 126.705505 L 233.477234 94.799194 L 220.620789 107.035767 C 222.138336 114.726135 226.374771 121.768219 232.732986 126.705505 Z M 260.02066 132.898224 C 267.811829 131.195038 274.901794 126.698853 279.731262 120.023743 L 247.146637 119.753082 L 260.02066 132.898224 Z M 220.287415 104.999695 L 243.11409 82.65506 L 225.389374 82.596741 C 224.375031 84.150391 223.479706 85.809235 222.718735 87.569214 L 222.434387 88.247803 C 220.20108 93.749451 219.556503 99.504822 220.287415 104.999695 Z M 262.870728 117.833984 L 280.983307 118.160583 C 281.849792 116.771729 282.626953 115.299866 283.296265 113.751373 C 285.834717 107.878174 286.526062 101.670135 285.635956 95.773651 L 262.870728 117.833984 Z M 272.775208 105.678833 L 285.180298 93.352051 C 283.460907 85.817841 279.122894 78.961212 272.729584 74.201202 L 272.775208 105.678833 Z M 226.622131 80.838684 L 258.425232 80.850677 L 246.227081 68.370117 C 238.523956 69.995239 231.490753 74.350677 226.622131 80.838684 Z M 270.634796 90.345581 L 270.936951 72.957916 C 269.421814 71.979156 267.80899 71.111145 266.098602 70.372162 C 260.301727 67.866669 254.178268 67.158264 248.35083 67.996429 L 270.634796 90.345581 Z"/>
        <filter id="filter2" x="0" y="0" width="506" height="506" filterUnits="userSpaceOnUse" primitiveUnits="userSpaceOnUse" color-interpolation-filters="sRGB">
            <feGaussianBlur stdDeviation="5"/>
            <feOffset dx="-0" dy="0" result="offsetblur"/>
            <feFlood flood-color="#000000" flood-opacity="0.5"/>
            <feComposite in2="offsetblur" operator="in"/>
            <feMerge>
                <feMergeNode/>
                <feMergeNode in="SourceGraphic"/>
            </feMerge>
        </filter>
        <path id="Lambda" fill="#0099ff" fill-rule="evenodd" stroke="none" filter="url(#filter2)" d="M 245.712753 85.142761 L 245.712753 89.50528 L 249.30542 89.50528 L 250.780975 94.060272 L 239.810501 111.06131 L 245.199509 111.06131 L 253.026398 99.513428 L 258.158783 112.472717 L 266.242279 109.906525 L 264.959198 105.928925 L 261.23822 107.08371 L 252.513153 85.142761 L 245.712753 85.142761 Z"/>
    </g>
</svg>
