<?xml version="1.0" encoding="UTF-8"?>
<!-- Generated by Pixelmator Pro 3.1.1 -->
<svg width="506" height="506" viewBox="0 0 506 506" xmlns="http://www.w3.org/2000/svg" xmlns:xlink="http://www.w3.org/1999/xlink">
    <g id="Misc">
        <path id="Start" fill="#000000" fill-opacity="0.5" fill-rule="evenodd" stroke="none" d="M 305.850006 182 C 312.530273 182 315.870422 182 318.374817 183.402527 C 320.144806 184.393799 321.606201 185.855194 322.597473 187.625183 C 324 190.129578 324 193.469727 324 200.149994 L 324 229.850006 C 324 236.530273 324 239.870422 322.597473 242.374817 C 321.606232 244.144806 320.144836 245.606201 318.374847 246.597473 C 315.870422 248 312.530273 248 305.850006 248 L 276.149994 248 C 269.469727 248 266.129578 248 263.625153 246.597473 C 261.855194 245.606232 260.393768 244.144836 259.402557 242.374847 C 258 239.870422 258 236.530273 258 229.850006 L 258 200.149994 C 258 193.469727 258 190.129578 259.402557 187.625183 C 260.393768 185.855164 261.855194 184.393799 263.625153 183.402527 C 266.129578 182 269.469727 182 276.149994 182 Z"/>
        <path id="path1" fill="#ffffff" stroke="none" d="M 274.25 227.063995 L 274.25 223.059998 L 307.25 223.059998 L 307.25 227.063995 Z M 274.25 217.428009 L 274.25 213.424011 L 307.25 213.424011 L 307.25 217.428009 Z M 274.25 207.747986 L 274.25 203.700012 L 307.25 203.700012 L 307.25 207.747986 Z"/>
        <path id="Select" fill="#000000" fill-opacity="0.5" fill-rule="evenodd" stroke="none" d="M 229.849991 182 C 236.530273 182 239.870407 182 242.374832 183.402527 C 244.144821 184.393799 245.606216 185.855194 246.597458 187.625183 C 248 190.129578 248 193.469727 248 200.149994 L 248 229.850006 C 248 236.530273 248 239.870422 246.597458 242.374817 C 245.606216 244.144806 244.144821 245.606201 242.374832 246.597473 C 239.870407 248 236.530273 248 229.850006 248 L 200.149994 248 C 193.469727 248 190.129593 248 187.625168 246.597473 C 185.855179 245.606232 184.393784 244.144836 183.402542 242.374847 C 182 239.870422 182 236.530273 182 229.850006 L 182 200.149994 C 182 193.469727 182 190.129578 183.402542 187.625183 C 184.393784 185.855164 185.855179 184.393799 187.625168 183.402527 C 190.129593 182 193.469727 182 200.149994 182 Z"/>
        <path id="path2" fill="#ffffff" stroke="none" d="M 201.334396 229.876251 C 200.438461 229.876251 199.642075 229.540283 198.945251 228.868317 C 198.248413 228.196381 197.899994 227.387543 197.899994 226.441864 L 197.899994 212.704285 L 201.334396 212.704285 L 201.334396 226.441864 L 218.133026 226.441864 L 218.133026 229.876251 Z M 206.560638 224.649994 C 205.639816 224.649994 204.837219 224.320251 204.152832 223.660736 C 203.468445 223.001251 203.126251 222.198639 203.126251 221.25293 L 203.126251 207.403381 L 206.5233 207.403381 L 206.5233 221.25293 L 223.471268 221.25293 L 223.471268 224.649994 Z M 211.78688 219.423767 C 210.841171 219.423767 210.032349 219.087799 209.360413 218.415833 C 208.688461 217.743896 208.352493 216.935059 208.352493 215.98938 L 208.352493 203.334381 C 208.352493 202.438477 208.688461 201.64209 209.360413 200.945251 C 210.032349 200.248413 210.841171 199.899994 211.78688 199.899994 L 227.465607 199.899994 C 228.411316 199.899994 229.220139 200.248413 229.89209 200.945251 C 230.564026 201.64209 230.899994 202.438477 230.899994 203.334381 L 230.899994 215.98938 C 230.899994 216.935059 230.564026 217.743896 229.89209 218.415833 C 229.220139 219.087799 228.411316 219.423767 227.465607 219.423767 Z M 211.78688 215.98938 L 227.465607 215.98938 L 227.465607 205.760864 L 211.78688 205.760864 L 211.78688 215.98938 Z"/>
    </g>
    <g id="DPad">
        <path id="path3" fill="#000000" fill-opacity="0.5" fill-rule="evenodd" stroke="none" d="M 229.850006 334 C 236.530273 334 239.870407 334 242.374832 335.402527 C 244.144821 336.393799 245.606216 337.855164 246.597458 339.625183 C 248 342.129578 248 345.469727 248 352.149994 L 248 457.850006 C 248 464.530273 248 467.870422 246.597458 470.374817 C 245.606216 472.144836 244.144821 473.606201 242.374832 474.597473 C 239.870407 476 236.530273 476 229.850006 476 L 124.150002 476 C 117.469727 476 114.129585 476 111.625168 474.597473 C 109.855179 473.606201 108.393784 472.144836 107.402542 470.374817 C 106 467.870422 106 464.530273 106 457.850006 L 106 352.149994 C 106 345.469727 106 342.129578 107.402542 339.625183 C 108.393784 337.855164 109.855179 336.393799 111.625168 335.402527 C 114.129593 334 117.469727 334 124.150002 334 Z"/>
        <path id="Right" fill="#ffffff" fill-opacity="0.25" fill-rule="evenodd" stroke="none" d="M 234 405 C 234 393.402039 224.597977 384 213 384 C 201.402023 384 192 393.402039 192 405 C 192 416.597961 201.402023 426 213 426 C 224.597977 426 234 416.597961 234 405 Z"/>
        <path id="RightArrow" fill="#ffffff" stroke="none" d="M 212.915985 395.431946 L 223.399994 405.947937 L 212.915985 416.399994 L 210.838364 414.386292 L 217.806396 407.386292 L 202.399994 407.386292 L 202.399994 404.477631 L 217.806396 404.477631 L 210.838364 397.509583 Z"/>
        <path id="Left" fill="#ffffff" fill-opacity="0.25" fill-rule="evenodd" stroke="none" d="M 162 405 C 162 393.402039 152.597977 384 141 384 C 129.402023 384 120 393.402039 120 405 C 120 416.597961 129.402023 426 141 426 C 152.597977 426 162 416.597961 162 405 Z"/>
        <path id="LeftArrow" fill="#ffffff" stroke="none" d="M 140.084015 415.568054 L 129.600006 405.052063 L 140.084015 394.600006 L 142.161636 396.613708 L 135.193604 403.613708 L 150.600006 403.613708 L 150.600006 406.522369 L 135.193604 406.522369 L 142.161636 413.490417 Z"/>
        <path id="Down" fill="#ffffff" fill-opacity="0.25" fill-rule="evenodd" stroke="none" d="M 198 441 C 198 429.402039 188.597977 420 177 420 C 165.402023 420 156 429.402039 156 441 C 156 452.597992 165.402023 462 177 462 C 188.597977 462 198 452.597992 198 441 Z"/>
        <path id="DownArrow" fill="#ffffff" stroke="none" d="M 186.568039 441.915985 L 176.052048 452.399994 L 165.599991 441.915985 L 167.613693 439.838348 L 174.613693 446.806396 L 174.613693 431.399994 L 177.522369 431.399994 L 177.522369 446.806396 L 184.490417 439.838348 Z"/>
        <path id="Up" fill="#ffffff" fill-opacity="0.25" fill-rule="evenodd" stroke="none" d="M 198 369 C 198 357.402039 188.597977 348 177 348 C 165.402023 348 156 357.402039 156 369 C 156 380.597961 165.402023 390 177 390 C 188.597977 390 198 380.597961 198 369 Z"/>
        <path id="UpArrow" fill="#ffffff" stroke="none" d="M 166.431961 369.084015 L 176.947952 358.600006 L 187.400009 369.084015 L 185.386307 371.161621 L 178.386307 364.193604 L 178.386307 379.600006 L 175.477631 379.600006 L 175.477631 364.193604 L 168.509583 371.161621 Z"/>
    </g>
    <g id="ABXY">
        <path id="path4" fill="#000000" fill-opacity="0.5" fill-rule="evenodd" stroke="none" d="M 457.850006 182 C 464.530273 182 467.870422 182 470.374817 183.402527 C 472.144836 184.393799 473.606201 185.855164 474.597473 187.625183 C 476 190.129578 476 193.469727 476 200.149994 L 476 305.850006 C 476 312.530273 476 315.870422 474.597473 318.374817 C 473.606201 320.144836 472.144836 321.606201 470.374817 322.597473 C 467.870422 324 464.530273 324 457.850006 324 L 352.149994 324 C 345.469727 324 342.129578 324 339.625153 322.597473 C 337.855194 321.606201 336.393768 320.144836 335.402557 318.374817 C 334 315.870422 334 312.530273 334 305.850006 L 334 200.149994 C 334 193.469727 334 190.129578 335.402557 187.625183 C 336.393768 185.855164 337.855194 184.393799 339.625153 183.402527 C 342.129578 182 345.469727 182 352.149994 182 Z"/>
        <path id="Y" fill="#ffffff" fill-opacity="0.25" fill-rule="evenodd" stroke="none" d="M 426 218 C 426 206.402008 416.597992 197 405 197 C 393.402008 197 384 206.402008 384 218 C 384 229.597992 393.402008 239 405 239 C 416.597992 239 426 229.597992 426 218 Z"/>
        <path id="Y-" fill="#ffffff" fill-rule="evenodd" stroke="none" d="M 402.692017 228.85199 L 406.136017 228.85199 L 406.136017 221.403992 L 412.296021 209.644012 L 409.02002 209.644012 L 404.623993 218.268005 L 404.540009 218.268005 L 400.144012 209.644012 L 396.476013 209.644012 L 402.692017 221.403992 Z"/>
        <path id="X" fill="#ffffff" fill-opacity="0.25" fill-rule="evenodd" stroke="none" d="M 390 253 C 390 241.402008 380.597992 232 369 232 C 357.402008 232 348 241.402008 348 253 C 348 264.597961 357.402008 274 369 274 C 380.597992 274 390 264.597961 390 253 Z"/>
        <path id="X-" fill="#ffffff" fill-rule="evenodd" stroke="none" d="M 360.811981 262.85199 L 364.283997 262.85199 L 368.820007 255.375992 L 368.903992 255.375992 L 373.411987 262.85199 L 377.247986 262.85199 L 371.311981 252.996002 L 376.884003 243.644012 L 373.384003 243.644012 L 369.436005 250.699997 L 369.324005 250.699997 L 365.040009 243.644012 L 361.20401 243.644012 L 366.888 253.024002 Z"/>
        <path id="B" fill="#ffffff" fill-opacity="0.25" fill-rule="evenodd" stroke="none" d="M 462 253 C 462 241.402008 452.597992 232 441 232 C 429.402008 232 420 241.402008 420 253 C 420 264.597961 429.402008 274 441 274 C 452.597992 274 462 264.597961 462 253 Z"/>
        <path id="B-" fill="#ffffff" fill-rule="evenodd" stroke="none" d="M 434.015991 242.951996 L 441.855988 242.951996 C 442.714661 242.951996 443.517334 243.087341 444.264008 243.358002 C 445.010681 243.628662 445.659332 244.001984 446.209991 244.477997 C 446.760681 244.95401 447.194672 245.509338 447.511993 246.144012 C 447.829346 246.778656 447.988007 247.459991 447.988007 248.187988 C 447.988007 249.252014 447.731354 250.143326 447.218018 250.862 C 446.704681 251.580673 446.065338 252.126663 445.300018 252.5 L 445.300018 252.723999 C 446.326691 253.097336 447.152679 253.680664 447.778015 254.473999 C 448.403351 255.267334 448.716003 256.252014 448.716003 257.427979 C 448.716003 258.286682 448.543335 259.056671 448.197998 259.738007 C 447.852661 260.419342 447.381348 261.002686 446.783997 261.488007 C 446.186676 261.973328 445.491333 262.34668 444.697998 262.608002 C 443.904663 262.869324 443.05069 263 442.136017 263 L 434.015991 263 Z M 441.575989 251.128006 C 442.453339 251.128006 443.130005 250.889999 443.606018 250.414001 C 444.082001 249.937988 444.320007 249.373352 444.320007 248.720001 C 444.320007 248.06665 444.08667 247.506683 443.619995 247.040009 C 443.15332 246.573334 442.509338 246.339996 441.687988 246.339996 L 437.79599 246.339996 L 437.79599 251.128006 Z M 441.996002 259.528015 C 442.947998 259.528015 443.675995 259.290009 444.179993 258.813995 C 444.684021 258.338013 444.936005 257.726685 444.936005 256.97998 C 444.936005 256.233337 444.679352 255.612671 444.166016 255.117996 C 443.652679 254.623337 442.891998 254.376007 441.884003 254.376007 L 437.79599 254.376007 L 437.79599 259.528015 Z"/>
        <path id="A" fill="#ffffff" fill-opacity="0.25" fill-rule="evenodd" stroke="none" d="M 426 289 C 426 277.402039 416.597992 268 405 268 C 393.402008 268 384 277.402039 384 289 C 384 300.597961 393.402008 310 405 310 C 416.597992 310 426 300.597961 426 289 Z"/>
        <path id="A-" fill="#ffffff" fill-rule="evenodd" stroke="none" d="M 401.868011 277.951996 L 406.179993 277.951996 L 413.712006 298 L 409.540009 298 L 407.888 293.212006 L 400.160004 293.212006 L 398.507996 298 L 394.335999 298 Z M 406.656006 289.73999 L 404.864014 284.727997 L 404.135986 282.291992 L 403.911987 282.291992 L 403.18399 284.727997 L 401.391998 289.73999 Z"/>
    </g>
    <g id="Stick">
        <path id="path5" fill="#000000" fill-opacity="0.5" fill-rule="evenodd" stroke="none" d="M 381.850006 334 C 388.530273 334 391.870422 334 394.374817 335.402527 C 396.144836 336.393799 397.606201 337.855164 398.597473 339.625183 C 400 342.129578 400 345.469727 400 352.149994 L 400 457.850006 C 400 464.530273 400 467.870422 398.597473 470.374817 C 397.606201 472.144836 396.144836 473.606201 394.374817 474.597473 C 391.870422 476 388.530273 476 381.850006 476 L 276.149994 476 C 269.469727 476 266.129578 476 263.625153 474.597473 C 261.855194 473.606201 260.393768 472.144836 259.402557 470.374817 C 258 467.870422 258 464.530273 258 457.850006 L 258 352.149994 C 258 345.469727 258 342.129578 259.402557 339.625183 C 260.393768 337.855164 261.855194 336.393799 263.625153 335.402527 C 266.129578 334 269.469727 334 276.149994 334 Z"/>
        <path id="path6" fill="#000000" fill-opacity="0.5" fill-rule="evenodd" stroke="none" d="M 153.849991 182 C 160.530273 182 163.870407 182 166.374832 183.402527 C 168.144821 184.393799 169.606216 185.855164 170.597458 187.625183 C 172 190.129578 172 193.469727 172 200.149994 L 172 305.850006 C 172 312.530273 172 315.870422 170.597458 318.374817 C 169.606216 320.144836 168.144821 321.606201 166.374832 322.597473 C 163.870407 324 160.530273 324 153.849991 324 L 48.149998 324 C 41.469727 324 38.129589 324 35.625168 322.597473 C 33.855179 321.606201 32.393784 320.144836 31.402544 318.374817 C 30 315.870422 30 312.530273 30 305.850006 L 30 200.149994 C 30 193.469727 30 190.129578 31.402544 187.625183 C 32.393784 185.855164 33.855183 184.393799 35.625168 183.402527 C 38.129589 182 41.469727 182 48.149998 182 Z"/>
    </g>
    <g id="Bumper">
        <path id="path7" fill="#000000" fill-opacity="0.5" fill-rule="evenodd" stroke="none" d="M 457.850006 106 C 464.530273 106 467.870422 106 470.374817 107.402527 C 472.144806 108.393799 473.606201 109.855194 474.597473 111.625183 C 476 114.129578 476 117.469727 476 124.149994 L 476 153.850006 C 476 160.530273 476 163.870422 474.597473 166.374817 C 473.606232 168.144806 472.144836 169.606201 470.374847 170.597473 C 467.870422 172 464.530273 172 457.850006 172 L 428.149994 172 C 421.469727 172 418.129578 172 415.625153 170.597473 C 413.855194 169.606232 412.393768 168.144836 411.402557 166.374847 C 410 163.870422 410 160.530273 410 153.850006 L 410 124.149994 C 410 117.469727 410 114.129578 411.402557 111.625183 C 412.393768 109.855164 413.855194 108.393799 415.625153 107.402527 C 418.129578 106 421.469727 106 428.149994 106 Z"/>
        <path id="path8" fill="#ffffff" fill-rule="evenodd" stroke="none" d="M 436.25 154 C 433.213501 154 431.695038 154.000793 430.556641 153.363281 C 429.752106 152.91272 429.08728 152.247894 428.636719 151.443359 C 427.999207 150.304962 428 148.786499 428 145.75 L 428 132.25 C 428 129.213501 427.999207 127.695007 428.636719 126.556641 C 429.08728 125.752106 429.752106 125.08728 430.556641 124.636719 C 431.695038 123.999207 433.213501 124 436.25 124 L 449.75 124 C 452.786499 124 454.304993 123.999207 455.443359 124.636719 C 456.247894 125.08728 456.91272 125.752106 457.363281 126.556641 C 458.000793 127.695007 458 129.213501 458 132.25 L 458 145.75 C 458 148.786499 458.000793 150.304993 457.363281 151.443359 C 456.91272 152.247894 456.247894 152.91272 455.443359 153.363281 C 454.304962 154.000793 452.786499 154 449.75 154 L 436.25 154 Z M 438.300781 147 L 447.699219 147 C 448.913788 147 449.52121 146.999146 449.976563 146.744141 C 450.298401 146.563904 450.563904 146.298401 450.744141 145.976563 C 450.999146 145.52121 451 144.913788 451 143.699219 L 451 134.300781 C 451 133.086212 450.999146 132.47879 450.744141 132.023438 C 450.563904 131.701599 450.298401 131.436096 449.976563 131.255859 C 449.52121 131.000854 448.913788 131 447.699219 131 L 438.300781 131 C 437.086212 131 436.47879 131.000854 436.023438 131.255859 C 435.701599 131.436096 435.436096 131.701599 435.255859 132.023438 C 435.000854 132.47879 435 133.086212 435 134.300781 L 435 143.699219 C 435 144.913788 435.000854 145.52121 435.255859 145.976563 C 435.436096 146.298401 435.701599 146.563904 436.023438 146.744141 C 436.47879 146.999146 437.086212 147 438.300781 147 Z"/>
        <path id="path9" fill="#000000" fill-opacity="0.5" fill-rule="evenodd" stroke="none" d="M 77.849998 106 C 84.530273 106 87.870407 106 90.374832 107.402527 C 92.144821 108.393799 93.606216 109.855194 94.597458 111.625183 C 96 114.129578 96 117.469727 96 124.149994 L 96 153.850006 C 96 160.530273 96 163.870422 94.597458 166.374817 C 93.606216 168.144806 92.144821 169.606201 90.374832 170.597473 C 87.870415 172 84.530273 172 77.850006 172 L 48.150002 172 C 41.469727 172 38.129589 172 35.625168 170.597473 C 33.855179 169.606232 32.393784 168.144836 31.402544 166.374847 C 30 163.870422 30 160.530273 30 153.850006 L 30 124.149994 C 30 117.469727 30 114.129578 31.402544 111.625183 C 32.393784 109.855164 33.855183 108.393799 35.625168 107.402527 C 38.129589 106 41.469727 106 48.150002 106 Z"/>
        <path id="path10" fill="#ffffff" fill-rule="evenodd" stroke="none" d="M 56.25 154 C 53.213516 154 51.695015 154.000793 50.556641 153.363281 C 49.752102 152.91272 49.087284 152.247894 48.636719 151.443359 C 47.999199 150.304962 48 148.786499 48 145.75 L 48 132.25 C 48 129.213501 47.999199 127.695007 48.636719 126.556641 C 49.087284 125.752106 49.752102 125.08728 50.556641 124.636719 C 51.695015 123.999207 53.213516 124 56.25 124 L 69.75 124 C 72.786484 124 74.304985 123.999207 75.443359 124.636719 C 76.247894 125.08728 76.91272 125.752106 77.363281 126.556641 C 78.000801 127.695007 78 129.213501 78 132.25 L 78 145.75 C 78 148.786499 78.000801 150.304993 77.363281 151.443359 C 76.91272 152.247894 76.247894 152.91272 75.443359 153.363281 C 74.304985 154.000793 72.786484 154 69.75 154 L 56.25 154 Z M 58.300781 147 L 67.699219 147 C 68.913818 147 69.521217 146.999146 69.976563 146.744141 C 70.298378 146.563904 70.563911 146.298401 70.744141 145.976563 C 70.999146 145.52121 71 144.913788 71 143.699219 L 71 134.300781 C 71 133.086212 70.999146 132.47879 70.744141 132.023438 C 70.563911 131.701599 70.298378 131.436096 69.976563 131.255859 C 69.521217 131.000854 68.913818 131 67.699219 131 L 58.300781 131 C 57.086185 131 56.478786 131.000854 56.023438 131.255859 C 55.701622 131.436096 55.436085 131.701599 55.255859 132.023438 C 55.000851 132.47879 55 133.086212 55 134.300781 L 55 143.699219 C 55 144.913788 55.000851 145.52121 55.255859 145.976563 C 55.436085 146.298401 55.701622 146.563904 56.023438 146.744141 C 56.478786 146.999146 57.086185 147 58.300781 147 Z"/>
    </g>
    <g id="Trigger">
        <path id="path11" fill="#000000" fill-opacity="0.5" fill-rule="evenodd" stroke="none" d="M 381.850006 30 C 388.530273 30 391.870422 30 394.374817 31.402527 C 396.144806 32.393799 397.606201 33.855164 398.597473 35.625183 C 400 38.129578 400 41.469727 400 48.149994 L 400 153.850006 C 400 160.530273 400 163.870422 398.597473 166.374817 C 397.606232 168.144836 396.144836 169.606201 394.374847 170.597473 C 391.870422 172 388.530273 172 381.850006 172 L 352.149994 172 C 345.469727 172 342.129578 172 339.625153 170.597473 C 337.855194 169.606201 336.393768 168.144836 335.402557 166.374817 C 334 163.870422 334 160.530273 334 153.850006 L 334 48.149994 C 334 41.469727 334 38.129578 335.402557 35.625183 C 336.393768 33.855164 337.855194 32.393799 339.625153 31.402527 C 342.129578 30 345.469727 30 352.149994 30 Z"/>
        <path id="path12" fill="#7f7f7f" stroke="none" d="M 363.959167 144.712708 C 364.584015 145.337585 365.391113 145.636993 366.380463 145.610962 C 367.369812 145.5849 368.098816 145.233429 368.567444 144.556519 L 377.901184 130.848816 L 364.193481 140.182556 C 363.516571 140.651184 363.152069 141.367157 363.100006 142.330475 C 363.047943 143.293793 363.33432 144.08786 363.959167 144.712708 Z M 355.17218 152.601471 C 354.547333 152.601471 353.955017 152.458282 353.395264 152.171906 C 352.83551 151.885498 352.412415 151.455902 352.126038 150.883148 C 351.397034 149.58136 350.843781 148.221008 350.466278 146.802063 C 350.088745 145.383148 349.899994 143.91864 349.899994 142.408569 C 349.899994 140.117462 350.32959 137.969513 351.188751 135.964783 C 352.047943 133.960052 353.213013 132.215668 354.684021 130.731659 C 356.155029 129.24762 357.886383 128.063019 359.878113 127.177795 C 361.869812 126.292603 364.01123 125.850006 366.302368 125.850006 C 368.619537 125.850006 370.773956 126.279572 372.765686 127.138763 C 374.757385 127.997925 376.50827 129.176025 378.018341 130.673065 C 379.528412 132.170105 380.719513 133.921021 381.591705 135.925751 C 382.463898 137.930481 382.899994 140.091431 382.899994 142.408569 C 382.899994 143.91864 382.717743 145.389648 382.353241 146.821594 C 381.98877 148.25354 381.455017 149.607391 380.752075 150.883148 C 380.361542 151.455902 379.905914 151.885498 379.385193 152.171906 C 378.864502 152.458282 378.291718 152.601471 377.66687 152.601471 Z"/>
        <path id="path13" fill="#000000" fill-opacity="0.5" fill-rule="evenodd" stroke="none" d="M 153.849991 30 C 160.530273 30 163.870407 30 166.374832 31.402527 C 168.144821 32.393799 169.606216 33.855164 170.597458 35.625183 C 172 38.129578 172 41.469727 172 48.149994 L 172 153.850006 C 172 160.530273 172 163.870422 170.597458 166.374817 C 169.606216 168.144836 168.144821 169.606201 166.374832 170.597473 C 163.870407 172 160.530273 172 153.850006 172 L 124.150002 172 C 117.469727 172 114.129585 172 111.625168 170.597473 C 109.855179 169.606201 108.393784 168.144836 107.402542 166.374817 C 106 163.870422 106 160.530273 106 153.850006 L 106 48.149994 C 106 41.469727 106 38.129578 107.402542 35.625183 C 108.393784 33.855164 109.855179 32.393799 111.625168 31.402527 C 114.129585 30 117.469727 30 124.150002 30 Z"/>
        <path id="path14" fill="#7f7f7f" stroke="none" d="M 135.959167 144.712708 C 136.58403 145.337585 137.391129 145.636993 138.380478 145.610962 C 139.369827 145.5849 140.098816 145.233429 140.567459 144.556519 L 149.901184 130.848816 L 136.193497 140.182556 C 135.516571 140.651184 135.152069 141.367157 135.100006 142.330475 C 135.047928 143.293793 135.33432 144.08786 135.959167 144.712708 Z M 127.172188 152.601471 C 126.54734 152.601471 125.955032 152.458282 125.395264 152.171906 C 124.835503 151.885498 124.41243 151.455902 124.126038 150.883148 C 123.397041 149.58136 122.843788 148.221008 122.46627 146.802063 C 122.08876 145.383148 121.900002 143.91864 121.900002 142.408569 C 121.900002 140.117462 122.329582 137.969513 123.188759 135.964783 C 124.047928 133.960052 125.21302 132.215668 126.684021 130.731659 C 128.155029 129.24762 129.886383 128.063019 131.878113 127.177795 C 133.869827 126.292603 136.011246 125.850006 138.302368 125.850006 C 140.619522 125.850006 142.773956 126.279572 144.765686 127.138763 C 146.757401 127.997925 148.508286 129.176025 150.018341 130.673065 C 151.528397 132.170105 152.719528 133.921021 153.591721 135.925751 C 154.463898 137.930481 154.899994 140.091431 154.899994 142.408569 C 154.899994 143.91864 154.717758 145.389648 154.353256 146.821594 C 153.988754 148.25354 153.455032 149.607391 152.752075 150.883148 C 152.361542 151.455902 151.905914 151.885498 151.385208 152.171906 C 150.864502 152.458282 150.291718 152.601471 149.66687 152.601471 Z"/>
    </g>
    <g id="Logo">
        <path id="Aperture" fill="#0099ff" stroke="none" d="M 239.916199 130.948853 C 245.746124 133.468689 251.90509 134.170715 257.762268 133.310516 L 235.242325 110.250275 L 234.775284 128.170776 C 236.37764 129.229095 238.092712 130.160858 239.916199 130.948853 Z M 232.732986 126.705505 L 233.477234 94.799194 L 220.620789 107.035767 C 222.138336 114.726135 226.374771 121.768219 232.732986 126.705505 Z M 260.02066 132.898224 C 267.811829 131.195038 274.901794 126.698853 279.731262 120.023743 L 247.146637 119.753082 L 260.02066 132.898224 Z M 220.287415 104.999695 L 243.11409 82.65506 L 225.389374 82.596741 C 224.375031 84.150391 223.479706 85.809235 222.718735 87.569214 L 222.434387 88.247803 C 220.20108 93.749451 219.556503 99.504822 220.287415 104.999695 Z M 262.870728 117.833984 L 280.983307 118.160583 C 281.849792 116.771729 282.626953 115.299866 283.296265 113.751373 C 285.834717 107.878174 286.526062 101.670135 285.635956 95.773651 L 262.870728 117.833984 Z M 272.775208 105.678833 L 285.180298 93.352051 C 283.460907 85.817841 279.122894 78.961212 272.729584 74.201202 L 272.775208 105.678833 Z M 226.622131 80.838684 L 258.425232 80.850677 L 246.227081 68.370117 C 238.523956 69.995239 231.490753 74.350677 226.622131 80.838684 Z M 270.634796 90.345581 L 270.936951 72.957916 C 269.421814 71.979156 267.80899 71.111145 266.098602 70.372162 C 260.301727 67.866669 254.178268 67.158264 248.35083 67.996429 L 270.634796 90.345581 Z"/>
        <path id="Lambda" fill="#0099ff" fill-rule="evenodd" stroke="none" d="M 245.712753 85.142761 L 245.712753 89.50528 L 249.30542 89.50528 L 250.780975 94.060272 L 239.810501 111.06131 L 245.199509 111.06131 L 253.026398 99.513428 L 258.158783 112.472717 L 266.242279 109.906525 L 264.959198 105.928925 L 261.23822 107.08371 L 252.513153 85.142761 L 245.712753 85.142761 Z"/>
    </g>
</svg>
