<?xml version="1.0" encoding="UTF-8"?>
<!-- Generated by Pixelmator Pro 3.1.1 -->
<svg width="66" height="66" viewBox="0 0 66 66" xmlns="http://www.w3.org/2000/svg" xmlns:xlink="http://www.w3.org/1999/xlink">
    <path id="Bumper" fill="#ffffff" fill-rule="evenodd" stroke="none" d="M 47.849998 0 C 54.530273 0 57.870411 0 60.374832 1.402542 C 62.144817 2.393784 63.606216 3.855183 64.597458 5.625168 C 66 8.129589 66 11.469727 66 18.150002 L 66 47.849998 C 66 54.530273 66 57.870411 64.597458 60.374832 C 63.60622 62.144817 62.144821 63.606216 60.374836 64.597458 C 57.870415 66 54.530277 66 47.850002 66 L 18.15 66 C 11.469726 66 8.129588 66 5.625166 64.597458 C 3.855181 63.60622 2.393783 62.144821 1.402544 60.374836 C -0 57.870415 -0 54.530277 -0 47.850002 L 0 18.150002 C 0 11.469727 0 8.129589 1.402544 5.625168 C 2.393783 3.855179 3.855181 2.393784 5.625166 1.402542 C 8.129589 0 11.469726 0 18.15 0 Z"/>
    <path id="Icon" fill="#0099ff" fill-rule="evenodd" stroke="none" d="M 26.25 48 C 23.213516 48 21.695011 48.000801 20.556641 47.363281 C 19.752102 46.91272 19.087282 46.247898 18.636719 45.443359 C 17.999199 44.304985 18 42.786484 18 39.75 L 18 26.25 C 18 23.213516 17.999199 21.695015 18.636719 20.556641 C 19.087282 19.752106 19.752102 19.08728 20.556641 18.636719 C 21.695011 17.999199 23.213516 18 26.25 18 L 39.75 18 C 42.786484 18 44.304985 17.999199 45.443359 18.636719 C 46.247894 19.08728 46.91272 19.752106 47.363281 20.556641 C 48.000801 21.695015 48 23.213516 48 26.25 L 48 39.75 C 48 42.786484 48.000801 44.304989 47.363281 45.443359 C 46.91272 46.247898 46.247894 46.91272 45.443359 47.363281 C 44.304985 48.000801 42.786484 48 39.75 48 L 26.25 48 Z M 28.300781 41 L 37.699219 41 C 38.913815 41 39.521214 40.999149 39.976563 40.744141 C 40.298378 40.563915 40.563915 40.298378 40.744141 39.976563 C 40.999149 39.521214 41 38.913811 41 37.699219 L 41 28.300781 C 41 27.086185 40.999149 26.478786 40.744141 26.023438 C 40.563915 25.701622 40.298378 25.436085 39.976563 25.255859 C 39.521214 25.000851 38.913815 25 37.699219 25 L 28.300781 25 C 27.086189 25 26.478786 25.000851 26.023438 25.255859 C 25.70162 25.436085 25.436085 25.701622 25.255859 26.023438 C 25.000851 26.478786 25 27.086185 25 28.300781 L 25 37.699219 C 25 38.913811 25.000851 39.521214 25.255859 39.976563 C 25.436085 40.298378 25.701622 40.563915 26.023438 40.744141 C 26.478788 40.999149 27.086189 41 28.300781 41 Z"/>
</svg>
