<?xml version="1.0" encoding="UTF-8"?>
<!-- Generated by Pixelmator Pro 3.1.1 -->
<svg width="66" height="66" viewBox="0 0 66 66" xmlns="http://www.w3.org/2000/svg" xmlns:xlink="http://www.w3.org/1999/xlink">
    <path id="Bumper" fill="#ffffff" fill-rule="evenodd" stroke="none" d="M 47.849998 0 C 54.530273 0 57.870411 0 60.374832 1.402542 C 62.144817 2.393784 63.606216 3.855183 64.597458 5.625168 C 66 8.129589 66 11.469727 66 18.150002 L 66 47.849998 C 66 54.530273 66 57.870411 64.597458 60.374832 C 63.60622 62.144817 62.144821 63.606216 60.374836 64.597458 C 57.870415 66 54.530277 66 47.850002 66 L 18.15 66 C 11.469726 66 8.129588 66 5.625166 64.597458 C 3.855181 63.60622 2.393783 62.144821 1.402544 60.374836 C -0 57.870415 -0 54.530277 -0 47.850002 L 0 18.150002 C 0 11.469727 0 8.129589 1.402544 5.625168 C 2.393783 3.855179 3.855181 2.393784 5.625166 1.402542 C 8.129589 0 11.469726 0 18.15 0 Z"/>
    <path id="Icon" fill="#0099ff" fill-rule="evenodd" stroke="none" d="M 27.25 47 C 24.213516 47 22.695011 47.000801 21.556641 46.363281 C 20.752102 45.91272 20.087282 45.247898 19.636719 44.443359 C 18.999199 43.304985 19 41.786484 19 38.75 L 19 27.25 C 19 24.213516 18.999199 22.695015 19.636719 21.556641 C 20.087282 20.752106 20.752102 20.08728 21.556641 19.636719 C 22.695011 18.999199 24.213516 19 27.25 19 L 38.75 19 C 41.786484 19 43.304985 18.999199 44.443359 19.636719 C 45.247894 20.08728 45.91272 20.752106 46.363281 21.556641 C 47.000801 22.695015 47 24.213516 47 27.25 L 47 38.75 C 47 41.786484 47.000801 43.304989 46.363281 44.443359 C 45.91272 45.247898 45.247894 45.91272 44.443359 46.363281 C 43.304985 47.000801 41.786484 47 38.75 47 L 27.25 47 Z M 28.833984 40.466797 L 37.166016 40.466797 C 38.380611 40.466797 38.98801 40.465946 39.443359 40.210938 C 39.765175 40.030712 40.030712 39.765175 40.210938 39.443359 C 40.465946 38.98801 40.466797 38.380608 40.466797 37.166016 L 40.466797 28.833984 C 40.466797 27.619389 40.465946 27.01199 40.210938 26.556641 C 40.030712 26.234825 39.765175 25.969288 39.443359 25.789063 C 38.98801 25.534054 38.380608 25.533203 37.166016 25.533203 L 28.833984 25.533203 C 27.61939 25.533203 27.01199 25.534054 26.556641 25.789063 C 26.234825 25.969288 25.969288 26.234825 25.789063 26.556641 C 25.534054 27.01199 25.533203 27.619389 25.533203 28.833984 L 25.533203 37.166016 C 25.533203 38.380608 25.534054 38.98801 25.789063 39.443359 C 25.969288 39.765175 26.234825 40.030712 26.556641 40.210938 C 27.01199 40.465946 27.61939 40.466797 28.833984 40.466797 Z"/>
</svg>
