<?xml version="1.0" encoding="UTF-8"?>
<!-- Generated by Pixelmator Pro 3.1.1 -->
<svg width="66" height="66" viewBox="0 0 66 66" xmlns="http://www.w3.org/2000/svg" xmlns:xlink="http://www.w3.org/1999/xlink">
    <path id="Bumper" fill="#ffffff" fill-rule="evenodd" stroke="none" d="M 39.599998 0 C 49.316761 0 54.17514 0 57.81794 2.040062 C 60.392464 3.481865 62.518135 5.607536 63.959934 8.18206 C 66 11.824856 66 16.683235 66 26.400002 L 66 39.599998 C 66 49.316761 66 54.17514 63.959934 57.81794 C 62.518131 60.392464 60.392464 62.518135 57.81794 63.959934 C 54.175144 66 49.316761 66 39.599998 66 L 26.4 66 C 16.683237 66 11.824856 66 8.182059 63.959934 C 5.607535 62.518131 3.481866 60.392464 2.040063 57.81794 C -1e-06 54.175144 -1e-06 49.316761 -1e-06 39.599998 L 0 26.400002 C 0 16.683235 0 11.824856 2.040064 8.18206 C 3.481867 5.607536 5.607536 3.481865 8.18206 2.040062 C 11.824857 0 16.683237 0 26.4 0 Z"/>
    <path id="Icon" fill="#047aff" fill-rule="evenodd" stroke="none" d="M 30.550781 47 C 26.299702 47 24.1738 46.99995 22.580078 46.107422 C 21.453726 45.476631 20.523367 44.546276 19.892578 43.419922 C 19.00005 41.826202 19 39.700298 19 35.449219 L 19 30.550781 C 19 26.299702 19.00005 24.173801 19.892578 22.580078 C 20.523367 21.453724 21.453726 20.523365 22.580078 19.892578 C 24.1738 19.00005 26.299702 19 30.550781 19 L 35.449219 19 C 39.700298 19 41.826199 19.00005 43.419922 19.892578 C 44.546276 20.523365 45.476631 21.453724 46.107422 22.580078 C 46.999947 24.173801 47 26.299702 47 30.550781 L 47 35.449219 C 47 39.700298 46.99995 41.826202 46.107422 43.419922 C 45.476635 44.546272 44.546276 45.476631 43.419922 46.107422 C 41.826195 46.99995 39.700298 47 35.449219 47 L 30.550781 47 Z M 30.482422 40.466797 L 35.517578 40.466797 C 37.33947 40.466797 38.248615 40.466496 38.931641 40.083984 C 39.414364 39.813644 39.813644 39.414364 40.083984 38.931641 C 40.466496 38.248615 40.466797 37.33947 40.466797 35.517578 L 40.466797 30.482422 C 40.466797 28.66053 40.466496 27.751381 40.083984 27.068359 C 39.813644 26.585636 39.414364 26.186356 38.931641 25.916016 C 38.248619 25.533504 37.33947 25.533203 35.517578 25.533203 L 30.482422 25.533203 C 28.66053 25.533203 27.751383 25.533504 27.068359 25.916016 C 26.585634 26.186356 26.186354 26.585636 25.916016 27.068359 C 25.533503 27.751381 25.533203 28.66053 25.533203 30.482422 L 25.533203 35.517578 C 25.533203 37.33947 25.533503 38.248619 25.916016 38.931641 C 26.186354 39.414364 26.585636 39.813644 27.068359 40.083984 C 27.751385 40.466499 28.66053 40.466797 30.482422 40.466797 Z"/>
</svg>
