<?xml version="1.0" encoding="UTF-8"?>
<!-- Generated by Pixelmator Pro 3.1.1 -->
<svg width="506" height="506" viewBox="0 0 506 506" xmlns="http://www.w3.org/2000/svg" xmlns:xlink="http://www.w3.org/1999/xlink">
    <g id="Logo">
        <filter id="filter1" x="0" y="0" width="506" height="506" filterUnits="userSpaceOnUse" primitiveUnits="userSpaceOnUse" color-interpolation-filters="sRGB">
            <feGaussianBlur stdDeviation="5"/>
            <feOffset dx="-0" dy="0" result="offsetblur"/>
            <feFlood flood-color="#000000" flood-opacity="0.5"/>
            <feComposite in2="offsetblur" operator="in"/>
            <feMerge>
                <feMergeNode/>
                <feMergeNode in="SourceGraphic"/>
            </feMerge>
        </filter>
        <path id="Aperture" fill="#0099ff" stroke="none" filter="url(#filter1)" d="M 239.916199 130.948853 C 245.746124 133.468689 251.90509 134.170715 257.762268 133.310516 L 235.242325 110.250275 L 234.775284 128.170776 C 236.37764 129.229095 238.092712 130.160858 239.916199 130.948853 Z M 232.732986 126.705505 L 233.477234 94.799194 L 220.620789 107.035767 C 222.138336 114.726135 226.374771 121.768219 232.732986 126.705505 Z M 260.02066 132.898224 C 267.811829 131.195038 274.901794 126.698853 279.731262 120.023743 L 247.146637 119.753082 L 260.02066 132.898224 Z M 220.287415 104.999695 L 243.11409 82.65506 L 225.389374 82.596741 C 224.375031 84.150391 223.479706 85.809235 222.718735 87.569214 L 222.434387 88.247803 C 220.20108 93.749451 219.556503 99.504822 220.287415 104.999695 Z M 262.870728 117.833984 L 280.983307 118.160583 C 281.849792 116.771729 282.626953 115.299866 283.296265 113.751373 C 285.834717 107.878174 286.526062 101.670135 285.635956 95.773651 L 262.870728 117.833984 Z M 272.775208 105.678833 L 285.180298 93.352051 C 283.460907 85.817841 279.122894 78.961212 272.729584 74.201202 L 272.775208 105.678833 Z M 226.622131 80.838684 L 258.425232 80.850677 L 246.227081 68.370117 C 238.523956 69.995239 231.490753 74.350677 226.622131 80.838684 Z M 270.634796 90.345581 L 270.936951 72.957916 C 269.421814 71.979156 267.80899 71.111145 266.098602 70.372162 C 260.301727 67.866669 254.178268 67.158264 248.35083 67.996429 L 270.634796 90.345581 Z"/>
        <filter id="filter2" x="0" y="0" width="506" height="506" filterUnits="userSpaceOnUse" primitiveUnits="userSpaceOnUse" color-interpolation-filters="sRGB">
            <feGaussianBlur stdDeviation="5"/>
            <feOffset dx="-0" dy="0" result="offsetblur"/>
            <feFlood flood-color="#000000" flood-opacity="0.5"/>
            <feComposite in2="offsetblur" operator="in"/>
            <feMerge>
                <feMergeNode/>
                <feMergeNode in="SourceGraphic"/>
            </feMerge>
        </filter>
        <path id="Lambda" fill="#0099ff" fill-rule="evenodd" stroke="none" filter="url(#filter2)" d="M 245.712753 85.142761 L 245.712753 89.50528 L 249.30542 89.50528 L 250.780975 94.060272 L 239.810501 111.06131 L 245.199509 111.06131 L 253.026398 99.513428 L 258.158783 112.472717 L 266.242279 109.906525 L 264.959198 105.928925 L 261.23822 107.08371 L 252.513153 85.142761 L 245.712753 85.142761 Z"/>
    </g>
</svg>
