<?xml version="1.0" encoding="UTF-8"?>
<!-- Generated by Pixelmator Pro 3.1.1 -->
<svg width="168" height="42" viewBox="0 0 168 42" xmlns="http://www.w3.org/2000/svg" xmlns:xlink="http://www.w3.org/1999/xlink">
    <path id="Right" fill="#047aff" fill-rule="evenodd" stroke="none" d="M 168 21 C 168 9.40202 158.597977 0 147 0 C 135.402023 0 126 9.40202 126 21 C 126 32.59798 135.402023 42 147 42 C 158.597977 42 168 32.59798 168 21 Z"/>
    <path id="RightArrow" fill="#ffffff" stroke="none" d="M 146.915985 11.431963 L 157.399994 21.947945 L 146.915985 32.400002 L 144.838364 30.386303 L 151.806396 23.386301 L 136.399994 23.386301 L 136.399994 20.477627 L 151.806396 20.477627 L 144.838364 13.509588 Z"/>
    <path id="Left" fill="#047aff" fill-rule="evenodd" stroke="none" d="M 126 21 C 126 9.40202 116.597977 0 105 0 C 93.402023 0 84 9.40202 84 21 C 84 32.59798 93.402023 42 105 42 C 116.597977 42 126 32.59798 126 21 Z"/>
    <path id="LeftArrow" fill="#ffffff" stroke="none" d="M 104.084015 31.568035 L 93.599998 21.052055 L 104.084015 10.599998 L 106.161644 12.613699 L 99.193611 19.613699 L 114.599998 19.613699 L 114.599998 22.522373 L 99.193611 22.522373 L 106.161644 29.49041 Z"/>
    <path id="Down" fill="#047aff" fill-rule="evenodd" stroke="none" d="M 84 21 C 84 9.402023 74.597977 0 63 0 C 51.40202 0 42 9.402023 42 21 C 42 32.59798 51.40202 42 63 42 C 74.597977 42 84 32.59798 84 21 Z"/>
    <path id="DownArrow" fill="#ffffff" stroke="none" d="M 72.568039 21.915981 L 62.052055 32.400002 L 51.599998 21.915981 L 53.613697 19.838356 L 60.613697 26.806393 L 60.613697 11.4 L 63.522373 11.4 L 63.522373 26.806393 L 70.49041 19.838356 Z"/>
    <path id="Up" fill="#047aff" fill-rule="evenodd" stroke="none" d="M 42 21 C 42 9.402023 32.597977 0 21 0 C 9.40202 0 -0 9.402023 -0 21 C -0 32.59798 9.40202 42 21 42 C 32.597977 42 42 32.59798 42 21 Z"/>
    <path id="UpArrow" fill="#ffffff" stroke="none" d="M 10.431964 21.084019 L 20.947945 10.6 L 31.400002 21.084019 L 29.386301 23.161644 L 22.386301 16.193607 L 22.386301 31.6 L 19.477627 31.6 L 19.477627 16.193607 L 12.509589 23.161644 Z"/>
</svg>
