<?xml version="1.0" encoding="UTF-8"?>
<!-- Generated by Pixelmator Pro 3.1.1 -->
<svg width="132" height="66" viewBox="0 0 132 66" xmlns="http://www.w3.org/2000/svg" xmlns:xlink="http://www.w3.org/1999/xlink">
    <path id="Start" fill="#ffffff" fill-rule="evenodd" stroke="none" d="M 105.599998 0 C 115.316757 0 120.17514 0 123.81794 2.040062 C 126.392464 3.481865 128.518127 5.607536 129.95993 8.18206 C 132 11.824856 132 16.683235 132 26.400002 L 132 39.599998 C 132 49.316761 132 54.17514 129.95993 57.81794 C 128.518127 60.392464 126.392464 62.518135 123.81794 63.959934 C 120.17514 66 115.316757 66 105.599998 66 L 92.400002 66 C 82.683235 66 77.82486 66 74.18206 63.959934 C 71.607536 62.518131 69.481865 60.392464 68.040062 57.81794 C 66 54.175144 66 49.316761 66 39.599998 L 66 26.400002 C 66 16.683235 66 11.824856 68.040062 8.18206 C 69.481865 5.607536 71.607536 3.481865 74.18206 2.040062 C 77.82486 0 82.683235 0 92.400002 0 Z"/>
    <path id="Select" fill="#047aff" stroke="none" d="M 83.25 44.355995 L 83.25 40.473331 L 115.25 40.473331 L 115.25 44.355995 Z M 83.25 35.012009 L 83.25 31.129345 L 115.25 31.129345 L 115.25 35.012009 Z M 83.25 25.62532 L 83.25 21.700012 L 115.25 21.700012 L 115.25 25.62532 Z"/>
    <path id="path1" fill="#ffffff" fill-rule="evenodd" stroke="none" d="M 39.599998 0 C 49.316761 0 54.17514 0 57.81794 2.040062 C 60.392464 3.481865 62.518135 5.607536 63.959934 8.18206 C 66 11.824856 66 16.683235 66 26.400002 L 66 39.599998 C 66 49.316761 66 54.17514 63.959934 57.81794 C 62.518131 60.392464 60.392464 62.518135 57.81794 63.959934 C 54.175144 66 49.316761 66 39.599998 66 L 26.4 66 C 16.683237 66 11.824856 66 8.182059 63.959934 C 5.607535 62.518131 3.481866 60.392464 2.040063 57.81794 C -1e-06 54.175144 -1e-06 49.316761 -1e-06 39.599998 L 0 26.400002 C 0 16.683235 0 11.824856 2.040064 8.18206 C 3.481867 5.607536 5.607536 3.481865 8.18206 2.040062 C 11.824857 0 16.683237 0 26.4 0 Z"/>
    <path id="path2" fill="#047aff" stroke="none" d="M 20.230316 47.967873 C 19.361538 47.967873 18.589291 47.642082 17.913574 46.990501 C 17.237858 46.338913 16.9 45.554604 16.9 44.637558 L 16.9 31.316288 L 20.230316 31.316288 L 20.230316 44.637558 L 36.519909 44.637558 L 36.519909 47.967873 Z M 25.298191 42.900002 C 24.405279 42.900002 23.626999 42.580242 22.963348 41.940723 C 22.299698 41.301208 21.967873 40.522926 21.967873 39.605881 L 21.967873 26.176018 L 25.261992 26.176018 L 25.261992 39.605881 L 41.696381 39.605881 L 41.696381 42.900002 Z M 30.366064 37.832127 C 29.44902 37.832127 28.664705 37.506336 28.013123 36.854752 C 27.36154 36.203171 27.035748 35.418854 27.035748 34.501812 L 27.035748 22.230316 C 27.035748 21.361538 27.36154 20.589291 28.013123 19.913574 C 28.664705 19.237862 29.44902 18.900002 30.366064 18.900002 L 45.569683 18.900002 C 46.486729 18.900002 47.271042 19.237862 47.922626 19.913574 C 48.574207 20.589291 48.900002 21.361538 48.900002 22.230316 L 48.900002 34.501812 C 48.900002 35.418854 48.574207 36.203171 47.922626 36.854752 C 47.271042 37.506336 46.486729 37.832127 45.569683 37.832127 Z M 30.366064 34.501812 L 45.569683 34.501812 L 45.569683 24.58326 L 30.366064 24.58326 L 30.366064 34.501812 Z"/>
</svg>
