<?xml version="1.0" encoding="UTF-8"?>
<!-- Generated by Pixelmator Pro 3.1.1 -->
<svg width="67" height="33" viewBox="0 0 67 33" xmlns="http://www.w3.org/2000/svg" xmlns:xlink="http://www.w3.org/1999/xlink">
    <g id="MenuPressed">
        <path id="path1" fill="#0099ff" stroke="#0099ff" stroke-width="2" stroke-linecap="round" stroke-linejoin="round" d="M 66.910004 16.390001 C 66.910004 25.281784 59.701786 32.490002 50.810001 32.490002 C 41.918217 32.490002 34.709999 25.281784 34.709999 16.390001 C 34.709999 7.498217 41.918217 0.290001 50.810001 0.290001 C 59.699497 0.295517 66.90448 7.500502 66.910004 16.390001 Z"/>
        <g id="g1">
            <path id="path2" fill="#000000" stroke="none" d="M 43.610001 11.77 L 57.970001 11.77 L 57.970001 13.32 L 43.610001 13.32 Z"/>
            <path id="path3" fill="#000000" stroke="none" d="M 43.610001 15.690001 L 57.970001 15.690001 L 57.970001 17.240002 L 43.610001 17.240002 Z"/>
            <path id="path4" fill="#000000" stroke="none" d="M 43.610001 19.5 L 57.970001 19.5 L 57.970001 21.029999 L 43.610001 21.029999 Z"/>
        </g>
    </g>
    <g id="SwitcherPRessed">
        <path id="path5" fill="#0099ff" stroke="#0099ff" stroke-width="2" stroke-linecap="round" stroke-linejoin="round" d="M 32.709999 16.390001 C 32.714046 22.906796 28.791536 28.784153 22.771963 31.280827 C 16.75239 33.7775 9.821551 32.401669 5.21205 27.795025 C 0.602549 23.188385 -0.777588 16.258406 1.715346 10.237282 C 4.208281 4.21616 10.083203 0.290001 16.6 0.290001 C 20.87253 0.284687 24.971743 1.978909 27.993818 4.999107 C 31.015894 8.019308 32.712658 12.117468 32.709999 16.390001 Z"/>
        <g id="g2">
            <path id="path6" fill="#000000" stroke="none" d="M 14.09 16.290001 L 11.06 16.290001 L 11.06 12.51 L 16.530001 12.51 L 16.530001 13.83 L 18.33 13.83 L 18.33 10.77 L 9.44 10.77 L 9.44 18.16 L 14.09 18.16 L 14.09 16.290001 Z"/>
            <path id="path7" fill="#000000" stroke="none" d="M 14.84 14.450001 L 14.84 22.040001 L 23.84 22.040001 L 23.84 14.450001 Z M 22 20.240002 L 16.530001 20.240002 L 16.530001 16.290001 L 22 16.290001 Z"/>
        </g>
    </g>
</svg>
