<?xml version="1.0" encoding="UTF-8"?>
<!-- Generated by Pixelmator Pro 3.1.1 -->
<svg width="132" height="66" viewBox="0 0 132 66" xmlns="http://www.w3.org/2000/svg" xmlns:xlink="http://www.w3.org/1999/xlink">
    <path id="Start" fill="#ffffff" fill-rule="evenodd" stroke="none" d="M 113.849998 0 C 120.530273 0 123.870407 0 126.374832 1.402542 C 128.144821 2.393784 129.606216 3.855183 130.597458 5.625168 C 132 8.129589 132 11.469727 132 18.150002 L 132 47.849998 C 132 54.530273 132 57.870411 130.597458 60.374832 C 129.606216 62.144817 128.144821 63.606216 126.374832 64.597458 C 123.870415 66 120.530273 66 113.849998 66 L 84.150002 66 C 77.469727 66 74.129585 66 71.625168 64.597458 C 69.855179 63.60622 68.393784 62.144821 67.402542 60.374836 C 66 57.870415 66 54.530277 66 47.850002 L 66 18.150002 C 66 11.469727 66 8.129589 67.402542 5.625168 C 68.393784 3.855179 69.855179 2.393784 71.625168 1.402542 C 74.129585 0 77.469727 0 84.150002 0 Z"/>
    <path id="Start-" fill="#0099ff" stroke="none" d="M 83.25 44.355995 L 83.25 40.473331 L 115.25 40.473331 L 115.25 44.355995 Z M 83.25 35.012009 L 83.25 31.129345 L 115.25 31.129345 L 115.25 35.012009 Z M 83.25 25.62532 L 83.25 21.700012 L 115.25 21.700012 L 115.25 25.62532 Z"/>
    <path id="Select" fill="#ffffff" fill-rule="evenodd" stroke="none" d="M 47.849998 0 C 54.530273 0 57.870411 0 60.374832 1.402542 C 62.144817 2.393784 63.606216 3.855183 64.597458 5.625168 C 66 8.129589 66 11.469727 66 18.150002 L 66 47.849998 C 66 54.530273 66 57.870411 64.597458 60.374832 C 63.60622 62.144817 62.144821 63.606216 60.374836 64.597458 C 57.870415 66 54.530277 66 47.850002 66 L 18.15 66 C 11.469726 66 8.129588 66 5.625166 64.597458 C 3.855181 63.60622 2.393783 62.144821 1.402544 60.374836 C -0 57.870415 -0 54.530277 -0 47.850002 L 0 18.150002 C 0 11.469727 0 8.129589 1.402544 5.625168 C 2.393783 3.855179 3.855181 2.393784 5.625166 1.402542 C 8.129589 0 11.469726 0 18.15 0 Z"/>
    <path id="Select-" fill="#0099ff" stroke="none" d="M 20.230316 47.967873 C 19.361538 47.967873 18.589291 47.642082 17.913574 46.990501 C 17.237858 46.338913 16.9 45.554604 16.9 44.637558 L 16.9 31.316288 L 20.230316 31.316288 L 20.230316 44.637558 L 36.519909 44.637558 L 36.519909 47.967873 Z M 25.298191 42.900002 C 24.405279 42.900002 23.626999 42.580242 22.963348 41.940723 C 22.299698 41.301208 21.967873 40.522926 21.967873 39.605881 L 21.967873 26.176018 L 25.261992 26.176018 L 25.261992 39.605881 L 41.696381 39.605881 L 41.696381 42.900002 Z M 30.366064 37.832127 C 29.44902 37.832127 28.664705 37.506336 28.013123 36.854752 C 27.36154 36.203171 27.035748 35.418854 27.035748 34.501812 L 27.035748 22.230316 C 27.035748 21.361538 27.36154 20.589291 28.013123 19.913574 C 28.664705 19.237862 29.44902 18.900002 30.366064 18.900002 L 45.569683 18.900002 C 46.486729 18.900002 47.271042 19.237862 47.922626 19.913574 C 48.574207 20.589291 48.900002 21.361538 48.900002 22.230316 L 48.900002 34.501812 C 48.900002 35.418854 48.574207 36.203171 47.922626 36.854752 C 47.271042 37.506336 46.486729 37.832127 45.569683 37.832127 Z M 30.366064 34.501812 L 45.569683 34.501812 L 45.569683 24.58326 L 30.366064 24.58326 L 30.366064 34.501812 Z"/>
</svg>
