<?xml version="1.0" encoding="UTF-8"?>
<!-- Generated by Pixelmator Pro 3.1.1 -->
<svg width="132" height="66" viewBox="0 0 132 66" xmlns="http://www.w3.org/2000/svg" xmlns:xlink="http://www.w3.org/1999/xlink">
    <path id="Start" fill="#ffffff" fill-rule="evenodd" stroke="none" d="M 113.849998 0 C 120.530273 0 123.870407 0 126.374832 1.402542 C 128.144821 2.393784 129.606216 3.855183 130.597458 5.625168 C 132 8.129589 132 11.469727 132 18.150002 L 132 47.849998 C 132 54.530273 132 57.870411 130.597458 60.374832 C 129.606216 62.144817 128.144821 63.606216 126.374832 64.597458 C 123.870415 66 120.530273 66 113.849998 66 L 84.150002 66 C 77.469727 66 74.129585 66 71.625168 64.597458 C 69.855179 63.60622 68.393784 62.144821 67.402542 60.374836 C 66 57.870415 66 54.530277 66 47.850002 L 66 18.150002 C 66 11.469727 66 8.129589 67.402542 5.625168 C 68.393784 3.855179 69.855179 2.393784 71.625168 1.402542 C 74.129585 0 77.469727 0 84.150002 0 Z"/>
    <path id="Start-" fill="#0099ff" stroke="none" d="M 82.25 45.063995 L 82.25 41.059998 L 115.25 41.059998 L 115.25 45.063995 Z M 82.25 35.428009 L 82.25 31.424011 L 115.25 31.424011 L 115.25 35.428009 Z M 82.25 25.747986 L 82.25 21.700012 L 115.25 21.700012 L 115.25 25.747986 Z"/>
    <path id="Select" fill="#ffffff" fill-rule="evenodd" stroke="none" d="M 47.849998 0 C 54.530273 0 57.870411 0 60.374832 1.402542 C 62.144817 2.393784 63.606216 3.855183 64.597458 5.625168 C 66 8.129589 66 11.469727 66 18.150002 L 66 47.849998 C 66 54.530273 66 57.870411 64.597458 60.374832 C 63.60622 62.144817 62.144821 63.606216 60.374836 64.597458 C 57.870415 66 54.530277 66 47.850002 66 L 18.15 66 C 11.469726 66 8.129588 66 5.625166 64.597458 C 3.855181 63.60622 2.393783 62.144821 1.402544 60.374836 C -0 57.870415 -0 54.530277 -0 47.850002 L 0 18.150002 C 0 11.469727 0 8.129589 1.402544 5.625168 C 2.393783 3.855179 3.855181 2.393784 5.625166 1.402542 C 8.129589 0 11.469726 0 18.15 0 Z"/>
    <path id="Select-" fill="#0099ff" stroke="none" d="M 19.334389 47.876244 C 18.438461 47.876244 17.642082 47.540276 16.94525 46.868328 C 16.248417 46.196381 15.9 45.387558 15.9 44.441856 L 15.9 30.7043 L 19.334389 30.7043 L 19.334389 44.441856 L 36.133034 44.441856 L 36.133034 47.876244 Z M 24.560635 42.650002 C 23.639818 42.650002 22.837217 42.320251 22.152828 41.660748 C 21.468439 41.001244 21.126244 40.198647 21.126244 39.252945 L 21.126244 25.403397 L 24.523304 25.403397 L 24.523304 39.252945 L 41.471268 39.252945 L 41.471268 42.650002 Z M 29.786879 37.423756 C 28.841177 37.423756 28.032352 37.087784 27.360407 36.41584 C 26.688461 35.743893 26.352489 34.93507 26.352489 33.989368 L 26.352489 21.334389 C 26.352489 20.438461 26.688461 19.642082 27.360407 18.945248 C 28.032352 18.248417 28.841177 17.900002 29.786879 17.900002 L 45.465611 17.900002 C 46.411312 17.900002 47.220139 18.248417 47.892082 18.945248 C 48.564026 19.642082 48.900002 20.438461 48.900002 21.334389 L 48.900002 33.989368 C 48.900002 34.93507 48.564026 35.743893 47.892082 36.41584 C 47.220139 37.087784 46.411312 37.423756 45.465611 37.423756 Z M 29.786879 33.989368 L 45.465611 33.989368 L 45.465611 23.76086 L 29.786879 23.76086 L 29.786879 33.989368 Z"/>
</svg>
