<?xml version="1.0" encoding="UTF-8"?>
<!-- Generated by Pixelmator Pro 3.1.1 -->
<svg width="228" height="114" viewBox="0 0 228 114" xmlns="http://www.w3.org/2000/svg" xmlns:xlink="http://www.w3.org/1999/xlink">
    <path id="Pressed" fill="#0099ff" fill-rule="evenodd" stroke="none" d="M 228 57 C 228 25.519768 202.480225 0 171 0 C 139.519775 0 114 25.519768 114 57 C 114 88.480232 139.519775 114 171 114 C 202.480225 114 228 88.480232 228 57 Z"/>
    <path id="path1" fill="#ffffff" stroke="none" d="M 170.916794 69.089798 C 174.326828 69.089798 177.205434 67.916211 179.552612 65.569038 C 181.89979 63.221868 183.07338 60.34326 183.07338 56.933216 C 183.07338 53.523172 181.89979 50.644564 179.552612 48.297394 C 177.205434 45.950216 174.326828 44.776627 170.916794 44.776627 C 167.506749 44.776627 164.628138 45.950216 162.28096 48.297394 C 159.933792 50.644564 158.760208 53.523172 158.760208 56.933216 C 158.760208 60.34326 159.933792 63.221868 162.28096 65.569038 C 164.628138 67.916211 167.506749 69.089798 170.916794 69.089798 Z M 170.916794 84.900002 C 167.063878 84.900002 163.432398 84.180349 160.022354 82.741043 C 156.61232 81.301743 153.634069 79.308861 151.087601 76.762398 C 148.541143 74.215935 146.548264 71.237681 145.108963 67.827637 C 143.669652 64.417595 142.949997 60.786121 142.949997 56.933216 C 142.949997 53.080308 143.669652 49.448832 145.108963 46.038788 C 146.548264 42.628749 148.541143 39.650497 151.087601 37.104034 C 153.634069 34.557571 156.61232 32.553617 160.022354 31.092171 C 163.432398 29.630725 167.041733 28.900002 170.850357 28.900002 C 174.747554 28.900002 178.412242 29.630725 181.844421 31.092171 C 185.276611 32.553617 188.254868 34.557571 190.77919 37.104034 C 193.303502 39.650497 195.296382 42.628749 196.757828 46.038788 C 198.219274 49.448832 198.949997 53.102451 198.949997 56.999645 C 198.949997 60.808264 198.219274 64.417595 196.757828 67.827637 C 195.296382 71.237681 193.29243 74.215935 190.745972 76.762398 C 188.199504 79.308861 185.221252 81.301743 181.811218 82.741043 C 178.401174 84.180349 174.769699 84.900002 170.916794 84.900002 Z"/>
    <path id="Normal" fill="#ffffff" stroke="none" d="M 56.916786 69.089798 C 60.326831 69.089798 63.205439 67.916211 65.552612 65.569038 C 67.899785 63.221868 69.073372 60.34326 69.073372 56.933216 C 69.073372 53.523172 67.899785 50.644564 65.552612 48.297394 C 63.205439 45.950216 60.326831 44.776627 56.916786 44.776627 C 53.506742 44.776627 50.628133 45.950216 48.28096 48.297394 C 45.93379 50.644564 44.760204 53.523172 44.760204 56.933216 C 44.760204 60.34326 45.93379 63.221868 48.28096 65.569038 C 50.628133 67.916211 53.506742 69.089798 56.916786 69.089798 Z M 56.916786 84.900002 C 53.063878 84.900002 49.432404 84.180349 46.022362 82.741043 C 42.612317 81.301743 39.634065 79.308861 37.087605 76.762398 C 34.541144 74.215935 32.548261 71.237681 31.108955 67.827637 C 29.669652 64.417595 28.950001 60.786121 28.950001 56.933216 C 28.950001 53.080308 29.669652 49.448832 31.108955 46.038788 C 32.548261 42.628749 34.541144 39.650497 37.087605 37.104034 C 39.634065 34.557571 42.612317 32.553617 46.022362 31.092171 C 49.432404 29.630725 53.041735 28.900002 56.850357 28.900002 C 60.747551 28.900002 64.412239 29.630725 67.844421 31.092171 C 71.276611 32.553617 74.254865 34.557571 76.779182 37.104034 C 79.3035 39.650497 81.296384 42.628749 82.757835 46.038788 C 84.219276 49.448832 84.949997 53.102451 84.949997 56.999645 C 84.949997 60.808264 84.219276 64.417595 82.757835 67.827637 C 81.296384 71.237681 79.292427 74.215935 76.745964 76.762398 C 74.199506 79.308861 71.221255 81.301743 67.811211 82.741043 C 64.401169 84.180349 60.769694 84.900002 56.916786 84.900002 Z"/>
</svg>
