<?xml version="1.0" encoding="UTF-8"?>
<!-- Generated by Pixelmator Pro 3.1.1 -->
<svg width="104" height="52" viewBox="0 0 104 52" xmlns="http://www.w3.org/2000/svg" xmlns:xlink="http://www.w3.org/1999/xlink">
    <path id="Pressed" fill="#0099ff" fill-rule="evenodd" stroke="none" d="M 104 26 C 104 11.640598 92.359406 0 78 0 C 63.640594 0 52 11.640598 52 26 C 52 40.359406 63.640594 52 78 52 C 92.359406 52 104 40.359406 104 26 Z"/>
    <path id="Icon" fill="#ffffff" stroke="none" d="M 77.934578 31.559551 C 79.517815 31.559551 80.854309 31.014671 81.944069 29.924911 C 83.033829 28.835154 83.578712 27.498657 83.578712 25.915422 C 83.578712 24.332188 83.033829 22.995691 81.944069 21.905931 C 80.854309 20.816174 79.517815 20.271294 77.934578 20.271294 C 76.351341 20.271294 75.014847 20.816174 73.925087 21.905931 C 72.835327 22.995691 72.290451 24.332188 72.290451 25.915422 C 72.290451 27.498657 72.835327 28.835154 73.925087 29.924911 C 75.014847 31.014671 76.351341 31.559551 77.934578 31.559551 Z M 77.934578 38.900002 C 76.145729 38.900002 74.459686 38.565876 72.876457 37.897629 C 71.293221 37.229378 69.910461 36.304115 68.728172 35.121826 C 67.545891 33.939545 66.620621 32.556782 65.95237 30.973549 C 65.284126 29.390314 64.949997 27.704271 64.949997 25.915422 C 64.949997 24.126574 65.284126 22.440531 65.95237 20.857296 C 66.620621 19.274063 67.545891 17.891304 68.728172 16.709015 C 69.910461 15.52673 71.293221 14.596325 72.876457 13.917793 C 74.459686 13.239265 76.135452 12.900002 77.90374 12.900002 C 79.71315 12.900002 81.414612 13.239265 83.008125 13.917793 C 84.601639 14.596325 85.984398 15.52673 87.15641 16.709015 C 88.328407 17.891304 89.253677 19.274063 89.932205 20.857296 C 90.610733 22.440531 90.949997 24.136854 90.949997 25.946264 C 90.949997 27.714552 90.610733 29.390314 89.932205 30.973549 C 89.253677 32.556782 88.323273 33.939545 87.140984 35.121826 C 85.958702 36.304115 84.575943 37.229378 82.992706 37.897629 C 81.40947 38.565876 79.723427 38.900002 77.934578 38.900002 Z"/>
    <path id="Normal" fill="#ffffff" fill-opacity="0.5" fill-rule="evenodd" stroke="none" d="M 52 26 C 52 11.640598 40.359402 0 26 0 C 11.640596 0 0 11.640598 0 26 C 0 40.359406 11.640596 52 26 52 C 40.359402 52 52 40.359406 52 26 Z"/>
    <path id="path1" fill="#ffffff" stroke="none" d="M 25.93458 31.559551 C 27.517815 31.559551 28.854311 31.014671 29.944069 29.924911 C 31.033829 28.835154 31.578709 27.498657 31.578709 25.915422 C 31.578709 24.332188 31.033829 22.995691 29.944069 21.905931 C 28.854311 20.816174 27.517815 20.271294 25.93458 20.271294 C 24.351345 20.271294 23.014849 20.816174 21.925089 21.905931 C 20.835331 22.995691 20.290451 24.332188 20.290451 25.915422 C 20.290451 27.498657 20.835331 28.835154 21.925089 29.924911 C 23.014849 31.014671 24.351345 31.559551 25.93458 31.559551 Z M 25.93458 38.900002 C 24.145731 38.900002 22.459688 38.565876 20.876453 37.897629 C 19.293219 37.229378 17.91046 36.304115 16.728172 35.121826 C 15.545888 33.939545 14.620621 32.556782 13.952373 30.973549 C 13.284124 29.390314 12.95 27.704271 12.95 25.915422 C 12.95 24.126574 13.284124 22.440531 13.952373 20.857296 C 14.620621 19.274063 15.545888 17.891304 16.728172 16.709015 C 17.91046 15.52673 19.293219 14.596325 20.876453 13.917793 C 22.459688 13.239265 24.13545 12.900002 25.903738 12.900002 C 27.713148 12.900002 29.414612 13.239265 31.008125 13.917793 C 32.601639 14.596325 33.984402 15.52673 35.156406 16.709015 C 36.328411 17.891304 37.253677 19.274063 37.932209 20.857296 C 38.610737 22.440531 38.950001 24.136854 38.950001 25.946264 C 38.950001 27.714552 38.610737 29.390314 37.932209 30.973549 C 37.253677 32.556782 36.323273 33.939545 35.140984 35.121826 C 33.958698 36.304115 32.575939 37.229378 30.992706 37.897629 C 29.409472 38.565876 27.723429 38.900002 25.93458 38.900002 Z"/>
</svg>
