<?xml version="1.0" encoding="UTF-8"?>
<!-- Generated by Pixelmator Pro 3.1.1 -->
<svg width="168" height="83" viewBox="0 0 168 83" xmlns="http://www.w3.org/2000/svg" xmlns:xlink="http://www.w3.org/1999/xlink">
    <g id="g1">
        <path id="path1" fill="#0099ff" stroke="none" d="M 126.081192 4.620003 C 105.814636 4.624863 89.388382 21.05637 89.389999 41.322929 C 89.391624 61.589485 105.820503 78.018372 126.087067 78.019989 C 146.353622 78.021614 162.785141 61.595352 162.789993 41.3288 C 162.792343 31.592304 158.925552 22.253922 152.040817 15.369179 C 145.156067 8.484436 135.817688 4.617661 126.081192 4.620003 Z"/>
        <path id="-" fill="#000000" stroke="none" d="M 125.883041 7.620003 C 144.549393 7.615295 159.685287 22.747372 159.690002 41.418434 C 159.694687 60.0895 144.566437 75.229195 125.90007 75.233902 C 107.233711 75.238609 92.097824 60.106537 92.093117 41.435471 C 92.116554 22.77607 107.228355 7.65284 125.883041 7.620003 M 90.389999 41.42979"/>
    </g>
    <g id="LSpressed">
        <path id="path2" fill="#0099ff" stroke="none" d="M 41.701195 4.620003 C 21.434639 4.624863 5.008381 21.056374 5.010001 41.322933 C 5.011622 61.589493 21.440508 78.018379 41.707066 78.019997 C 61.973621 78.021614 78.405136 61.59536 78.410004 41.328804 C 78.412338 31.592308 74.545563 22.253922 67.66082 15.369179 C 60.776077 8.484436 51.437691 4.617661 41.701195 4.620003 Z"/>
    </g>
</svg>
