<?xml version="1.0" encoding="UTF-8"?>
<!-- Generated by Pixelmator Pro 3.1.1 -->
<svg width="66" height="142" viewBox="0 0 66 142" xmlns="http://www.w3.org/2000/svg" xmlns:xlink="http://www.w3.org/1999/xlink">
    <path id="Trigger" fill="#ffffff" fill-rule="evenodd" stroke="none" d="M 18.150391 142 C 11.470123 142 8.129419 142.000198 5.625 140.597656 C 3.855016 139.606415 2.393582 138.144989 1.402344 136.375 C -0.000199 133.870575 0 130.529877 0 123.849609 L 0 18.150391 C 0 11.470123 -0.000199 8.129425 1.402344 5.625 C 2.393582 3.855011 3.855016 2.393585 5.625 1.402344 C 8.12942 -0.000198 11.470123 0 18.150391 0 L 47.849609 0 C 54.529877 0 57.870583 -0.000198 60.375 1.402344 C 62.144985 2.393585 63.606415 3.855011 64.597656 5.625 C 66.000198 8.129425 66 11.470123 66 18.150391 L 66 123.849609 C 66 130.529877 66.000198 133.870575 64.597656 136.375 C 63.606419 138.144989 62.144985 139.606415 60.375 140.597656 C 57.870583 142.000198 54.529877 142 47.849609 142 L 18.150391 142 Z M 21.132813 122.601563 L 43.626953 122.601563 C 44.251804 122.601563 44.844532 122.458267 45.404297 122.171875 C 45.964058 121.885483 46.387436 121.455597 46.673828 120.882813 C 47.402821 119.581039 47.95647 118.221672 48.333984 116.802734 C 48.711498 115.383804 48.900391 113.918259 48.900391 112.408203 C 48.900391 110.117081 48.470497 107.969574 47.611328 105.964844 C 46.752155 103.960114 45.586239 102.216446 44.115234 100.732422 C 42.644226 99.248398 40.913586 98.062943 38.921875 97.177734 C 36.930164 96.292526 34.789165 95.849609 32.498047 95.849609 C 30.180887 95.849609 28.026871 96.279495 26.035156 97.138672 C 24.043444 97.997849 22.291309 99.176788 20.78125 100.673828 C 19.271196 102.170868 18.081173 103.921051 17.208984 105.925781 C 16.336794 107.930511 15.900391 110.091049 15.900391 112.408203 C 15.900391 113.918259 16.082767 115.390312 16.447266 116.822266 C 16.811762 118.254211 17.345871 119.607071 18.048828 120.882813 C 18.43936 121.455597 18.893351 121.885483 19.414063 122.171875 C 19.934772 122.458267 20.507961 122.601563 21.132813 122.601563 Z M 32.419922 115.611328 C 31.430573 115.585289 30.701061 115.233566 30.232422 114.556641 L 20.898438 100.849609 L 34.607422 110.181641 C 35.284344 110.650284 35.647148 111.366768 35.699219 112.330078 C 35.751289 113.293388 35.466648 114.088036 34.841797 114.712891 C 34.216946 115.337746 33.409267 115.63736 32.419922 115.611328 Z"/>
</svg>
