<?xml version="1.0" encoding="UTF-8"?>
<!-- Generated by Pixelmator Pro 3.1.1 -->
<svg width="66" height="142" viewBox="0 0 66 142" xmlns="http://www.w3.org/2000/svg" xmlns:xlink="http://www.w3.org/1999/xlink">
    <path id="Trigger" fill="#ffffff" fill-rule="evenodd" stroke="none" d="M 47.849998 0 C 54.530273 0 57.870411 0 60.374832 1.402542 C 62.144817 2.393784 63.606216 3.855179 64.597458 5.625168 C 66 8.129593 66 11.469727 66 18.150002 L 66 123.849998 C 66 130.530273 66 133.870407 64.597458 136.374832 C 63.60622 138.144821 62.144821 139.606216 60.374836 140.597458 C 57.870415 142 54.530277 142 47.850002 142 L 18.15 142 C 11.469726 142 8.129588 142 5.625166 140.597458 C 3.855181 139.606216 2.393783 138.144821 1.402544 136.374832 C -0 133.870407 -0 130.530273 -0 123.849998 L 0 18.150002 C 0 11.469727 0 8.129593 1.402544 5.625168 C 2.393783 3.855179 3.855181 2.393784 5.625166 1.402542 C 8.129589 0 11.469726 0 18.15 0 Z"/>
    <path id="path1" fill="#7f7f7f" stroke="none" d="M 29.959171 114.712723 C 30.584024 115.33757 31.391125 115.636978 32.380474 115.610947 C 33.369823 115.584908 34.098816 115.233429 34.567455 114.556503 L 43.901184 100.848816 L 30.193491 110.182541 C 29.516567 110.651184 29.152071 111.367157 29.099998 112.330475 C 29.047928 113.293785 29.33432 114.087868 29.959171 114.712723 Z M 21.17219 122.601479 C 20.547337 122.601479 19.955029 122.458282 19.395266 122.17189 C 18.835503 121.885498 18.412426 121.455917 18.126036 120.883133 C 17.397041 119.58136 16.843786 118.221008 16.466272 116.802071 C 16.088757 115.383133 15.900001 113.91864 15.900001 112.408577 C 15.900001 110.117455 16.329586 107.969528 17.188757 105.96479 C 18.04793 103.96006 19.213017 102.215683 20.684023 100.731659 C 22.155029 99.247635 23.886391 98.063019 25.878107 97.177811 C 27.869822 96.292603 30.011242 95.849998 32.302364 95.849998 C 34.619526 95.849998 36.773964 96.279587 38.765678 97.138756 C 40.757393 97.997925 42.508282 99.176041 44.018345 100.67308 C 45.5284 102.17012 46.719524 103.921005 47.591713 105.925735 C 48.463905 107.930473 48.900002 110.091415 48.900002 112.408577 C 48.900002 113.91864 48.717751 115.389648 48.353252 116.821594 C 47.988758 118.253548 47.455029 119.607391 46.752071 120.883133 C 46.361538 121.455917 45.905918 121.885498 45.385208 122.17189 C 44.864498 122.458282 44.291714 122.601479 43.666862 122.601479 Z"/>
</svg>
