<?xml version="1.0" encoding="UTF-8"?>
<!-- Generated by Pixelmator Pro 3.1.1 -->
<svg width="66" height="142" viewBox="0 0 66 142" xmlns="http://www.w3.org/2000/svg" xmlns:xlink="http://www.w3.org/1999/xlink">
    <path id="Trigger" fill="#ffffff" fill-rule="evenodd" stroke="none" d="M 26.400391 142 C 16.683638 142 11.824433 141.999054 8.181641 139.958984 C 5.607119 138.517181 3.482817 136.392883 2.041016 133.818359 C 0.000954 130.175568 0 125.316368 0 115.599609 L 0 26.400391 C 0 16.683632 0.000954 11.824448 2.041016 8.181641 C 3.482817 5.607117 5.607119 3.482819 8.181641 2.041016 C 11.824433 0.000946 16.683638 0 26.400391 0 L 39.599609 0 C 49.31636 0 54.175564 0.000946 57.818359 2.041016 C 60.392879 3.482819 62.517185 5.607101 63.958984 8.181641 C 65.999046 11.824432 66 16.683632 66 26.400391 L 66 115.599609 C 66 125.31636 65.999046 130.175568 63.958984 133.818359 C 62.517181 136.392883 60.392879 138.517181 57.818359 139.958984 C 54.175568 141.999054 49.31636 142 39.599609 142 L 26.400391 142 Z M 21.132813 122.601563 L 43.626953 122.601563 C 44.251804 122.601563 44.844532 122.458267 45.404297 122.171875 C 45.964058 121.885483 46.387436 121.455597 46.673828 120.882813 C 47.402821 119.581039 47.95647 118.221672 48.333984 116.802734 C 48.711498 115.383804 48.900391 113.918259 48.900391 112.408203 C 48.900391 110.117081 48.470497 107.969574 47.611328 105.964844 C 46.752155 103.960114 45.586239 102.216446 44.115234 100.732422 C 42.644226 99.248398 40.913586 98.062943 38.921875 97.177734 C 36.930164 96.292526 34.789165 95.849609 32.498047 95.849609 C 30.180887 95.849609 28.026871 96.279495 26.035156 97.138672 C 24.043444 97.997849 22.291309 99.176788 20.78125 100.673828 C 19.271196 102.170868 18.081173 103.921051 17.208984 105.925781 C 16.336794 107.930511 15.900391 110.091049 15.900391 112.408203 C 15.900391 113.918259 16.082767 115.390312 16.447266 116.822266 C 16.811762 118.254211 17.345871 119.607071 18.048828 120.882813 C 18.43936 121.455597 18.893351 121.885483 19.414063 122.171875 C 19.934772 122.458267 20.507961 122.601563 21.132813 122.601563 Z M 32.419922 115.611328 C 31.430573 115.585289 30.701061 115.233566 30.232422 114.556641 L 20.898438 100.849609 L 34.607422 110.181641 C 35.284344 110.650284 35.647148 111.366768 35.699219 112.330078 C 35.751289 113.293388 35.466648 114.088036 34.841797 114.712891 C 34.216946 115.337746 33.409267 115.63736 32.419922 115.611328 Z"/>
</svg>
