<?xml version="1.0" encoding="UTF-8"?>
<!-- Generated by Pixelmator Pro 3.1.1 -->
<svg width="195" height="96" viewBox="0 0 195 96" xmlns="http://www.w3.org/2000/svg" xmlns:xlink="http://www.w3.org/1999/xlink">
    <g id="g1">
        <g id="g2">
            <g id="A">
                <path id="path1" fill="#000000" stroke="none" d="M 23.690001 0.260002 C 36.7668 0.265526 47.363682 10.869865 47.360001 23.946663 C 47.356319 37.023464 36.753468 47.621838 23.676668 47.619995 C 10.599867 47.618156 1e-06 37.0168 0 23.940002 C 0.005521 10.860283 10.610278 0.260002 23.690001 0.260002 Z"/>
            </g>
            <g id="g3">
                <path id="path2" fill="#0099ff" stroke="none" d="M 32.450001 39.09 L 29.67 31.43 L 17.540001 31.43 L 14.9 39.09 L 9.42 39.09 L 20.879999 8.790001 L 26.469999 8.790001 L 38 39.09 Z M 23.66 13.339996 L 23.530001 13.339996 C 23.454668 14.076828 23.303877 14.803978 23.08 15.510002 L 18.940001 27.190002 L 28.24 27.190002 L 24.07 15.510002 C 23.863976 14.801506 23.726675 14.074821 23.66 13.339996 Z"/>
            </g>
        </g>
        <g id="g4">
            <g id="B">
                <path id="path3" fill="#000000" stroke="none" d="M 73.080002 0.260002 C 86.163628 0.260002 96.769997 10.866371 96.769997 23.949997 C 96.769997 37.033623 86.163628 47.639999 73.080002 47.639999 C 59.996376 47.639999 49.389999 37.033623 49.389999 23.949997 C 49.395519 10.86866 59.998661 0.265518 73.080002 0.260002 Z"/>
            </g>
            <g id="g5">
                <path id="path4" fill="#0099ff" stroke="none" d="M 83.290001 30.260002 C 83.360802 32.729874 82.277733 35.091927 80.360001 36.649998 C 78.213524 38.341469 75.530029 39.204021 72.800003 39.079998 L 62.889999 39.079998 L 62.889999 8.790001 L 72.459999 8.790001 C 74.891937 8.667542 77.299271 9.326317 79.330002 10.669998 C 80.963692 11.842445 81.908089 13.749977 81.849998 15.760002 C 81.874054 17.34079 81.343292 18.880013 80.349998 20.110001 C 79.325645 21.393089 77.927849 22.326118 76.349998 22.779999 L 76.349998 22.870003 C 78.283531 23.032959 80.09549 23.880432 81.459999 25.260002 C 82.684708 26.632668 83.339256 28.421059 83.290001 30.260002 Z M 76.519997 16.729996 C 76.566513 15.637039 76.068375 14.592064 75.190002 13.940002 C 73.992546 13.200119 72.594757 12.85067 71.190002 12.940002 L 67.93 12.940002 L 67.93 21.330002 L 71.160004 21.330002 C 72.594734 21.428253 74.016281 21.001793 75.160004 20.129997 C 76.098564 19.25679 76.597435 18.009605 76.519997 16.729996 Z M 78 30.129997 C 78.061432 28.81028 77.484703 27.541481 76.449997 26.720001 C 75.062653 25.820236 73.419128 25.398819 71.769997 25.519997 L 67.93 25.519997 L 67.93 34.929996 L 72.169998 34.929996 C 73.694778 35.016571 75.199791 34.551579 76.410004 33.619999 C 77.463295 32.774506 78.05323 31.479614 78 30.129997 Z"/>
            </g>
        </g>
        <g id="g6">
            <g id="Y">
                <path id="path5" fill="#000000" stroke="none" d="M 171.869995 0.260002 C 184.953629 0.260002 195.559998 10.866371 195.559998 23.949997 C 195.559998 37.033623 184.953629 47.639999 171.869995 47.639999 C 158.786377 47.639999 148.179993 37.033623 148.179993 23.949997 C 148.179993 10.866371 158.786377 0.260002 171.869995 0.260002 Z"/>
            </g>
            <g id="g7">
                <path id="path6" fill="#0099ff" stroke="none" d="M 174.270004 28.110001 L 174.270004 39.109997 L 169.270004 39.109997 L 169.270004 28.260002 L 159.419998 8.790001 L 165.139999 8.790001 L 171.240005 21.440002 C 171.422241 21.798363 171.56958 22.173424 171.679993 22.559998 C 171.779999 22.900002 171.850006 23.169998 171.929993 23.389999 L 171.929993 23.389999 C 172.08075 22.727432 172.3125 22.085945 172.619995 21.479996 L 179 8.790001 L 184.309998 8.790001 Z"/>
            </g>
        </g>
        <g id="g8">
            <g id="X">
                <path id="path7" fill="#000000" stroke="none" d="M 122.470001 0.260002 C 132.052612 0.255959 140.693924 6.025276 144.363831 14.877296 C 148.033752 23.729324 146.009399 33.920452 139.234894 40.697819 C 132.460388 47.475185 122.270111 49.503834 113.416542 45.837658 C 104.562965 42.171486 98.790001 33.532619 98.790001 23.949997 C 98.795517 10.872566 109.392563 0.271034 122.470001 0.260002 Z"/>
            </g>
            <g id="g9">
                <path id="path8" fill="#0099ff" stroke="none" d="M 129.589996 39.09 L 123.18 28.089996 C 123.05999 27.845032 122.959671 27.590889 122.879997 27.330002 C 122.825211 27.071663 122.751686 26.817657 122.660004 26.57 L 122.57 26.57 C 122.459999 26.839996 122.379997 27.089996 122.300003 27.339996 C 122.21096 27.598709 122.100578 27.849571 121.970001 28.089996 L 115.440002 39.09 L 109.32 39.09 L 119.459999 23.900002 L 110.199997 8.790001 L 116.389999 8.790001 L 121.790001 18.790001 C 122.213997 19.503395 122.549789 20.26564 122.790001 21.059998 L 122.870003 21.059998 C 123.169998 20.269997 123.400002 19.75 123.519997 19.5 C 123.639999 19.25 125.730003 15.699997 129.789993 8.839996 L 135.470001 8.839996 L 126.010002 23.839996 L 135.589996 39.119999 Z"/>
            </g>
        </g>
    </g>
    <g id="g10">
        <g id="g11">
            <g id="g12">
                <path id="path9" fill="#000000" stroke="none" d="M 32.450001 88.470001 L 29.67 80.810005 L 17.540001 80.810005 L 14.9 88.470001 L 9.42 88.470001 L 20.879999 58.16 L 26.469999 58.16 L 38 88.470001 Z M 23.66 62.719997 L 23.530001 62.719997 C 23.452566 63.456501 23.301819 64.183441 23.08 64.889999 L 18.940001 76.57 L 28.24 76.57 L 24.07 64.889999 C 23.865046 64.181252 23.727764 63.454666 23.66 62.719997 Z"/>
            </g>
        </g>
        <g id="g13">
            <g id="g14">
                <path id="path10" fill="#000000" stroke="none" d="M 83.290001 79.639999 C 83.363907 82.110504 82.280235 84.473869 80.360001 86.029999 C 78.214485 87.724251 75.531158 88.590294 72.800003 88.470001 L 62.889999 88.470001 L 62.889999 58.16 L 72.459999 58.16 C 74.893585 58.035515 77.302544 58.698238 79.330002 60.049999 C 80.970703 61.21648 81.917084 63.128017 81.849998 65.139999 C 81.872559 66.717514 81.341827 68.25309 80.349998 69.480003 C 79.328384 70.766068 77.92955 71.699791 76.349998 72.150002 L 76.349998 72.260002 C 78.270226 72.413818 80.070465 73.255348 81.419998 74.630005 C 82.666084 75.996368 83.33606 77.791344 83.290001 79.639999 Z M 76.519997 66.099998 C 76.566513 65.007042 76.068375 63.962063 75.190002 63.309998 C 73.992287 62.570732 72.594696 62.221333 71.190002 62.309998 L 67.93 62.309998 L 67.93 70.690002 L 71.160004 70.690002 C 72.594734 70.788254 74.016281 70.361794 75.160004 69.490005 C 76.09816 68.620705 76.597244 67.376656 76.519997 66.099998 Z M 78 79.510002 C 78.063103 78.189957 77.486046 76.920433 76.449997 76.099998 C 75.065674 75.192612 73.420654 74.767296 71.769997 74.889999 L 67.93 74.889999 L 67.93 84.310005 L 72.169998 84.310005 C 73.694778 84.396576 75.199791 83.93158 76.410004 83 C 77.460716 82.152504 78.050026 80.858986 78 79.510002 Z"/>
            </g>
        </g>
        <g id="g15">
            <g id="g16">
                <path id="path11" fill="#000000" stroke="none" d="M 174.270004 77.480003 L 174.270004 88.480003 L 169.270004 88.480003 L 169.270004 77.599998 L 159.419998 58.169998 L 165.139999 58.169998 L 171.240005 70.810005 C 171.422241 71.168365 171.56958 71.543427 171.679993 71.93 C 171.779999 72.270004 171.850006 72.540001 171.929993 72.760002 L 171.929993 72.760002 C 172.080765 72.100632 172.312515 71.462456 172.619995 70.860001 L 179 58.169998 L 184.309998 58.169998 Z"/>
            </g>
        </g>
        <g id="g17">
            <g id="g18">
                <path id="path12" fill="#000000" stroke="none" d="M 129.589996 88.470001 L 123.18 77.470001 C 123.059807 77.221664 122.959496 76.964195 122.879997 76.700005 C 122.823875 76.442001 122.750374 76.188087 122.660004 75.940002 L 122.57 75.940002 C 122.459999 76.220001 122.379997 76.459999 122.300003 76.720001 C 122.21096 76.978706 122.100578 77.229568 121.970001 77.470001 L 115.440002 88.470001 L 109.32 88.470001 L 119.459999 73.260002 L 110.199997 58.16 L 116.379997 58.16 L 121.790001 68.160004 C 122.209503 68.872185 122.545074 69.630577 122.790001 70.420006 L 122.870003 70.420006 C 123.169998 69.630005 123.400002 69.110001 123.519997 68.860001 C 123.639999 68.610001 125.730003 65.07 129.789993 58.199997 L 135.470001 58.199997 L 126.010002 73.200005 L 135.589996 88.490005 Z"/>
            </g>
        </g>
    </g>
</svg>
