<?xml version="1.0" encoding="UTF-8"?>
<!-- Generated by Pixelmator Pro 3.1.1 -->
<svg width="750" height="630" viewBox="0 0 750 630" xmlns="http://www.w3.org/2000/svg" xmlns:xlink="http://www.w3.org/1999/xlink">
    <g id="Layer1-2">
        <path id="path1" fill="#000000" stroke="none" d="M 666 213 C 659.40033 196.272034 652.73468 175.151367 636 163 C 617.254395 149.388489 576 122 492 122 C 482.698303 122 268.301666 122 259 122 C 156 122 113.279984 165.169373 110 168 C 98.433998 177.981415 92.360001 196.860016 85.639999 213.540009 C 22.889999 369.540009 -1.905372 468.655243 0.09 528.669983 C 3.115786 619.676514 71.680504 631.353088 74 630 C 163.74173 577.64978 168.001999 482.793823 253 482 L 502 482 C 583.12085 485.160706 592.036682 582.403809 677 630 C 677.577148 630.323303 753.182556 616.820923 749.900024 528.669983 C 747.708801 469.826233 745.993103 415.755005 666 213 Z"/>
        <g id="Dpad">
            <g id="g1">
                <path id="path2" fill="#0099ff" stroke="none" d="M 262.109985 359.47998 L 258.51001 355.849976 L 227.690002 355.849976 C 226.700317 355.856445 225.734085 356.151886 224.910004 356.699982 L 227.690002 359.47998 Z"/>
                <path id="path3" fill="#0099ff" stroke="none" d="M 227.690002 359.47998 L 227.690002 359.47998 L 224.899994 356.699982 C 223.539993 357.629974 222.229996 359.439972 221.380005 362.839966 C 220.006638 369.563904 220.006638 376.496094 221.380005 383.219971 C 222.229996 386.619995 223.539993 388.429993 224.899994 389.359985 L 227.690002 386.589966 C 222.690002 386.589966 222.690002 359.47998 227.690002 359.47998 Z"/>
                <path id="path4" fill="#0099ff" stroke="none" d="M 267.200012 322.059998 L 267.200012 322.059998 L 268.089996 321.880005 L 268.160004 321.880005 C 268.469971 321.815063 268.784058 321.771637 269.100006 321.75 L 269.160004 321.75 L 270.160004 321.619995 L 270.160004 321.619995 L 271.160004 321.51001 L 271.209991 321.51001 L 272.209991 321.430023 L 272.350006 321.430023 L 273.350006 321.430023 L 273.51001 321.430023 L 274.51001 321.430023 L 275.679993 321.430023 C 282.450012 321.430023 289.25 322.660004 289.25 325.160004 L 292 322.390015 C 291.100006 321.02002 289.290009 319.680023 285.859985 318.860016 C 279.142822 317.486633 272.217194 317.486633 265.5 318.860016 C 262.559998 319.580017 260.790009 320.660004 259.779999 321.860016 L 262.350006 324.430023 C 263 323.279999 264.769989 322.540009 267.200012 322.059998 Z"/>
                <path id="path5" fill="#0099ff" stroke="none" d="M 323.649994 359.47998 L 326.410004 356.699982 C 325.593628 356.151337 324.633575 355.855682 323.649994 355.849976 L 292.839996 355.849976 L 289.230011 359.47998 Z"/>
                <path id="path6" fill="#0099ff" stroke="none" d="M 289.230011 325.050018 L 289.230011 325.050018 C 289.230011 325.050018 289.230011 340.490021 289.230011 359.469971 L 292.829987 355.849976 L 292.829987 355.849976 L 292.829987 325.050018 C 292.826263 324.063019 292.530518 323.099213 291.980011 322.279999 L 289.220001 325.050018 Z"/>
                <path id="path7" fill="#0099ff" stroke="none" d="M 262.109985 325.050018 C 262.105499 324.976746 262.105499 324.903259 262.109985 324.830017 L 262.109985 324.690002 L 262.109985 324.690002 C 262.109985 324.630005 262.109985 324.570007 262.109985 324.51001 L 262.109985 324.51001 C 262.140808 324.449768 262.177673 324.392822 262.220001 324.339996 L 259.649994 321.77002 C 258.833344 322.690369 258.384735 323.879578 258.390015 325.110016 L 258.390015 355.910004 L 261.98999 359.529999 Z"/>
                <path id="path8" fill="#0099ff" stroke="none" d="M 323.649994 386.589966 L 289.230011 386.589966 L 292.829987 390.210022 L 325.149994 390.210022 L 325.48999 389.859985 C 325.811584 389.726379 326.119659 389.562317 326.410004 389.369995 L 323.649994 386.589966 Z"/>
                <path id="path9" fill="#0099ff" stroke="none" d="M 289.230011 421.01001 L 291.98999 423.779968 C 292.536987 422.959656 292.829224 421.995972 292.829987 421.01001 L 292.829987 390.210022 L 289.230011 386.589966 Z"/>
                <path id="path10" fill="#0099ff" stroke="none" d="M 330 362.839996 C 329.160004 359.440002 327.820007 357.630005 326.450012 356.700012 L 323.690002 359.470001 C 328.690002 359.470001 328.690002 386.589966 323.690002 386.589966 L 326.459991 389.369995 C 327.820007 388.440002 329.160004 386.619995 330 383.219971 C 330.71994 379.872437 331.05545 376.453613 331 373.029999 C 331.050781 369.606537 330.715332 366.188293 330 362.839996 Z"/>
                <path id="path11" fill="#0099ff" stroke="none" d="M 289.209991 421.25 C 288.809998 423.580017 282.209991 424.73999 275.670013 424.73999 C 269.130005 424.73999 262.540009 423.580017 262.130005 421.25 C 262.125854 421.170044 262.125854 421.089966 262.130005 421.01001 L 259.339996 423.779968 C 260.269989 425.149963 262.089996 426.48999 265.51001 427.309998 C 272.22583 428.696777 279.154175 428.696777 285.869995 427.309998 C 289.299988 426.48999 291.109985 425.149963 292.01001 423.779968 L 289.26001 421.01001 C 289.230011 421.080017 289.230011 421.159973 289.209991 421.25 Z"/>
                <path id="path12" fill="#0099ff" stroke="none" d="M 262.109985 421.01001 L 262.109985 421.01001 L 262.109985 386.589966 L 258.51001 390.210022 L 258.51001 421.859985 L 258.600006 422.089966 C 258.735504 422.692322 258.979492 423.265015 259.320007 423.779968 L 262.109985 421.01001 Z"/>
                <path id="path13" fill="#0099ff" stroke="none" d="M 227.690002 386.589966 L 224.899994 389.359985 C 225.727676 389.908325 226.697174 390.203735 227.690002 390.210022 L 258.51001 390.210022 L 262.109985 386.589966 Z"/>
            </g>
        </g>
        <g id="RichtStick">
            <path id="path14" fill="#0099ff" stroke="none" d="M 475.485687 413 C 448.701721 412.992065 426.99472 391.274414 427 364.490479 C 427.00528 337.706512 448.720825 315.997375 475.504761 316 C 502.288727 316.002655 524 337.716034 524 364.5 C 523.968384 391.27832 502.263977 412.976318 475.485687 413 Z"/>
            <path id="-" fill="#000000" stroke="none" d="M 475.486572 410 C 450.359344 409.992554 429.995056 389.618225 430 364.491058 C 430.004944 339.363831 450.377258 318.997528 475.504486 319 C 500.631683 319.002472 521 339.372803 521 364.5 C 520.970337 389.621918 500.60849 409.977783 475.486572 410 Z"/>
        </g>
        <g id="ButtonBase">
            <g id="A">
                <path id="path15" fill="#0099ff" stroke="none" d="M 569.76001 274.920013 C 555.013977 274.925537 543.064453 286.884003 543.070007 301.630005 C 543.0755 316.376007 555.033997 328.325531 569.780029 328.320007 C 584.526001 328.314484 596.475525 316.356018 596.469971 301.610016 C 596.45343 286.868591 584.501465 274.925507 569.76001 274.920013 Z"/>
            </g>
            <g id="Y">
                <path id="path16" fill="#0099ff" stroke="none" d="M 569.76001 176.839996 C 579.34668 176.835968 556.67865 176.85553 569.76001 176.850006 M 569.76001 173.850006 C 555.013977 173.85553 543.064453 185.813995 543.070007 200.559998 C 543.0755 215.306 555.033997 227.255524 569.780029 227.25 C 584.526001 227.244476 596.475525 215.286011 596.469971 200.540009 C 596.45343 185.798584 584.501465 173.855499 569.76001 173.850006 Z"/>
            </g>
            <g id="B">
                <path id="path17" fill="#0099ff" stroke="none" d="M 620.299988 224.380005 C 609.499939 224.380005 599.76355 230.886353 595.63147 240.864685 C 591.49939 250.843018 593.785583 262.327942 601.423767 269.963287 C 609.062012 277.598663 620.547791 279.880524 630.524597 275.74472 C 640.501343 271.608917 647.004028 261.870056 647 251.070007 C 646.983459 236.332489 635.037537 224.391022 620.299988 224.380005 Z"/>
            </g>
            <g id="X">
                <path id="path18" fill="#0099ff" stroke="none" d="M 519.219971 224.380005 C 504.473999 224.385529 492.524475 236.343994 492.529999 251.089996 C 492.535522 265.835999 504.493988 277.785522 519.23999 277.779999 C 533.986023 277.774475 545.935547 265.81601 545.929993 251.070007 C 545.913452 236.328583 533.961426 224.385498 519.219971 224.380005 Z"/>
            </g>
        </g>
        <g id="LeftStick">
            <path id="path19" fill="#0099ff" stroke="none" d="M 181.485672 299 C 154.701736 298.992096 132.99472 277.274384 133 250.490479 C 133.00528 223.706512 154.720825 201.997375 181.504776 202 C 208.288727 202.002655 230 223.716034 230 250.5 C 229.968399 277.27832 208.263992 298.976318 181.485672 299 Z"/>
            <path id="path20" fill="#000000" stroke="none" d="M 181.486557 296 C 156.35936 295.992584 135.995056 275.618256 136 250.491058 C 136.004944 225.363831 156.377274 204.997528 181.504471 205 C 206.631699 205.002472 227 225.372803 227 250.5 C 226.970352 275.621918 206.608475 295.977783 181.486557 296 Z"/>
        </g>
        <g id="MenuKey">
            <path id="path21" fill="#0099ff" stroke="none" d="M 448.920013 249.910004 C 448.919983 257.519775 444.33493 264.379822 437.30365 267.2901 C 430.272369 270.200348 422.180298 268.587372 416.802246 263.203613 C 411.424194 257.819824 409.819855 249.726044 412.737579 242.697876 C 415.655304 235.669708 422.520264 231.091919 430.130005 231.100006 C 440.510651 231.111053 448.920013 239.529327 448.920013 249.910004 Z"/>
            <g id="g2">
                <path id="path22" fill="#000000" stroke="#000000" stroke-linecap="round" stroke-linejoin="round" d="M 446.230011 249.910004 C 446.230011 256.426819 442.303833 262.301727 436.282715 264.794647 C 430.261597 267.287598 423.331604 265.907471 418.724976 261.297974 C 414.118347 256.688446 412.742493 249.757629 415.239166 243.738037 C 417.73584 237.718475 423.61319 233.795959 430.130005 233.800018 C 439.023407 233.805542 446.230011 241.016602 446.230011 249.910004 Z"/>
                <g id="g3">
                    <path id="path23" fill="#0099ff" stroke="none" d="M 422.929993 245.279999 L 437.290009 245.279999 L 437.290009 246.830017 L 422.929993 246.830017 Z"/>
                    <path id="path24" fill="#0099ff" stroke="none" d="M 422.929993 249.200012 L 437.290009 249.200012 L 437.290009 250.75 L 422.929993 250.75 Z"/>
                    <path id="path25" fill="#0099ff" stroke="none" d="M 422.929993 253.01001 L 437.290009 253.01001 L 437.290009 254.540009 L 422.929993 254.540009 Z"/>
                </g>
            </g>
        </g>
        <g id="SwitcherKey">
            <path id="path26" fill="#0099ff" stroke="none" d="M 339.940002 249.910004 C 339.940002 260.29718 331.520508 268.71817 321.133331 268.720001 C 310.746155 268.721832 302.323669 260.303833 302.320007 249.916656 C 302.316315 239.52951 310.732819 231.10553 321.119995 231.100006 C 326.110443 231.097351 330.89743 233.077942 334.427155 236.605804 C 337.956879 240.133636 339.940002 244.919556 339.940002 249.910004 Z"/>
            <g id="g4">
                <path id="path27" fill="#0a0a0a" stroke="#000000" stroke-linecap="round" stroke-linejoin="round" d="M 337.220001 249.910004 C 337.214478 258.800476 330.003815 266.003693 321.113342 266 C 312.22287 265.996338 305.018158 258.78717 305.019989 249.896667 C 305.021851 241.006195 312.229523 233.800018 321.119995 233.800018 C 325.392548 233.797363 329.490692 235.49411 332.510895 238.516205 C 335.531097 241.538269 337.225311 245.637482 337.220001 249.910004 Z"/>
                <g id="g5">
                    <path id="path28" fill="#0099ff" stroke="none" d="M 318.600006 249.809998 L 315.570007 249.809998 L 315.570007 246.02002 L 321.040009 246.02002 L 321.040009 247.339996 L 322.839996 247.339996 L 322.839996 244.279999 L 313.950012 244.279999 L 313.950012 251.670013 L 318.600006 251.670013 L 318.600006 249.809998 Z"/>
                    <path id="path29" fill="#0099ff" stroke="none" d="M 319.350006 247.970001 L 319.350006 255.540009 L 328.350006 255.540009 L 328.350006 247.960022 Z M 326.51001 253.75 L 321 253.75 L 321 249.800018 L 326.470001 249.800018 Z"/>
                </g>
            </g>
        </g>
        <g id="ApertureLambda">
            <path id="Aperture" fill="#0099ff" stroke="none" d="M 364.166534 199.723145 C 369.21405 201.904755 374.546417 202.512573 379.617554 201.767822 L 360.119934 181.80246 L 359.715576 197.317902 C 361.102875 198.234192 362.587769 199.040863 364.166534 199.723145 Z M 357.947357 196.049255 L 358.591736 168.425018 L 347.460724 179.019348 C 348.774597 185.677612 352.442474 191.774597 357.947357 196.049255 Z M 381.572815 201.410889 C 388.318359 199.936279 394.456787 196.043518 398.638123 190.264252 L 370.426605 190.029907 L 381.572815 201.410889 Z M 347.172089 177.256531 L 366.935242 157.910736 L 351.589325 157.860229 C 350.711121 159.205383 349.935944 160.641602 349.2771 162.165344 L 349.030914 162.752869 C 347.097351 167.516174 346.539276 172.499115 347.172089 177.256531 Z M 384.040375 188.368378 L 399.722107 188.651123 C 400.472321 187.448669 401.145172 186.174347 401.72467 184.833679 C 403.922455 179.748718 404.521027 174.37384 403.750366 169.268707 L 384.040375 188.368378 Z M 392.615631 177.844543 L 403.355865 167.172089 C 401.867218 160.649017 398.111389 154.712616 392.576111 150.591431 L 392.615631 177.844543 Z M 352.656647 156.338135 L 380.191528 156.348511 L 369.630432 145.542938 C 362.961151 146.949951 356.871857 150.720856 352.656647 156.338135 Z M 390.762451 164.569122 L 391.024048 149.515015 C 389.71225 148.667603 388.315887 147.916107 386.835052 147.276306 C 381.816162 145.107056 376.514526 144.493744 371.469177 145.219391 L 390.762451 164.569122 Z"/>
            <path id="Lambda" fill="#0099ff" fill-rule="evenodd" stroke="none" d="M 369.18515 160.064545 L 369.18515 163.841583 L 372.295654 163.841583 L 373.573181 167.785278 L 364.075012 182.504639 L 368.740784 182.504639 L 375.517242 172.506592 L 379.960815 183.726624 L 386.959473 181.504822 L 385.848572 178.061066 L 382.626984 179.060852 L 375.072876 160.064545 L 369.18515 160.064545 Z"/>
        </g>
        <g id="Bumber">
            <path id="path30" fill="#000000" fill-rule="evenodd" stroke="none" d="M 522.46582 103 C 517.46582 103 514.61731 104.652649 512.46582 106 C 506.858185 109.511719 497.46582 119 497.46582 119 C 497.46582 119 519.192871 118.784882 530.46582 120 C 541.255859 121.163055 554.947144 123.328766 565.46582 126 C 575.989441 128.672485 586.330139 132.106812 596.46582 136 C 606.354919 139.798462 613.394592 143.528687 622.46582 149 C 630.802246 154.028107 639.46582 161 639.46582 161 C 639.46582 161 640.667725 159.346313 639.46582 157 C 637.736206 153.623596 634.316284 149.059052 633.46582 148 C 628.888306 142.299896 623.093872 136.665771 617.46582 132 C 610.774048 126.452393 603.243896 121.88031 595.46582 118 C 587.820374 114.185852 579.705383 111.260315 571.46582 109 C 562.322632 106.49176 553.891174 105.025208 544.46582 104 C 536.174744 103.098206 530.340576 103 522.46582 103 Z"/>
            <path id="path31" fill="#000000" fill-rule="evenodd" stroke="none" d="M 229 103 C 234 103 236.84848 104.652649 239 106 C 244.607635 109.511719 254 119 254 119 C 254 119 232.272934 118.784882 221 120 C 210.209961 121.163055 196.518661 123.328766 186 126 C 175.476379 128.672485 165.135681 132.106812 155 136 C 145.110916 139.798462 138.071213 143.528687 129 149 C 120.663582 154.028107 112 161 112 161 C 112 161 110.79808 159.346313 112 157 C 113.729599 153.623596 117.149513 149.059052 118 148 C 122.577484 142.299896 128.371948 136.665771 134 132 C 140.691757 126.452393 148.221909 121.88031 156 118 C 163.645416 114.185852 171.760406 111.260315 180 109 C 189.143173 106.49176 197.574615 105.025208 207 104 C 215.291092 103.098206 221.125244 103 229 103 Z"/>
        </g>
        <g id="Trigger">
            <g id="g6">
                <path id="path32" fill="#000000" stroke="none" d="M 531.190002 -0.320007 C 520.349976 0.090027 519.119995 11.119995 519 14.869995 L 519 16.099976 C 520.763794 47.104919 520.953796 67.995056 519.190002 99 C 565.509399 98.906982 591.190002 111 591.190002 111 C 591.190002 111 588.166748 90.817383 580.190002 61 C 570.49646 24.765259 561.704041 7.897156 556.97998 4.109985 C 550.878296 -0.781616 543.419983 -0.77002 531.190002 -0.320007 Z"/>
            </g>
            <g id="g7">
                <path id="path33" fill="#000000" stroke="none" d="M 221 -0.320007 C 231.839996 0.090027 233.070007 11.119995 233.190002 14.869995 L 233.190002 16.099976 C 231.426208 47.104919 231.236206 67.995056 233 99 C 186.680603 98.906982 161 111 161 111 C 161 111 164.023224 90.817383 172 61 C 181.693558 24.765259 190.485962 7.897156 195.210007 4.109985 C 201.311691 -0.781616 208.770004 -0.77002 221 -0.320007 Z"/>
            </g>
        </g>
    </g>
</svg>
