<?xml version="1.0" encoding="UTF-8"?>
<!-- Generated by Pixelmator Pro 3.1.1 -->
<svg width="143" height="58" viewBox="0 0 143 58" xmlns="http://www.w3.org/2000/svg" xmlns:xlink="http://www.w3.org/1999/xlink">
    <path id="path1" fill="#0099ff" fill-rule="evenodd" stroke="none" d="M 118 0 C 123 0 125.84848 1.652649 128 3 C 133.607635 6.511719 143 16 143 16 C 143 16 121.272934 15.784882 110 17 C 99.209961 18.163055 85.518661 20.328766 75 23 C 64.476379 25.672485 54.135681 29.106812 44 33 C 34.110916 36.798462 27.071213 40.528687 18 46 C 9.663582 51.028107 1 58 1 58 C 1 58 -0.20192 56.346313 1 54 C 2.729599 50.623596 6.149513 46.059052 7 45 C 11.577484 39.299896 17.371948 33.665771 23 29 C 29.691757 23.452393 37.221909 18.88031 45 15 C 52.645416 11.185852 60.760406 8.260315 69 6 C 78.143173 3.49176 86.574615 2.025208 96 1 C 104.291092 0.098206 110.125244 0 118 0 Z"/>
</svg>
