<?xml version="1.0" encoding="UTF-8"?>
<!-- Generated by Pixelmator Pro 3.1.1 -->
<svg width="750" height="630" viewBox="0 0 750 630" xmlns="http://www.w3.org/2000/svg" xmlns:xlink="http://www.w3.org/1999/xlink">
    <g id="Layer1-2">
        <path id="path1" fill="#000000" stroke="none" d="M 666 213 C 659.40033 196.272034 652.73468 175.151367 636 163 C 617.254395 149.388489 576 122 492 122 C 482.698303 122 268.301666 122 259 122 C 156 122 113.279984 165.169373 110 168 C 98.433998 177.981415 92.360001 196.860016 85.639999 213.540009 C 22.889999 369.540009 -1.905372 468.655243 0.09 528.669983 C 3.115786 619.676514 71.680504 631.353088 74 630 C 163.74173 577.64978 168.001999 482.793823 253 482 L 502 482 C 583.12085 485.160706 592.036682 582.403809 677 630 C 677.577148 630.323303 753.182556 616.820923 749.900024 528.669983 C 747.708801 469.826233 745.993103 415.755005 666 213 Z"/>
        <g id="ApertureLambda">
            <path id="Aperture" fill="#0099ff" stroke="none" d="M 364.166534 199.723145 C 369.21405 201.904755 374.546417 202.512573 379.617554 201.767822 L 360.119934 181.80246 L 359.715576 197.317902 C 361.102875 198.234192 362.587769 199.040863 364.166534 199.723145 Z M 357.947357 196.049255 L 358.591736 168.425018 L 347.460724 179.019348 C 348.774597 185.677612 352.442474 191.774597 357.947357 196.049255 Z M 381.572815 201.410889 C 388.318359 199.936279 394.456787 196.043518 398.638123 190.264252 L 370.426605 190.029907 L 381.572815 201.410889 Z M 347.172089 177.256531 L 366.935242 157.910736 L 351.589325 157.860229 C 350.711121 159.205383 349.935944 160.641602 349.2771 162.165344 L 349.030914 162.752869 C 347.097351 167.516174 346.539276 172.499115 347.172089 177.256531 Z M 384.040375 188.368378 L 399.722107 188.651123 C 400.472321 187.448669 401.145172 186.174347 401.72467 184.833679 C 403.922455 179.748718 404.521027 174.37384 403.750366 169.268707 L 384.040375 188.368378 Z M 392.615631 177.844543 L 403.355865 167.172089 C 401.867218 160.649017 398.111389 154.712616 392.576111 150.591431 L 392.615631 177.844543 Z M 352.656647 156.338135 L 380.191528 156.348511 L 369.630432 145.542938 C 362.961151 146.949951 356.871857 150.720856 352.656647 156.338135 Z M 390.762451 164.569122 L 391.024048 149.515015 C 389.71225 148.667603 388.315887 147.916107 386.835052 147.276306 C 381.816162 145.107056 376.514526 144.493744 371.469177 145.219391 L 390.762451 164.569122 Z"/>
            <path id="Lambda" fill="#0099ff" fill-rule="evenodd" stroke="none" d="M 369.18515 160.064545 L 369.18515 163.841583 L 372.295654 163.841583 L 373.573181 167.785278 L 364.075012 182.504639 L 368.740784 182.504639 L 375.517242 172.506592 L 379.960815 183.726624 L 386.959473 181.504822 L 385.848572 178.061066 L 382.626984 179.060852 L 375.072876 160.064545 L 369.18515 160.064545 Z"/>
        </g>
        <g id="Bumber">
            <path id="-" fill="#000000" fill-rule="evenodd" stroke="none" d="M 522.46582 103 C 517.46582 103 514.61731 104.652649 512.46582 106 C 506.858185 109.511719 497.46582 119 497.46582 119 C 497.46582 119 519.192871 118.784882 530.46582 120 C 541.255859 121.163055 554.947144 123.328766 565.46582 126 C 575.989441 128.672485 586.330139 132.106812 596.46582 136 C 606.354919 139.798462 613.394592 143.528687 622.46582 149 C 630.802246 154.028107 639.46582 161 639.46582 161 C 639.46582 161 640.667725 159.346313 639.46582 157 C 637.736206 153.623596 634.316284 149.059052 633.46582 148 C 628.888306 142.299896 623.093872 136.665771 617.46582 132 C 610.774048 126.452393 603.243896 121.88031 595.46582 118 C 587.820374 114.185852 579.705383 111.260315 571.46582 109 C 562.322632 106.49176 553.891174 105.025208 544.46582 104 C 536.174744 103.098206 530.340576 103 522.46582 103 Z"/>
            <path id="path2" fill="#000000" fill-rule="evenodd" stroke="none" d="M 229 103 C 234 103 236.84848 104.652649 239 106 C 244.607635 109.511719 254 119 254 119 C 254 119 232.272934 118.784882 221 120 C 210.209961 121.163055 196.518661 123.328766 186 126 C 175.476379 128.672485 165.135681 132.106812 155 136 C 145.110916 139.798462 138.071213 143.528687 129 149 C 120.663582 154.028107 112 161 112 161 C 112 161 110.79808 159.346313 112 157 C 113.729599 153.623596 117.149513 149.059052 118 148 C 122.577484 142.299896 128.371948 136.665771 134 132 C 140.691757 126.452393 148.221909 121.88031 156 118 C 163.645416 114.185852 171.760406 111.260315 180 109 C 189.143173 106.49176 197.574615 105.025208 207 104 C 215.291092 103.098206 221.125244 103 229 103 Z"/>
        </g>
        <g id="Trigger">
            <g id="g1">
                <path id="path3" fill="#000000" stroke="none" d="M 531.190002 -0.320007 C 520.349976 0.090027 519.119995 11.119995 519 14.869995 L 519 16.099976 C 520.763794 47.104919 520.953796 67.995056 519.190002 99 C 565.509399 98.906982 591.190002 111 591.190002 111 C 591.190002 111 588.166748 90.817383 580.190002 61 C 570.49646 24.765259 561.704041 7.897156 556.97998 4.109985 C 550.878296 -0.781616 543.419983 -0.77002 531.190002 -0.320007 Z"/>
            </g>
            <g id="g2">
                <path id="path4" fill="#000000" stroke="none" d="M 221 -0.320007 C 231.839996 0.090027 233.070007 11.119995 233.190002 14.869995 L 233.190002 16.099976 C 231.426208 47.104919 231.236206 67.995056 233 99 C 186.680603 98.906982 161 111 161 111 C 161 111 164.023224 90.817383 172 61 C 181.693558 24.765259 190.485962 7.897156 195.210007 4.109985 C 201.311691 -0.781616 208.770004 -0.77002 221 -0.320007 Z"/>
            </g>
        </g>
    </g>
</svg>
