<?xml version="1.0" encoding="UTF-8"?>
<!-- Generated by Pixelmator Pro 3.1.1 -->
<svg width="70" height="128" viewBox="0 0 70 128" xmlns="http://www.w3.org/2000/svg" xmlns:xlink="http://www.w3.org/1999/xlink">
    <g id="g1">
        <g id="Up">
            <g id="g2">
                <path id="path1" fill="#0099ff" stroke="none" d="M 40.43 41.510002 L 40.43 7.290001 C 40.425804 7.243431 40.425804 7.196571 40.43 7.150002 L 40.509998 6.959999 L 40.59 6.830002 C 41.080002 6.019997 42.689999 5.309998 45.119999 4.830002 L 46 4.620003 C 46.329769 4.550682 46.663876 4.503906 47 4.480003 L 47.16 4.480003 L 48 4.339996 L 49 4.239998 L 50 4.150002 L 52.369999 4.080002 L 53.369999 4.080002 C 60.689999 4.080002 66.43 5.5 66.43 7.309998 L 66.43 41.510002 L 53.490002 54.559998 Z"/>
                <path id="path2" fill="#0099ff" stroke="#0099ff" stroke-linecap="round" d="M 53.490002 4.559998 C 61.580002 4.559998 66.059998 6.18 66.059998 7.290001 L 66.059998 41.290001 L 53.490002 53.860001 L 40.93 41.300003 L 40.93 7.300003 L 40.93 7.300003 L 40.93 7.300003 L 40.93 7.159996 L 40.93 7.159996 C 41.09 6.909996 41.84 6.050003 45.119999 5.400002 L 45.18 5.400002 L 46.009998 5.230003 L 46.099998 5.230003 C 46.43 5.169998 46.689999 5.139999 46.889999 5.120003 L 47.080002 5.120003 L 48 5 L 48 5 L 49 4.889999 L 49 4.889999 L 50 4.809998 L 51.25 4.809998 C 51.580002 4.809998 51.900002 4.809998 52.25 4.809998 L 52.380001 4.809998 L 53.380001 4.809998 M 59.609375 4.40625 L 63.109375 5.0625 L 65.3125 5.890625 L 66.515625 7.140625 L 66.546875 41.5 L 53.484375 54.546875 L 40.578125 41.5 L 40.578125 6.875 L 41.859375 5.765625 L 45.796875 4.59375 L 53.703125 4.28125 L 53.796875 4.0625 Z"/>
            </g>
            <path id="path3" fill="#0099ff" stroke="none" d="M 45 4.309998 L 45 4.309998 L 45.880001 4.120003 L 46 4.120003 C 46.299999 4.07 46.619999 4.019997 46.939999 3.989998 L 47 3.989998 L 48 3.860001 L 48 3.860001 L 49 3.75 L 49 3.75 L 50 3.669998 L 50.139999 3.669998 L 51.139999 3.669998 L 51.310001 3.669998 L 52.310001 3.669998 L 52.43 3.669998 L 53.490002 3.669998 C 60.259998 3.669998 67.050003 4.900002 67.050003 7.400002 L 69.800003 4.629997 C 68.910004 3.150002 67.099998 1.809998 63.669998 0.959999 C 60.326664 0.234703 56.910564 -0.100861 53.490002 -0.039993 C 50.069374 -0.102493 46.653084 0.233101 43.310001 0.959999 C 40.380001 1.669998 38.599998 2.75 37.59 3.959999 L 40.16 6.529999 C 40.779999 5.519997 42.599998 4.779999 45 4.309998 Z"/>
            <path id="path4" fill="#0099ff" stroke="none" d="M 67.059998 7.290001 L 67.059998 7.290001 L 67.059998 41.720001 L 70.660004 38.090004 L 70.660004 7.290001 C 70.659904 6.30246 70.363838 5.337616 69.809998 4.519997 L 67.059998 7.290001 Z"/>
            <path id="path5" fill="#0099ff" stroke="none" d="M 39.93 7.290001 C 39.925541 7.22007 39.925541 7.149925 39.93 7.080002 C 39.94994 7.038116 39.973354 6.997971 40 6.959999 L 40 6.959999 C 40 6.900002 40 6.839996 40 6.779999 L 40 6.779999 C 40.024975 6.721878 40.058701 6.667915 40.099998 6.620003 L 37.59 3.959999 C 36.770691 4.874802 36.321491 6.061974 36.330002 7.290001 L 36.330002 38.099998 L 39.93 41.720001 Z"/>
        </g>
        <g id="Down">
            <g id="g3">
                <path id="path6" fill="#0099ff" stroke="none" d="M 17.17 51.169998 C 10.03 51.169998 4.42 49.849998 4.17 48.090004 C 4.165803 48.043427 4.165803 47.996574 4.17 47.950005 L 4.17 13.730003 L 17.17 0.669998 L 30.23 13.730003 L 30.23 47.959999 C 30.23 47.959999 30.23 48.050003 30.23 48.110001 C 29.91 49.849998 24.299999 51.169998 17.17 51.169998 Z"/>
                <path id="path7" fill="#0099ff" stroke="#0099ff" stroke-linecap="round" d="M 17.17 1.370003 L 29.73 13.959999 L 29.73 47.959999 C 29.734678 47.979729 29.734678 48.000275 29.73 48.020004 C 29.540001 49.139999 25.07 50.68 17.18 50.68 C 9.29 50.68 4.81 49.129997 4.61 48.020004 C 4.61146 47.996689 4.61146 47.973312 4.61 47.950005 L 4.61 13.959999 L 17.17 1.370003 M 30.1875 13.734375 L 30.1875 48.046875 L 29.703125 48.8125 L 28.796875 49.40625 L 25.59375 50.421875 L 20.71875 51.046875 L 13.5625 51.046875 L 6.84375 49.9375 L 4.96875 49.140625 L 4.140625 48.203125 L 4.09375 13.734375 L 17.15625 0.6875 Z"/>
            </g>
            <path id="path8" fill="#0099ff" stroke="none" d="M 30.73 47.959999 L 33.48 50.730003 C 34.030521 49.910797 34.326275 48.946991 34.330002 47.959999 L 34.330002 17.139999 L 30.73 13.519997 Z"/>
            <path id="path9" fill="#0099ff" stroke="none" d="M 30.709999 48.18 C 30.299999 50.510002 23.709999 51.669998 17.17 51.669998 C 10.63 51.669998 4 50.510002 3.62 48.18 C 3.615588 48.103401 3.615588 48.026604 3.62 47.950005 L 0.82 50.720001 C 1.75 52.080002 3.56 53.419998 6.99 54.239998 C 10.333683 54.963089 13.749527 55.29863 17.17 55.239998 C 20.58703 55.295311 23.999184 54.959801 27.34 54.239998 C 30.77 53.419998 32.580002 52.080002 33.48 50.720001 L 30.73 47.959999 C 30.727392 48.033646 30.720715 48.107094 30.709999 48.18 Z"/>
            <path id="path10" fill="#0099ff" stroke="none" d="M 3.6 47.959999 L 3.6 47.959999 L 3.6 13.519997 L 0 17.139999 L 0 48.790001 L 0.09 49.029999 C 0.231293 49.632133 0.478469 50.204361 0.82 50.720001 L 3.6 47.959999 Z"/>
        </g>
    </g>
    <g id="g4">
        <g id="Right">
            <g id="g5">
                <path id="path11" fill="#0099ff" stroke="none" d="M 13.77 87.519997 L 0.71 74.459999 L 13.77 61.400002 L 48 61.400002 C 49.810001 61.400002 51.23 67.139999 51.23 74.459999 C 51.23 81.779999 49.790001 87.519997 48 87.519997 Z"/>
                <path id="path12" fill="#0099ff" stroke="#0099ff" stroke-linecap="round" d="M 48 61.900002 C 49.139999 61.900002 50.73 66.68 50.73 74.459999 C 50.73 82.239998 49.119999 87.019997 48 87.019997 L 14 87.019997 L 1.41 74.459999 L 14 61.900002 L 48 61.900002 M 49.0625 62.140625 L 49.953125 63.984375 L 50.875 68.328125 L 51.234375 73.171875 L 51.109375 78.15625 L 50.421875 83.234375 L 49.390625 86.28125 L 48.125 87.46875 L 13.765625 87.515625 L 0.71875 74.453125 L 13.765625 61.390625 L 47.859375 61.390625 Z"/>
            </g>
            <path id="path13" fill="#0099ff" stroke="none" d="M 48 60.900002 L 50.759998 58.129997 C 49.94363 57.58136 48.983578 57.285698 48 57.279999 L 17.17 57.279999 L 13.56 60.959999 Z"/>
            <path id="path14" fill="#0099ff" stroke="none" d="M 48 88.019997 L 13.56 88.019997 L 17.16 91.639999 L 49.48 91.639999 L 49.82 91.290001 C 50.143711 91.156807 50.452152 90.989182 50.740002 90.790001 L 48 88.019997 Z"/>
            <path id="path15" fill="#0099ff" stroke="none" d="M 50.740002 58.129997 L 48 60.900002 C 53 60.900002 53 88.019997 48 88.019997 L 50.759998 90.790001 C 52.130001 89.860001 53.470001 88.049995 54.310001 84.650002 C 55.02491 81.301659 55.360359 77.883438 55.310001 74.459999 C 55.361465 71.036514 55.026005 67.618172 54.310001 64.269997 C 53.450001 60.870003 52.110001 59.059998 50.740002 58.129997 Z"/>
        </g>
        <g id="left">
            <g id="g6">
                <path id="path16" fill="#0099ff" stroke="none" d="M 7.34 123.879997 C 5.52 123.879997 4.09 118.139999 4.09 110.82 C 4.09 103.5 5.52 97.760002 7.34 97.760002 L 41.549999 97.760002 L 54.619999 110.82 L 41.549999 123.879997 Z"/>
                <path id="path17" fill="#0099ff" stroke="#0099ff" stroke-linecap="round" d="M 41.349998 98.260002 L 53.91 110.82 L 41.349998 123.379997 L 7.35 123.379997 C 6.2 123.379997 4.6 118.599998 4.6 110.82 C 4.6 103.040001 6.19 98.260002 7.34 98.260002 L 41.34 98.260002 M 54.59375 110.796875 L 41.53125 123.875 L 7.46875 123.875 L 6.265625 123.125 L 5.375 121.28125 L 4.703125 118.546875 L 4.09375 109.59375 L 4.890625 102.109375 L 5.671875 99.5625 L 6.59375 98.109375 L 7.421875 97.75 L 41.53125 97.75 Z"/>
            </g>
            <path id="path18" fill="#0099ff" stroke="none" d="M 41.759998 97.260002 L 38.16 93.639999 L 7.34 93.639999 C 6.351162 93.642349 5.384682 93.93438 4.56 94.479996 L 7.34 97.260002 Z"/>
            <path id="path19" fill="#0099ff" stroke="none" d="M 7.34 97.260002 L 7.34 97.260002 L 4.56 94.489998 C 3.19 95.419998 1.88 97.220001 1.03 100.629997 C -0.343357 107.35392 -0.343357 114.286079 1.03 121.010002 C 1.88 124.409996 3.19 126.220001 4.56 127.150002 L 7.34 124.379997 C 2.35 124.379997 2.35 97.260002 7.34 97.260002 Z"/>
            <path id="path20" fill="#0099ff" stroke="none" d="M 7.34 124.379997 L 4.56 127.150002 C 5.384082 127.69809 6.350318 127.993523 7.34 127.999992 L 38.16 127.999992 L 41.759998 124.379997 Z"/>
        </g>
    </g>
</svg>
