<?xml version="1.0" encoding="UTF-8"?>
<!-- Generated by Pixelmator Pro 3.1.1 -->
<svg width="168" height="83" viewBox="0 0 168 83" xmlns="http://www.w3.org/2000/svg" xmlns:xlink="http://www.w3.org/1999/xlink">
    <g id="g1">
        <path id="path1" fill="#0099ff" stroke="none" d="M 126.07 -0.379997 C 103.047852 -0.374474 84.388161 18.291183 84.389999 41.313332 C 84.391846 64.33548 103.05452 82.998161 126.076668 83 C 149.098816 83.001839 167.764481 64.342148 167.770004 41.32 C 167.772659 30.259659 163.380127 19.651558 155.55928 11.830719 C 147.738434 4.009872 137.130341 -0.382652 126.07 -0.379997 Z"/>
        <path id="-" fill="#000000" stroke="none" d="M 126.020126 2.620003 C 147.388153 2.614616 164.714752 19.936829 164.720123 41.310249 C 164.725494 62.68367 147.407654 80.01461 126.039619 80.019997 C 104.671585 80.025383 87.345009 62.703171 87.339622 41.32975 C 87.366447 19.969681 104.665451 2.6576 126.020126 2.620003 M 85.389999 41.32325"/>
    </g>
    <g id="LSpressed">
        <path id="path2" fill="#0099ff" stroke="none" d="M 41.689999 -0.379997 C 18.667852 -0.374474 0.00816 18.291183 0.010001 41.313332 C 0.011842 64.33548 18.67452 82.998161 41.696667 83 C 64.718811 83.001839 83.384476 64.342148 83.389999 41.32 C 83.392654 30.259659 79.000122 19.651558 71.179283 11.830719 C 63.35844 4.009872 52.75034 -0.382652 41.689999 -0.379997 Z"/>
    </g>
</svg>
